<svg width="450" height="293" viewBox="0 0 450 293" fill="none" xmlns="http://www.w3.org/2000/svg">
<path d="M228.151 15.2049C231.494 12.1249 237.013 12.8658 239.415 16.7366C241.613 20.1994 240.585 24.786 237.117 26.9836L215.439 40.7143L217.441 37.3056L213.937 55.5189L212.188 51.4275L221.662 58.4365C225.904 61.7704 221.362 68.1051 216.838 65.1542L207.173 58.4115C205.899 57.5333 205.187 55.9351 205.424 54.3161L207.127 35.8447C207.231 34.7626 207.718 33.7054 208.584 32.9229L209.133 32.4276L228.156 15.2007V15.209L228.151 15.2049Z" fill="#E48544"/>
<path d="M239.463 21.0871C242.31 19.2391 246.222 20.2838 247.758 23.3221C249.215 26.1732 248.1 29.6651 245.244 31.1302L220.394 43.8829L222.596 40.5116L222.055 52.3236L220.182 47.7703L228.561 56.186C231.816 59.5656 227.616 64.789 223.595 62.2751L213.664 55.7698C212.265 54.85 211.462 53.1643 211.757 51.4079L211.79 51.2165L213.763 39.5543C213.976 38.2182 214.733 36.9738 215.965 36.183L239.458 21.0912V21.0829L239.463 21.0871Z" fill="#E48544"/>
<path d="M241.516 24.4866C244.7 22.3556 249.121 23.471 250.907 26.8631C252.609 30.0596 251.398 34.0178 248.209 35.7117L230.844 44.9557L233.383 41.5678L231.031 52.922L229.212 46.7995L234.802 55.2402C236.942 58.47 233.324 62.5281 229.849 60.6884L220.908 55.9312C219.076 54.9614 218.144 52.8012 218.789 50.7535L219.085 49.817C219.085 49.817 222.556 38.7417 222.577 38.7334C223.001 37.4057 223.859 36.2029 225.116 35.3704L241.504 24.4907H241.512L241.516 24.4866Z" fill="#E48544"/>
<path d="M282.603 44.577C277.001 46.6039 270.47 54.6992 260.567 59.2775C240.184 70.1988 243.801 50.8826 241.1 41.9091C238.398 32.9356 211.292 25.1775 210.639 22.4014C209.985 19.6253 233.004 10.7891 240.334 9.4656C247.664 8.14205 265.583 11.6216 273.005 11.3344C280.426 11.0472 288.206 42.5501 282.603 44.577Z" fill="#FDB47E"/>
<path d="M242.54 12.1127C247.876 11.2137 252.912 15.3009 253.108 20.7116C253.324 25.7352 249.42 29.9889 244.396 30.2053L205.677 31.8784L208.403 30.9919L183.408 42.2004C179.058 44.0567 175.661 38.2464 179.441 35.3746L201.56 19.2174C202.051 18.8636 202.642 18.5972 203.292 18.4932L204.287 18.3308L242.544 12.121V12.1127H242.54Z" fill="#FDB47E"/>
<path d="M255.345 39.7457C259.807 35.2174 267.695 36.1455 270.954 41.6311C273.855 46.351 272.369 52.5317 267.649 55.4202L246.362 68.4641L247.486 67.3612L232.634 81.7537C228.622 85.5204 222.536 80.6133 225.412 75.881L236.493 58.4127L237.617 57.3097L255.357 39.7374L255.345 39.7499V39.7457Z" fill="#FDB47E"/>
<path d="M221.866 34.0508L216.459 38.3169C216.459 38.3169 213.437 50.6201 214.498 52.3432C215.56 54.0663 222.411 57.1379 223.206 61.9701" stroke="#C66E34" stroke-width="3.78" stroke-miterlimit="10" stroke-linecap="round"/>
<path d="M228.757 36.835L223.708 40.5309C223.708 40.5309 220.02 48.2849 223.121 50.8279C226.218 53.3709 230.16 56.0139 229.544 60.6338" stroke="#C66E34" stroke-width="3.78" stroke-miterlimit="10" stroke-linecap="round"/>
<path d="M297.707 44.6064C299.085 45.0267 450 67.477 450 67.477V3.38086L274.235 11.5261L277.257 44.1693L297.707 44.6064Z" fill="#FFB57F"/>
<path d="M196.747 97.7794C196.709 97.6546 196.68 97.5339 196.643 97.409C196.609 97.2883 196.572 97.1676 196.543 97.0469C196.489 96.8471 196.443 96.6473 196.397 96.4475C196.372 96.3393 196.343 96.2353 196.322 96.127C196.318 96.1021 196.31 96.0813 196.305 96.0563C196.289 95.9814 196.276 95.9023 196.264 95.8274C196.21 95.5568 196.16 95.2905 196.114 95.0241C196.093 94.8951 196.072 94.7702 196.056 94.6412C196.018 94.3998 195.989 94.1584 195.96 93.917C195.952 93.8421 195.939 93.7713 195.931 93.6964C195.922 93.6256 195.918 93.5507 195.914 93.48C195.902 93.3509 195.893 93.2219 195.881 93.0929C195.868 92.9139 195.856 92.7391 195.847 92.5602C195.839 92.4311 195.835 92.3062 195.831 92.1772C195.827 91.9983 195.823 91.8193 195.818 91.6445C195.818 91.5196 195.818 91.3989 195.818 91.2741C195.818 91.091 195.827 90.9078 195.831 90.7247C195.831 90.6081 195.835 90.4958 195.843 90.3792C195.852 90.1753 195.868 89.9713 195.885 89.7715C195.893 89.68 195.897 89.5884 195.906 89.4969C195.931 89.2055 195.964 88.9142 196.006 88.6228C196.01 88.5895 196.018 88.5562 196.022 88.5271C196.06 88.269 196.097 88.0151 196.143 87.7654C196.16 87.6655 196.181 87.5698 196.201 87.4741C196.23 87.3243 196.26 87.1702 196.289 87.0204C196.293 86.9954 196.301 86.9705 196.31 86.9413C196.389 86.5917 196.472 86.2463 196.568 85.9008C196.584 85.8342 196.605 85.7718 196.626 85.7094C196.709 85.4305 196.792 85.1517 196.888 84.877C196.905 84.8312 196.917 84.7812 196.934 84.7354C196.963 84.648 196.996 84.5648 197.03 84.4774C197.071 84.3567 197.117 84.2401 197.163 84.1236C197.221 83.9738 197.284 83.8239 197.342 83.6783C197.388 83.5659 197.438 83.4493 197.488 83.3369C197.504 83.2953 197.521 83.2537 197.537 83.2162C197.604 83.0664 197.675 82.9208 197.746 82.7751C197.771 82.7251 197.791 82.6752 197.816 82.6252C197.925 82.4088 198.033 82.1924 198.149 81.9801C198.162 81.9593 198.17 81.9426 198.183 81.9218C198.208 81.8719 198.237 81.8261 198.266 81.7762C198.366 81.593 198.474 81.414 198.578 81.2392C198.616 81.1768 198.653 81.1144 198.69 81.0561C198.72 81.0103 198.745 80.9646 198.774 80.9188C198.811 80.8647 198.849 80.8106 198.886 80.7565C199.019 80.5484 199.161 80.3486 199.302 80.1488C199.34 80.0988 199.369 80.0447 199.406 79.9948C199.436 79.9573 199.465 79.9199 199.494 79.8824C199.635 79.691 199.781 79.5078 199.931 79.3247C199.972 79.2706 200.014 79.2165 200.06 79.1624C200.072 79.1457 200.089 79.1332 200.102 79.1166C200.306 78.8752 200.514 78.6421 200.73 78.4132C200.73 78.4132 200.738 78.4049 200.738 78.4007C200.768 78.3716 200.801 78.3425 200.83 78.3133C201.013 78.126 201.196 77.9387 201.388 77.7597C201.409 77.7431 201.425 77.7223 201.446 77.7015C201.504 77.6474 201.567 77.5974 201.629 77.5433C201.779 77.4101 201.925 77.277 202.079 77.1521C202.116 77.123 202.149 77.0897 202.183 77.0605C202.237 77.0148 202.299 76.9731 202.353 76.9315C202.503 76.8108 202.657 76.6943 202.811 76.5819C202.865 76.5444 202.911 76.5028 202.965 76.4653C203.011 76.432 203.057 76.4071 203.103 76.3738C203.269 76.2572 203.44 76.1448 203.61 76.0366C203.677 75.995 203.735 75.9492 203.802 75.9076C203.848 75.8785 203.894 75.8535 203.939 75.8285C203.985 75.7994 204.031 75.7744 204.077 75.7495C204.285 75.6288 204.493 75.5081 204.709 75.3957C204.718 75.3915 204.726 75.3874 204.734 75.3832C204.755 75.3707 204.78 75.3624 204.801 75.3499C205.009 75.2417 205.217 75.1418 205.429 75.046C205.484 75.0211 205.534 74.9961 205.588 74.9753C205.629 74.9587 205.671 74.9379 205.713 74.917C205.908 74.8338 206.104 74.7547 206.304 74.6757C206.329 74.6673 206.358 74.6548 206.383 74.6465C206.541 74.5882 206.703 74.53 206.861 74.4717C206.953 74.4426 207.045 74.4093 207.14 74.3801L210.737 73.248C210.479 73.3271 210.229 73.4187 209.979 73.5103C209.954 73.5186 209.925 73.531 209.9 73.5394C209.659 73.6309 209.421 73.7309 209.184 73.8349C209.13 73.8599 209.076 73.8848 209.026 73.9056C208.814 74.0014 208.605 74.1013 208.401 74.2095C208.381 74.222 208.356 74.2303 208.331 74.2428C208.11 74.3593 207.89 74.48 207.677 74.6091C207.631 74.634 207.586 74.6631 207.54 74.6881C207.427 74.7547 207.319 74.8255 207.211 74.8962C207.04 75.0044 206.87 75.1168 206.703 75.2334C206.603 75.3 206.508 75.3707 206.412 75.4415C206.258 75.5539 206.104 75.6745 205.954 75.7911C205.862 75.866 205.767 75.9368 205.679 76.0117C205.525 76.1407 205.375 76.2697 205.226 76.4071C205.146 76.4778 205.063 76.5486 204.988 76.6235C204.797 76.8025 204.609 76.9898 204.426 77.1771C204.393 77.2104 204.36 77.2437 204.326 77.277C204.11 77.5059 203.902 77.7389 203.698 77.9803C203.64 78.0469 203.586 78.1177 203.531 78.1884C203.382 78.3716 203.236 78.5547 203.094 78.7462C203.028 78.8336 202.965 78.921 202.903 79.0125C202.761 79.2123 202.62 79.4163 202.487 79.6202C202.42 79.7201 202.353 79.8158 202.291 79.9199C202.254 79.9823 202.216 80.0406 202.179 80.103C202.07 80.282 201.966 80.461 201.866 80.6399C201.841 80.6899 201.812 80.7356 201.783 80.7856C201.658 81.0187 201.533 81.2518 201.417 81.489C201.392 81.539 201.371 81.5889 201.346 81.6388C201.255 81.8261 201.171 82.0134 201.084 82.2049C201.034 82.3172 200.988 82.4296 200.938 82.5461C200.876 82.696 200.817 82.8417 200.759 82.9915C200.713 83.1081 200.672 83.2287 200.626 83.3453C200.576 83.4785 200.53 83.6116 200.484 83.7448C200.393 84.0195 200.305 84.2984 200.222 84.5772C200.206 84.6397 200.181 84.7063 200.164 84.7687C200.068 85.11 199.981 85.4596 199.906 85.8093C199.868 85.9841 199.831 86.163 199.798 86.342C199.777 86.4377 199.756 86.5376 199.739 86.6333C199.694 86.8872 199.656 87.1411 199.619 87.395C199.615 87.4283 199.606 87.4616 199.602 87.4907C199.565 87.7779 199.531 88.0692 199.502 88.3647C199.494 88.4563 199.49 88.5479 199.481 88.6394C199.465 88.8434 199.448 89.0432 199.44 89.2513C199.436 89.3636 199.431 89.4802 199.427 89.5967C199.423 89.7799 199.415 89.963 199.415 90.1461C199.415 90.271 199.415 90.3917 199.415 90.5166C199.415 90.6955 199.419 90.8703 199.427 91.0493C199.431 91.1783 199.44 91.3032 199.444 91.4322C199.452 91.6071 199.465 91.786 199.477 91.965C199.486 92.094 199.498 92.223 199.51 92.3521C199.523 92.4977 199.54 92.6434 199.556 92.789C199.585 93.0304 199.615 93.2719 199.652 93.5133C199.673 93.6423 199.689 93.7671 199.71 93.8962C199.756 94.1625 199.806 94.4331 199.86 94.6995C199.881 94.7994 199.898 94.8992 199.918 94.9991C199.943 95.1073 199.968 95.2114 199.993 95.3196C200.039 95.5194 200.089 95.7192 200.139 95.9189C200.172 96.0396 200.206 96.1603 200.239 96.281C200.305 96.5183 200.372 96.7556 200.447 96.9928C200.555 97.3382 200.672 97.6795 200.797 98.0125C200.897 98.2789 200.996 98.5452 201.105 98.8075C201.13 98.8699 201.155 98.9281 201.184 98.9906C201.255 99.1612 201.329 99.3236 201.404 99.49C201.513 99.7314 201.625 99.9687 201.742 100.206C201.792 100.31 201.846 100.418 201.896 100.522C202.033 100.789 202.174 101.051 202.32 101.313C202.349 101.367 202.378 101.421 202.408 101.471C202.582 101.775 202.766 102.071 202.949 102.362C203.003 102.445 203.061 102.528 203.115 102.607C203.248 102.811 203.386 103.015 203.527 103.211C203.602 103.315 203.677 103.415 203.752 103.515C203.881 103.69 204.01 103.864 204.147 104.031C204.231 104.135 204.314 104.235 204.393 104.339C204.53 104.505 204.668 104.668 204.809 104.83C204.893 104.926 204.976 105.021 205.059 105.117C205.226 105.304 205.4 105.483 205.575 105.662C205.642 105.729 205.704 105.8 205.775 105.866C206.025 106.116 206.279 106.357 206.541 106.591C206.595 106.636 206.649 106.682 206.699 106.728C206.928 106.928 207.157 107.123 207.39 107.311C207.473 107.377 207.552 107.44 207.636 107.502C207.948 107.743 208.264 107.981 208.585 108.201C208.585 108.201 208.585 108.201 208.589 108.201C208.593 108.205 208.601 108.21 208.605 108.214C208.826 108.364 209.051 108.509 209.28 108.651C209.355 108.697 209.434 108.742 209.513 108.788C209.667 108.88 209.821 108.971 209.975 109.059C210.133 109.146 210.287 109.229 210.445 109.313C210.553 109.371 210.666 109.429 210.774 109.483C210.945 109.566 211.115 109.646 211.29 109.725C211.394 109.77 211.494 109.82 211.598 109.866C211.665 109.895 211.727 109.92 211.794 109.949C211.973 110.024 212.152 110.099 212.335 110.166C212.422 110.199 212.51 110.228 212.597 110.262C212.76 110.32 212.926 110.378 213.093 110.432C213.184 110.461 213.272 110.49 213.363 110.52C213.538 110.574 213.713 110.624 213.888 110.669C213.967 110.69 214.042 110.715 214.121 110.732C214.375 110.798 214.629 110.857 214.882 110.911C214.899 110.911 214.92 110.919 214.937 110.919C215.174 110.965 215.411 111.011 215.648 111.044C215.732 111.056 215.815 111.069 215.898 111.077C216.073 111.102 216.248 111.123 216.427 111.144C216.522 111.152 216.614 111.161 216.71 111.169C216.88 111.185 217.055 111.194 217.226 111.202C217.317 111.206 217.405 111.21 217.496 111.215C217.696 111.223 217.896 111.223 218.096 111.223C218.158 111.223 218.217 111.223 218.279 111.223C218.537 111.219 218.799 111.206 219.057 111.19C219.124 111.186 219.186 111.177 219.253 111.173C219.449 111.156 219.644 111.136 219.84 111.115C219.931 111.102 220.023 111.09 220.115 111.077C220.285 111.052 220.46 111.023 220.631 110.994C220.727 110.977 220.818 110.961 220.914 110.94C221.093 110.903 221.272 110.865 221.447 110.823C221.53 110.803 221.613 110.786 221.696 110.765C221.954 110.699 222.208 110.628 222.466 110.549L218.87 111.681C218.612 111.76 218.354 111.835 218.096 111.901C218.013 111.922 217.929 111.939 217.85 111.96C217.671 112.001 217.492 112.043 217.313 112.08C217.218 112.101 217.126 112.118 217.03 112.134C216.855 112.164 216.685 112.193 216.51 112.218C216.418 112.23 216.327 112.243 216.235 112.255C216.04 112.28 215.844 112.301 215.648 112.313C215.582 112.318 215.519 112.326 215.453 112.33C215.195 112.347 214.932 112.359 214.674 112.363C214.612 112.363 214.554 112.363 214.491 112.363C214.291 112.363 214.092 112.363 213.892 112.355C213.8 112.355 213.713 112.347 213.621 112.343C213.451 112.334 213.276 112.322 213.105 112.309C213.009 112.301 212.918 112.293 212.822 112.284C212.647 112.268 212.468 112.243 212.293 112.218C212.21 112.205 212.127 112.197 212.044 112.184C211.806 112.147 211.569 112.105 211.332 112.06C211.315 112.06 211.294 112.051 211.278 112.051C211.024 111.997 210.77 111.939 210.516 111.872C210.437 111.851 210.362 111.831 210.283 111.81C210.108 111.76 209.933 111.71 209.758 111.66C209.667 111.631 209.579 111.602 209.488 111.573C209.321 111.518 209.159 111.46 208.993 111.402C208.905 111.369 208.818 111.34 208.73 111.306C208.547 111.235 208.368 111.165 208.189 111.09C208.123 111.061 208.056 111.036 207.994 111.007C207.977 110.998 207.96 110.994 207.944 110.986C207.856 110.948 207.773 110.902 207.686 110.865C207.515 110.786 207.34 110.707 207.169 110.624C207.057 110.57 206.949 110.511 206.841 110.453C206.682 110.37 206.524 110.286 206.37 110.199C206.337 110.182 206.304 110.166 206.27 110.145C206.15 110.074 206.029 109.999 205.908 109.929C205.833 109.883 205.754 109.837 205.679 109.791C205.45 109.65 205.226 109.504 205.005 109.354C205.001 109.35 204.992 109.346 204.988 109.342C204.664 109.121 204.347 108.884 204.039 108.642C204.002 108.613 203.96 108.584 203.919 108.555C203.877 108.522 203.835 108.484 203.794 108.451C203.561 108.264 203.327 108.068 203.103 107.868C203.061 107.831 203.019 107.802 202.978 107.764C202.965 107.752 202.953 107.739 202.94 107.731C202.678 107.498 202.424 107.256 202.174 107.007C202.162 106.994 202.145 106.978 202.129 106.965C202.075 106.911 202.029 106.857 201.975 106.803C201.8 106.624 201.629 106.441 201.459 106.258C201.425 106.22 201.388 106.187 201.354 106.149C201.305 106.091 201.255 106.029 201.205 105.97C201.063 105.808 200.926 105.646 200.788 105.479C200.743 105.425 200.693 105.371 200.647 105.313C200.609 105.267 200.576 105.217 200.539 105.171C200.405 105.001 200.276 104.83 200.143 104.655C200.089 104.584 200.035 104.518 199.985 104.447C199.964 104.414 199.943 104.38 199.918 104.351C199.777 104.152 199.64 103.952 199.506 103.748C199.461 103.677 199.411 103.615 199.365 103.544C199.356 103.531 199.348 103.515 199.34 103.502C199.152 103.211 198.969 102.915 198.799 102.612C198.799 102.603 198.79 102.599 198.786 102.591C198.761 102.545 198.736 102.499 198.711 102.453C198.566 102.195 198.42 101.933 198.287 101.663C198.27 101.629 198.249 101.596 198.233 101.563C198.195 101.492 198.166 101.417 198.129 101.346C198.012 101.109 197.9 100.872 197.791 100.63C197.762 100.568 197.733 100.51 197.704 100.447C197.658 100.343 197.612 100.235 197.571 100.131C197.546 100.069 197.517 100.01 197.492 99.9479C197.392 99.7065 197.296 99.4609 197.204 99.2153C197.196 99.1945 197.192 99.1737 197.184 99.1571C197.059 98.8199 196.942 98.4828 196.834 98.1374C196.797 98.025 196.763 97.9084 196.73 97.796L196.747 97.7794Z" fill="#FFAE00"/>
<path d="M222.503 110.522C231.426 107.708 236.026 97.0769 232.778 86.7754C229.53 76.4739 219.663 70.4035 210.739 73.2168C201.816 76.03 197.215 86.6615 200.464 96.963C203.712 107.264 213.579 113.335 222.503 110.522Z" fill="#FFD733"/>
<path d="M223.388 110.232C225.59 109.4 227.58 108.022 229.174 106.287C230.768 104.543 231.971 102.457 232.754 100.231C233.536 98.004 233.907 95.6358 233.89 93.2759C233.873 90.9119 233.461 88.5561 232.708 86.3169C231.205 81.8427 228.237 77.8304 224.258 75.2707C222.273 73.993 220.041 73.0898 217.706 72.711C215.375 72.3406 212.961 72.5112 210.722 73.2396C212.969 72.5445 215.379 72.4113 217.69 72.8151C220.004 73.2063 222.218 74.1095 224.179 75.3873C228.117 77.9511 231.039 81.9426 232.508 86.3835C233.266 88.5978 233.686 90.9327 233.715 93.2759C233.744 95.6192 233.386 97.9666 232.62 100.185C231.859 102.399 230.668 104.476 229.099 106.216C227.538 107.964 225.578 109.367 223.388 110.232Z" fill="#EDB400"/>
<path d="M235.554 241.698C235.483 242.822 235.603 243.979 235.554 245.103L247.075 245.311C247.7 245.103 247.296 242.822 247.233 242.185C251.271 242.293 255.367 242.231 259.396 242.426C260.482 242.48 262.376 242.913 263.409 242.913H267.059C268.071 242.913 269.927 243.076 271.072 243.155C272.117 243.225 273.27 243.317 274.352 243.4C279.913 243.821 285.499 244.416 291.018 245.098C290.585 247.03 290.34 249.027 289.803 250.934L297.553 251.629C297.882 251.425 298.053 246.992 298.07 246.226C298.128 246.002 298.398 246.089 298.561 246.072C300.005 245.914 304.858 247.05 306.594 247.404C310.249 248.145 321.163 250.397 322.986 253.631C323.864 255.183 323.169 255.991 322.037 257.023C316.913 261.701 297.183 264.207 289.919 265.043C259.875 268.494 227.936 268.564 197.733 267.47C179.131 266.795 156.646 265.809 138.731 261.035C131.122 259.008 121.719 254.684 134.718 249.96C141.228 247.596 148.475 246.763 155.276 245.585C155.276 245.619 155.543 245.843 155.53 246.176C155.497 247.246 155.043 248.536 155.276 249.723L165.495 248.749C165.612 247.271 165.379 245.827 165.25 244.37C169.221 244.079 173.187 243.554 177.171 243.396C177.658 243.375 178.299 243.396 178.753 243.396H185.075C186.578 243.396 188.368 242.897 189.821 242.668C192.014 242.322 194.603 242.281 196.876 242.181C202.899 241.919 209.118 241.781 215.12 241.694C221.926 241.594 228.748 241.769 235.554 241.694V241.698Z" fill="#A0D92A"/>
<path d="M222.177 132.486C213.894 133.298 206.963 140.357 206.356 148.652C205.944 154.27 209.14 159.211 206.497 164.605C205.706 166.22 204.17 167.764 203.251 169.387C201.024 173.312 200.562 177.149 200.77 181.623C200.782 181.865 200.753 182.11 200.77 182.352C195.642 183.375 191.442 181.977 187.629 178.585C186.068 177.195 184.882 175.443 183.383 174.073C176.319 167.626 166.429 167.089 158.2 171.647C160.356 164.867 163.724 162.465 168.057 157.542C173.218 151.673 170.708 143.295 172.798 136.132C174.604 129.939 177.884 127.513 181.552 122.872C186.538 116.558 190.95 108.742 200.17 107.922C215.109 106.59 219.596 120.62 222.181 132.486H222.177Z" fill="#A0D92A"/>
<path d="M297.342 155.348C285.895 159.086 283.931 167.302 280.559 177.728C276.001 177.695 271.044 176.646 267.751 173.262C265.037 170.473 265.029 167.81 263.78 164.463C260.783 156.426 253.091 151.707 244.558 152.672C244.525 152.601 244.358 152.526 244.317 152.431C244.275 152.335 244.104 152.26 244.075 152.189C242.589 148.868 241.44 145.438 239.696 142.217C240.108 141.963 240.15 141.559 240.187 141.127C240.583 136.865 239.784 134.059 241.395 129.685C249.187 108.492 289.013 111.634 292.659 134.621C293.621 140.673 291.515 145.513 294.791 151.465C295.544 152.835 296.734 153.896 297.351 155.353L297.342 155.348Z" fill="#A0D92A"/>
<path d="M239.691 142.213C241.435 145.439 242.584 148.864 244.07 152.185L244.311 152.427C244.357 152.527 244.524 152.598 244.553 152.668C245.706 155.249 246.517 157.983 247.866 160.668C250.314 165.533 253.748 169.928 255.987 174.806C250.975 181.091 245.26 187.468 236.644 188.179C222.667 189.336 221.476 176.5 209.164 177.724C205.958 178.045 203.444 180.092 200.768 181.616C200.56 177.141 201.018 173.304 203.249 169.379C204.169 167.76 205.705 166.212 206.495 164.597C209.139 159.203 205.942 154.262 206.354 148.644C206.962 140.349 213.892 133.29 222.175 132.478C230.097 131.7 236.045 135.462 239.691 142.209V142.213Z" fill="#28BD3B"/>
<path d="M297.829 155.349L298.07 155.59C307.835 155.39 313.779 162.578 314.379 171.997C314.55 174.648 314.129 176.929 314.783 179.622C315.715 183.46 318.508 185.054 320.248 188.267C323.307 193.906 323.391 200.129 321.909 206.185C320.764 206.16 319.723 205.598 318.595 205.485C310.891 204.711 309.45 211.745 303.486 214.155C299.71 215.678 295.898 215.449 292.314 213.526C287.165 210.763 282.798 201.889 275.876 204.549C274.611 205.036 273.732 206.147 272.529 206.676C272.48 206.06 272.242 205.577 272.288 204.728C272.442 201.665 273.703 198.127 274.719 195.242C276.784 189.386 278.657 183.601 280.559 177.728C283.93 167.302 285.895 159.086 297.342 155.349C297.442 155.315 297.683 155.345 297.829 155.349Z" fill="#28BD3B"/>
<path d="M172.793 136.133C170.704 143.292 173.214 151.67 168.052 157.543C163.723 162.466 160.352 164.868 158.196 171.648C156.11 178.199 156.064 186.269 158.924 192.567C147.148 199.521 134.074 192.092 127.302 181.866C128.284 174.208 131.002 172.859 135.044 167.353C139.136 161.78 137.645 158.221 138.524 152.103C140.838 136.016 159.357 131.967 172.789 136.137L172.793 136.133Z" fill="#28BD3B"/>
<path d="M158.928 192.565C160.189 195.346 165.009 199.42 167.765 200.877C168.739 201.393 171.969 202.421 172.306 203.025C172.36 203.125 172.289 203.474 172.443 203.728C173.946 206.204 176.085 208.231 177.413 210.808C176.552 210.779 174.633 211.69 173.53 211.911C170.537 212.51 166.853 212.331 164.035 211.049C161.654 209.967 160.564 208.327 157.467 208.131C154.516 207.944 151.281 209.613 148.222 209.347C147.165 209.255 144.934 208.847 143.843 208.618C131.589 206.025 125.807 193.51 127.301 181.86C134.074 192.091 147.148 199.52 158.924 192.561L158.928 192.565Z" fill="#027D40"/>
<path d="M321.913 206.188C319.782 214.903 310.82 226.016 300.751 222.728C299.082 222.183 298.45 221.359 296.373 221.026C293.717 220.601 292.252 221.804 289.804 222C288.743 222.087 287.461 221.912 286.399 221.758C280.414 220.884 275.223 216.539 273.263 210.812C272.692 209.143 272.667 208.385 272.534 206.675C273.737 206.146 274.615 205.035 275.881 204.548C282.803 201.888 287.169 210.762 292.318 213.526C295.902 215.449 299.715 215.678 303.49 214.154C309.455 211.748 310.9 204.71 318.6 205.485C319.728 205.597 320.769 206.159 321.913 206.184V206.188Z" fill="#027D40"/>
<path d="M164.034 211.048C163.63 211.302 163.792 211.973 163.788 212.385C163.734 216.601 163.801 220.829 163.801 225.046C163.801 231.489 164.679 237.948 165.249 244.374C165.378 245.831 165.611 247.28 165.495 248.753L155.276 249.727C155.043 248.541 155.497 247.246 155.53 246.181C155.542 245.848 155.272 245.623 155.276 245.59C155.388 243.13 155.996 240.653 155.751 238.16L156.454 227.272L145.186 216.638L143.842 208.618C144.932 208.847 147.163 209.255 148.221 209.346C148.412 211.094 148.587 212.93 149.182 214.586C151.355 216.201 153.378 218.045 155.542 219.66C155.771 219.831 156.808 220.73 156.974 220.534L157.461 208.131C160.558 208.326 161.649 209.966 164.03 211.048H164.034Z" fill="#BE6632"/>
<path d="M300.748 222.728L298.313 244.504L298.559 246.077C298.396 246.094 298.126 246.006 298.067 246.231C298.051 246.997 297.88 251.43 297.551 251.634L289.801 250.939C290.342 249.028 290.587 247.03 291.016 245.103C291.819 241.507 292.952 237.965 293.451 234.29L287.07 226.299L286.392 221.75C287.453 221.904 288.735 222.079 289.797 221.991C289.926 222.761 289.884 224.276 290.163 224.909C290.479 225.616 292.76 227.693 293.439 228.442C293.963 229.025 294.001 229.987 294.904 229.778L296.365 221.021C298.442 221.354 299.075 222.179 300.744 222.724L300.748 222.728Z" fill="#BE6632"/>
<path d="M298.075 155.594L297.833 155.353C298.017 155.357 298.059 155.598 298.075 155.594Z" fill="#A0D92A"/>
<path d="M205.391 200.835L206.61 227.347C207.564 226.532 209.945 225.533 210.344 224.392C210.981 217.712 213.2 210.47 213.67 203.861C213.703 203.394 213.678 202.941 213.42 202.537C213.732 202.608 214.082 202.699 214.394 202.779C215.814 203.145 216.954 203.84 218.286 204.239L217.558 212.023L226.486 206.603L227.044 204.481C228.692 204.027 230.016 202.916 231.664 202.533C231.073 204.185 230.848 207.727 229.72 208.98L217.47 217.65L216.933 218.328L215.614 232.82L215.127 241.698C209.125 241.786 202.906 241.919 196.883 242.185C197.203 232.974 197.699 223.801 197.848 214.582L193.982 209.259C193.499 208.66 193.465 209.471 193.236 209.704C192.333 210.645 188.516 214.653 188.375 215.564C188.233 216.48 188.599 217.15 188.616 217.97C188.774 226.02 188.67 234.036 189.074 242.077L189.823 242.668C188.371 242.897 186.585 243.396 185.078 243.396H178.755C178.302 243.396 177.661 243.376 177.174 243.396L180.966 214.803C180.241 214.137 178.143 210.828 177.415 210.803C176.087 208.227 173.948 206.2 172.445 203.723C172.291 203.469 172.362 203.12 172.308 203.02C172.545 202.558 173.128 202.862 173.481 202.937C175.001 203.253 176.599 203.644 178.143 203.748C178.622 204.535 181.032 207.802 181.669 207.89C182.173 207.96 182.214 207.099 182.252 206.762C182.368 205.767 182.231 204.743 182.281 203.748C183.946 203.598 186.46 202.97 188.121 202.533L188.483 207.881C189.049 207.486 190.839 206.071 190.997 205.517C191.284 204.531 190.252 203.041 190.065 202.046C192.267 201.393 194.198 200.315 196.633 199.857C196.791 200.802 195.355 202.462 195.409 203.124C195.438 203.499 197.978 206.903 198.215 206.907C198.477 206.907 198.564 206.32 198.594 206.071C198.814 204.065 198.406 201.667 198.581 199.611C201.928 199.465 202.556 200.052 205.391 200.827V200.835ZM207.097 241.698C207.564 241.615 207.501 241.19 207.593 240.857C208.271 238.394 208.392 235.247 208.921 232.704C208.554 233.112 207.306 233.953 207.077 234.261C206.252 235.376 207.381 240.117 207.097 241.698Z" fill="#BE6632"/>
<path d="M268.397 193.293L269.129 207.403C270.286 206.703 270.986 205.168 272.289 204.726C272.247 205.571 272.484 206.054 272.53 206.674C272.667 208.381 272.688 209.138 273.258 210.811L269.841 214.083C269.179 215.232 269.795 218.328 269.854 219.693C270.182 227.522 270.615 235.343 271.073 243.163C269.929 243.084 268.068 242.922 267.061 242.922H263.41C262.374 242.922 260.484 242.489 259.397 242.435C259.959 239.268 259.893 236.03 260.13 232.829C260.779 224.138 261.583 215.515 261.841 206.808C261.974 202.3 261.799 197.792 262.074 193.297C264.401 192.669 265.108 192.278 267.743 192.869C268.118 192.952 268.338 193.285 268.397 193.297V193.293Z" fill="#BE6632"/>
<path d="M245.042 199.62L243.572 211.649C244.792 221.817 246.182 232.005 247.231 242.19C247.298 242.827 247.697 245.108 247.073 245.316L235.551 245.108C235.601 243.98 235.485 242.827 235.551 241.703C235.551 241.666 235.784 241.428 235.805 241.116C236.492 230.178 236.971 219.261 237.695 208.306C237.603 207.711 233.969 203.362 233.274 202.504C233.016 202.184 232.937 201.772 232.388 201.809C233.703 200.731 235.014 200.182 236.767 200.107C236.971 200.498 238.065 202.4 238.232 202.538C238.948 203.137 238.619 200.761 238.956 200.348C240.355 200.353 243.755 200.003 245.037 199.62H245.042Z" fill="#BE6632"/>
<path d="M200.768 182.348C201.355 190.506 206.758 198.114 213.747 202.098C214.076 202.285 214.525 202.177 214.388 202.78C214.076 202.701 213.726 202.605 213.414 202.539C210.741 201.939 208.057 201.565 205.384 200.836C202.546 200.062 201.917 199.471 198.575 199.621C197.8 199.654 197.368 199.725 196.627 199.862C194.192 200.32 192.26 201.398 190.058 202.052C189.513 202.214 188.73 202.376 188.11 202.539C186.449 202.98 183.935 203.604 182.27 203.754C181.101 203.858 179.319 203.833 178.133 203.754C176.584 203.65 174.986 203.259 173.471 202.942C173.117 202.868 172.53 202.564 172.297 203.026C171.96 202.422 168.73 201.394 167.756 200.878C165 199.421 160.18 195.347 158.919 192.566C156.059 186.269 156.105 178.199 158.19 171.648C166.42 167.09 176.314 167.627 183.373 174.074C184.872 175.444 186.058 177.196 187.619 178.586C191.432 181.978 195.632 183.376 200.76 182.353L200.768 182.348Z" fill="#62B529"/>
<path d="M255.986 174.81C258.15 179.525 258.238 184.957 256.028 189.81L252.581 194.996C251.582 195.108 250.221 196.656 249.205 197.339C248.352 197.913 245.83 199.383 245.039 199.62C243.752 200.003 240.356 200.356 238.957 200.348C238.416 200.348 237.621 200.069 236.768 200.107C235.015 200.182 233.704 200.731 232.389 201.809C232.073 202.067 231.994 201.601 231.661 202.537C230.008 202.92 228.684 204.032 227.04 204.485C224.151 205.28 221.142 205.093 218.282 204.244C216.95 203.848 215.81 203.149 214.39 202.783C214.524 202.179 214.074 202.288 213.749 202.1C206.761 198.117 201.358 190.509 200.771 182.351C200.754 182.11 200.783 181.864 200.771 181.623C203.443 180.1 205.961 178.052 209.167 177.731C221.479 176.504 222.67 189.344 236.647 188.187C245.268 187.475 250.979 181.098 255.99 174.814L255.986 174.81Z" fill="#027D40"/>
<path d="M244.554 152.672C253.091 151.707 260.779 156.427 263.776 164.464C265.025 167.81 265.033 170.474 267.747 173.262C271.039 176.646 275.997 177.695 280.555 177.728C278.653 183.601 276.784 189.382 274.715 195.242C272.675 194.393 270.498 193.84 268.392 193.294C268.334 193.278 268.113 192.949 267.739 192.866C265.1 192.279 264.392 192.666 262.069 193.294C261.932 193.332 261.724 193.257 261.582 193.294L261.341 193.536C258.115 194.385 255.851 194.63 252.583 194.997L256.03 189.811C258.236 184.958 258.152 179.522 255.988 174.811C253.749 169.937 250.315 165.537 247.867 160.672C246.518 157.987 245.707 155.253 244.554 152.672Z" fill="#62B529"/>
<path d="M244.311 152.43L244.068 152.188C244.102 152.263 244.269 152.334 244.311 152.43Z" fill="#62B529"/>
<path d="M182.281 203.752C182.231 204.747 182.368 205.771 182.252 206.766C182.214 207.099 182.173 207.964 181.669 207.894C181.032 207.806 178.622 204.539 178.144 203.752C179.33 203.831 181.111 203.856 182.281 203.752Z" fill="#027D40"/>
<path d="M261.343 193.54L261.585 193.298C261.514 193.319 261.418 193.523 261.343 193.54Z" fill="#BE6632"/>
</svg>
