<svg width="450" height="333" viewBox="0 0 450 333" fill="none" xmlns="http://www.w3.org/2000/svg">
<path d="M74.762 73.7468C73.0495 82.5802 72.0036 92.0218 70.837 100.98C69.5703 110.688 70.1578 128.072 63.0661 135.088C59.937 138.184 54.5495 138.463 50.4953 140.468C41.5536 144.88 36.7203 152.126 34.3828 161.497C45.6995 164.739 55.287 165.643 66.6703 162.126C79.2036 158.251 87.9453 147.018 101.491 145.597C134.095 142.172 132.749 170.201 151.308 185.913C163.249 196.026 180.962 198.059 195.258 191.997L209.875 183.434C209.937 183.301 209.812 183.076 209.875 182.934L210.374 181.938C210.899 180.626 211.645 179.634 212.116 177.947C215.995 164.039 210.912 149.409 199.991 140.313C202.324 136.926 204.237 132.368 204.837 128.288C205.029 126.993 205.416 122.809 205.391 121.613C196.45 121.947 188.179 121.776 179.97 117.868C157.441 107.134 158.349 79.7802 127.724 74.8885C112.27 72.4177 99.6661 80.9676 83.8578 76.376C80.9245 75.526 77.6578 73.2135 74.7662 73.751L74.762 73.7468Z" fill="#A0D92A"/>
<path d="M74.7617 73.7468C77.6534 73.2052 80.9242 75.5176 83.8534 76.3718C99.6617 80.9635 112.266 72.4135 127.72 74.8843C158.341 79.776 157.437 107.13 179.966 117.864C188.174 121.776 196.445 121.947 205.387 121.609C205.149 110.897 198.645 100.139 189.266 95.101C184.233 92.3968 178.753 92.326 174.458 87.9719C169.216 82.6635 163.824 60.5968 160.249 52.3218C150.549 29.8802 129.274 16.2218 104.995 26.451C86.1242 34.401 78.3951 55.0093 74.7617 73.7427V73.7468Z" fill="#A0D92A"/>
<path d="M34.379 161.493C30.6665 176.364 34.2915 190.239 47.1832 199.293C61.1665 209.114 78.1082 205.98 93.7082 202.376C93.6249 202.318 93.5332 201.189 92.7415 200.61C91.5249 199.718 87.2665 197.335 86.779 196.593C86.0499 195.493 86.0582 193.343 87.2207 192.651C90.2207 190.864 98.1999 197.76 102.683 197.889C105.221 197.964 107.154 196.293 109.662 196.393C109.521 195.88 109.746 195.139 109.192 194.639L88.6998 173.235C86.6582 170.16 89.1707 166.751 92.5624 167.843C95.429 168.768 106.183 177.322 109.633 179.718C110.633 180.414 116.104 185.426 117.137 184.426L120.137 154.268C120.358 151.793 126.812 154.122 127.112 155.755L125.617 197.385C126.787 198.472 134.529 193.293 135.154 192.889C137.471 191.376 138.979 190.66 140.254 191.614C143.279 193.885 139.325 196.668 137.35 198.914C136.792 199.551 135.292 200.705 135.158 200.855C160.258 201.901 196.358 211.764 209.875 183.43L195.258 191.993C180.967 198.051 163.25 196.018 151.308 185.91C132.75 170.197 134.096 142.168 101.492 145.593C87.9457 147.018 79.204 158.251 66.6707 162.122C55.2873 165.639 45.6999 164.735 34.3832 161.493H34.379Z" fill="#62B529"/>
<path d="M142.772 189.955C140.113 186.335 126.788 198.476 125.617 197.389L127.113 155.76C126.813 154.126 120.359 151.797 120.138 154.272L117.138 184.43C116.105 185.43 110.63 180.418 109.634 179.722C106.184 177.326 95.4299 168.768 92.5632 167.847C89.1716 166.755 86.6591 170.164 88.7007 173.239L109.192 194.643C109.747 195.143 109.522 195.88 109.663 196.397C110.201 198.339 110.326 199.772 110.159 201.88C109.663 202.393 104.909 199.785 103.997 199.297C103.297 198.926 102.422 199.097 102.684 197.893C98.2049 197.764 90.2258 190.868 87.2216 192.655C86.0591 193.347 86.0507 195.497 86.7799 196.597C87.2716 197.339 91.5258 199.726 92.7424 200.614C93.5299 201.189 93.6257 202.318 93.7091 202.38C93.8549 202.489 95.1216 202.41 95.8757 202.947C100.213 206.03 104.513 209.193 109.063 211.955L109.205 212.585L104.622 287.014C103.151 294.026 96.9257 309.76 96.9257 309.76C112.847 309.61 130.142 309.551 146.063 309.76L129.713 289.464L126.609 221.572L127.459 220.422C131.209 218.218 157.188 210.168 158.292 208.372C159.613 206.218 157.742 204.251 155.313 204.36C148.413 204.664 138.076 208.589 130.734 209.735C129.863 209.872 128.997 209.918 128.117 209.855C130.509 207.48 132.376 204.626 134.576 202.105C135.301 201.276 145.022 193.005 142.78 189.96L142.772 189.955Z" fill="#BE6632"/>
<path d="M209.871 182.934C210.008 182.63 210.196 182.372 210.371 181.938L209.871 182.934Z" fill="#046743"/>
<path d="M102.679 197.889C102.416 199.097 103.291 198.922 103.991 199.293C104.908 199.78 109.658 202.385 110.154 201.876C110.32 199.768 110.195 198.335 109.658 196.393C107.149 196.293 105.216 197.964 102.679 197.889Z" fill="#FBE2AF"/>
<path d="M369.94 101.252C371.453 109.056 372.378 117.398 373.411 125.31C374.528 133.889 374.011 149.243 380.278 155.443C383.045 158.181 387.803 158.427 391.382 160.193C399.282 164.093 403.553 170.493 405.62 178.773C395.624 181.635 387.153 182.435 377.095 179.327C366.024 175.906 358.299 165.981 346.332 164.723C317.528 161.698 318.715 186.46 302.32 200.343C291.77 209.277 276.12 211.073 263.49 205.718L250.574 198.152C250.515 198.031 250.628 197.835 250.574 197.71L250.132 196.831C249.67 195.672 249.011 194.793 248.595 193.302C245.17 181.014 249.657 168.089 259.307 160.056C257.245 157.064 255.553 153.035 255.028 149.431C254.861 148.285 254.515 144.589 254.54 143.531C262.44 143.827 269.749 143.677 276.999 140.223C296.903 130.739 296.103 106.573 323.153 102.252C336.803 100.068 347.94 107.622 361.907 103.568C364.499 102.814 367.386 100.773 369.94 101.252Z" fill="#A0D92A"/>
<path d="M369.941 101.251C367.387 100.772 364.499 102.818 361.908 103.568C347.941 107.626 336.804 100.072 323.154 102.251C296.099 106.576 296.899 130.739 276.999 140.222C269.749 143.676 262.441 143.826 254.541 143.53C254.749 134.068 260.495 124.564 268.783 120.11C273.229 117.722 278.07 117.655 281.866 113.814C286.499 109.126 291.258 89.6261 294.42 82.3178C302.991 62.4886 321.787 50.4262 343.233 59.4637C359.904 66.4887 366.733 84.6928 369.945 101.243L369.941 101.251Z" fill="#A0D92A"/>
<path d="M405.619 178.772C408.898 191.91 405.694 204.168 394.306 212.164C381.952 220.843 366.986 218.072 353.207 214.889C353.277 214.835 353.361 213.839 354.061 213.331C355.136 212.543 358.898 210.435 359.331 209.781C359.973 208.81 359.969 206.91 358.94 206.297C356.29 204.718 349.24 210.81 345.282 210.926C343.04 210.993 341.331 209.518 339.115 209.606C339.24 209.152 339.04 208.497 339.531 208.056L357.636 189.147C359.44 186.431 357.219 183.418 354.223 184.385C351.69 185.201 342.19 192.76 339.144 194.876C338.261 195.489 333.427 199.922 332.515 199.035L329.865 172.393C329.673 170.206 323.969 172.264 323.702 173.706L325.023 210.481C323.99 211.443 317.148 206.868 316.598 206.51C314.552 205.176 313.219 204.539 312.094 205.385C309.419 207.389 312.915 209.851 314.661 211.831C315.157 212.393 316.481 213.414 316.598 213.547C294.423 214.468 262.532 223.185 250.59 198.152L263.507 205.718C276.136 211.072 291.781 209.277 302.336 200.343C318.731 186.46 317.544 161.697 346.348 164.722C358.315 165.981 366.04 175.906 377.111 179.326C387.169 182.435 395.64 181.635 405.636 178.772H405.619Z" fill="#62B529"/>
<path d="M309.856 203.918C312.206 200.723 323.977 211.448 325.01 210.485L323.689 173.71C323.952 172.264 329.656 170.21 329.852 172.398L332.502 199.039C333.414 199.923 338.252 195.493 339.131 194.881C342.181 192.764 351.677 185.206 354.21 184.389C357.206 183.423 359.427 186.435 357.623 189.152L339.518 208.06C339.031 208.502 339.227 209.156 339.102 209.61C338.627 211.327 338.514 212.589 338.664 214.452C339.102 214.902 343.302 212.602 344.11 212.173C344.727 211.843 345.502 211.998 345.269 210.931C349.227 210.814 356.277 204.723 358.927 206.302C359.956 206.914 359.96 208.814 359.319 209.785C358.885 210.439 355.127 212.548 354.048 213.335C353.352 213.843 353.269 214.843 353.194 214.893C353.064 214.989 351.948 214.918 351.281 215.393C347.448 218.118 343.652 220.91 339.631 223.352L339.506 223.91L343.556 289.664C344.856 295.86 350.352 309.76 350.352 309.76C336.285 309.627 321.006 309.577 306.944 309.76L321.385 291.831L324.131 231.852L323.381 230.835C320.068 228.889 297.114 221.777 296.144 220.189C294.977 218.285 296.631 216.548 298.777 216.643C304.873 216.914 314.006 220.381 320.494 221.393C321.264 221.514 322.027 221.552 322.802 221.502C320.689 219.402 319.039 216.881 317.098 214.656C316.46 213.923 307.869 206.618 309.848 203.927L309.856 203.918Z" fill="#BE6632"/>
<path d="M250.578 197.713C250.458 197.447 250.291 197.217 250.137 196.834L250.578 197.713Z" fill="#046743"/>
<path d="M345.274 210.926C345.507 211.993 344.732 211.839 344.115 212.168C343.307 212.597 339.107 214.901 338.67 214.447C338.52 212.584 338.632 211.318 339.107 209.605C341.324 209.518 343.032 210.993 345.274 210.926Z" fill="#FBE2AF"/>
<path d="M197.635 185.563C198.535 190.209 199.089 195.18 199.702 199.892C200.369 205.001 200.06 214.147 203.794 217.838C205.439 219.467 208.273 219.613 210.41 220.667C215.114 222.988 217.66 226.801 218.889 231.734C212.935 233.438 207.889 233.917 201.898 232.063C195.302 230.026 190.702 224.113 183.573 223.363C166.414 221.559 167.123 236.309 157.356 244.58C151.073 249.901 141.752 250.972 134.231 247.784L126.539 243.276C126.506 243.205 126.573 243.088 126.539 243.013L126.277 242.488C126.002 241.797 125.61 241.276 125.36 240.388C123.319 233.072 125.994 225.371 131.739 220.584C130.51 218.801 129.506 216.405 129.189 214.255C129.089 213.572 128.885 211.372 128.898 210.742C133.602 210.917 137.956 210.83 142.273 208.772C154.127 203.122 153.652 188.73 169.764 186.155C177.898 184.855 184.527 189.355 192.848 186.938C194.389 186.488 196.11 185.272 197.631 185.559L197.635 185.563Z" fill="#28BD3B"/>
<path d="M197.636 185.563C196.115 185.28 194.394 186.496 192.852 186.942C184.536 189.359 177.902 184.859 169.769 186.159C153.657 188.734 154.131 203.126 142.277 208.776C137.961 210.834 133.607 210.922 128.902 210.747C129.027 205.109 132.448 199.447 137.386 196.797C140.036 195.376 142.915 195.334 145.177 193.047C147.936 190.255 150.773 178.642 152.652 174.288C157.757 162.48 168.952 155.292 181.727 160.676C191.657 164.859 195.723 175.701 197.636 185.563Z" fill="#28BD3B"/>
<path d="M218.885 231.738C220.84 239.563 218.931 246.863 212.148 251.63C204.79 256.796 195.877 255.146 187.665 253.251C187.706 253.221 187.756 252.626 188.173 252.321C188.815 251.855 191.052 250.596 191.31 250.209C191.694 249.63 191.69 248.501 191.077 248.134C189.498 247.192 185.298 250.821 182.94 250.892C181.602 250.93 180.585 250.051 179.265 250.105C179.34 249.834 179.219 249.446 179.51 249.184L190.294 237.921C191.369 236.305 190.048 234.509 188.26 235.084C186.752 235.571 181.094 240.071 179.277 241.334C178.752 241.701 175.873 244.338 175.327 243.813L173.748 227.942C173.631 226.638 170.235 227.863 170.077 228.726L170.865 250.63C170.248 251.201 166.173 248.48 165.848 248.263C164.627 247.467 163.835 247.088 163.165 247.592C161.573 248.788 163.652 250.251 164.694 251.434C164.99 251.767 165.777 252.376 165.848 252.455C152.64 253.005 133.644 258.196 126.531 243.284L134.223 247.792C141.744 250.98 151.065 249.909 157.348 244.588C167.115 236.321 166.406 221.571 183.565 223.371C190.694 224.121 195.294 230.034 201.89 232.071C207.881 233.921 212.927 233.446 218.881 231.742L218.885 231.738Z" fill="#027D40"/>
<path d="M161.849 246.713C163.249 244.809 170.261 251.197 170.878 250.626L170.091 228.722C170.249 227.863 173.645 226.638 173.761 227.938L175.341 243.809C175.882 244.334 178.766 241.697 179.291 241.33C181.107 240.067 186.766 235.567 188.274 235.08C190.061 234.505 191.382 236.301 190.307 237.918L179.524 249.18C179.232 249.443 179.353 249.834 179.278 250.101C178.995 251.122 178.928 251.876 179.016 252.984C179.278 253.255 181.778 251.88 182.257 251.626C182.624 251.43 183.087 251.522 182.949 250.888C185.307 250.822 189.507 247.193 191.086 248.13C191.699 248.493 191.703 249.626 191.32 250.205C191.062 250.597 188.824 251.851 188.182 252.318C187.766 252.622 187.716 253.213 187.674 253.247C187.595 253.305 186.932 253.263 186.537 253.543C184.253 255.163 181.991 256.83 179.599 258.284L179.524 258.617L181.936 297.784C182.711 301.476 185.986 309.755 185.986 309.755C177.607 309.676 168.507 309.647 160.128 309.755L168.732 299.076L170.366 263.351L169.92 262.747C167.945 261.588 154.274 257.351 153.695 256.405C152.999 255.272 153.986 254.238 155.261 254.293C158.891 254.455 164.332 256.518 168.195 257.122C168.653 257.193 169.107 257.218 169.57 257.184C168.311 255.934 167.328 254.434 166.17 253.105C165.791 252.667 160.674 248.317 161.853 246.713H161.849Z" fill="#BE6632"/>
<path d="M126.536 243.017C126.465 242.859 126.365 242.721 126.273 242.492L126.536 243.017Z" fill="#046743"/>
<path d="M182.944 250.888C183.081 251.521 182.623 251.429 182.252 251.625C181.769 251.879 179.269 253.254 179.011 252.983C178.923 251.875 178.99 251.121 179.273 250.1C180.594 250.046 181.611 250.925 182.948 250.888H182.944Z" fill="#FBE2AF"/>
<path d="M227.472 145.392C226.281 151.542 225.552 158.122 224.739 164.359C223.86 171.122 224.268 183.226 219.327 188.113C217.147 190.272 213.397 190.463 210.572 191.859C204.343 194.934 200.977 199.98 199.352 206.505C207.231 208.763 213.91 209.392 221.839 206.942C230.568 204.247 236.656 196.422 246.089 195.43C268.797 193.043 267.86 212.567 280.785 223.509C289.102 230.551 301.439 231.968 311.393 227.747L321.572 221.784C321.618 221.688 321.531 221.534 321.572 221.438L321.918 220.743C322.285 219.83 322.802 219.138 323.131 217.963C325.831 208.276 322.293 198.088 314.689 191.755C316.314 189.397 317.647 186.222 318.064 183.38C318.197 182.476 318.468 179.563 318.447 178.73C312.222 178.963 306.46 178.842 300.743 176.122C285.056 168.647 285.685 149.597 264.36 146.188C253.597 144.467 244.818 150.422 233.81 147.226C231.768 146.634 229.493 145.022 227.477 145.401L227.472 145.392Z" fill="#28BD3B"/>
<path d="M227.473 145.393C229.485 145.018 231.764 146.627 233.806 147.218C244.814 150.418 253.593 144.464 264.356 146.181C285.681 149.589 285.052 168.639 300.739 176.114C306.456 178.839 312.214 178.956 318.443 178.722C318.277 171.264 313.752 163.768 307.218 160.26C303.714 158.376 299.898 158.327 296.906 155.297C293.256 151.602 289.502 136.231 287.01 130.472C280.256 114.843 265.439 105.331 248.531 112.456C235.389 117.993 230.006 132.343 227.477 145.389L227.473 145.393Z" fill="#28BD3B"/>
<path d="M199.348 206.506C196.765 216.864 199.286 226.522 208.265 232.831C218.002 239.672 229.802 237.485 240.665 234.976C240.607 234.935 240.544 234.147 239.994 233.747C239.144 233.127 236.182 231.464 235.84 230.947C235.332 230.181 235.34 228.685 236.148 228.201C238.24 226.956 243.794 231.76 246.915 231.847C248.682 231.897 250.027 230.735 251.777 230.806C251.677 230.447 251.836 229.931 251.448 229.585L237.177 214.677C235.757 212.535 237.502 210.16 239.869 210.922C241.865 211.564 249.352 217.522 251.757 219.193C252.452 219.677 256.265 223.168 256.986 222.472L259.077 201.468C259.232 199.743 263.727 201.364 263.936 202.506L262.894 231.497C263.711 232.256 269.102 228.647 269.536 228.364C271.148 227.31 272.198 226.81 273.086 227.476C275.194 229.056 272.44 230.997 271.061 232.56C270.669 233.001 269.627 233.806 269.536 233.914C287.015 234.643 312.157 241.514 321.569 221.777L311.39 227.739C301.436 231.96 289.098 230.543 280.782 223.501C267.857 212.56 268.794 193.039 246.086 195.422C236.652 196.414 230.565 204.239 221.836 206.935C213.907 209.385 207.232 208.756 199.348 206.497V206.506Z" fill="#027D40"/>
<path d="M274.835 226.322C272.981 223.801 263.701 232.255 262.889 231.497L263.931 202.505C263.722 201.368 259.226 199.747 259.072 201.468L256.981 222.472C256.26 223.168 252.452 219.676 251.752 219.193C249.347 217.522 241.86 211.564 239.864 210.922C237.501 210.159 235.751 212.534 237.172 214.676L251.443 229.584C251.831 229.93 251.672 230.447 251.772 230.805C252.147 232.159 252.235 233.155 252.118 234.622C251.772 234.976 248.464 233.164 247.826 232.822C247.339 232.564 246.731 232.684 246.914 231.843C243.793 231.751 238.235 226.951 236.147 228.197C235.339 228.68 235.331 230.176 235.839 230.943C236.181 231.459 239.143 233.122 239.993 233.743C240.543 234.143 240.61 234.93 240.664 234.972C240.768 235.047 241.647 234.993 242.172 235.364C245.193 237.509 248.189 239.714 251.356 241.639L251.451 242.076L248.26 293.909C247.235 298.793 242.901 309.751 242.901 309.751C253.989 309.647 266.035 309.605 277.122 309.751L265.739 295.618L263.576 248.339L264.168 247.535C266.781 245.997 284.872 240.393 285.639 239.143C286.56 237.643 285.256 236.272 283.564 236.347C278.76 236.559 271.56 239.293 266.447 240.089C265.839 240.184 265.239 240.214 264.626 240.172C266.293 238.518 267.593 236.53 269.126 234.776C269.631 234.201 276.401 228.439 274.843 226.318L274.835 226.322Z" fill="#BE6632"/>
<path d="M321.564 221.435C321.66 221.223 321.789 221.043 321.91 220.739L321.564 221.435Z" fill="#046743"/>
<path d="M246.914 231.851C246.731 232.693 247.339 232.572 247.827 232.83C248.464 233.168 251.773 234.984 252.118 234.63C252.235 233.164 252.148 232.164 251.773 230.814C250.027 230.743 248.681 231.905 246.91 231.855L246.914 231.851Z" fill="#FBE2AF"/>
</svg>
