<svg width="189" height="42" viewBox="0 0 189 42" fill="none" xmlns="http://www.w3.org/2000/svg">
<path d="M167.54 0.128906H21.7064C10.2004 0.128906 0.873047 9.45631 0.873047 20.9622C0.873047 32.4682 10.2004 41.7956 21.7064 41.7956H167.54C179.046 41.7956 188.373 32.4682 188.373 20.9622C188.373 9.45631 179.046 0.128906 167.54 0.128906Z" fill="#02B14F"/>
<path d="M41.5259 17.817C40.2217 17.817 39.3967 18.4836 39.3967 19.3878C39.3926 20.4045 40.4968 20.7919 41.3259 21.0044L42.3634 21.2753C43.7092 21.6086 45.4176 22.3461 45.4176 24.2586C45.4176 26.0586 43.9843 27.3669 41.4884 27.3669C38.9926 27.3669 37.6217 26.1794 37.5176 24.2586H39.1218C39.2135 25.4128 40.2426 25.9628 41.4759 25.9628C42.8384 25.9628 43.8301 25.2794 43.8301 24.2419C43.8301 23.3003 42.9551 22.9253 41.8176 22.6253L40.5634 22.2836C38.8593 21.8211 37.8009 20.9586 37.8009 19.4795C37.8009 17.6503 39.4343 16.4336 41.5634 16.4336C43.6926 16.4336 45.2218 17.6669 45.2676 19.3669H43.7218C43.6093 18.3878 42.7426 17.817 41.5259 17.817Z" fill="white"/>
<path d="M48.7414 27.1906H47.1914V16.5781H48.7205V20.5281H48.8205C49.1955 19.6698 49.9414 19.1281 51.1789 19.1281C52.8164 19.1281 53.9039 20.1448 53.9039 22.1282V27.1906H52.3539V22.3156C52.3539 21.149 51.7164 20.4698 50.6497 20.4698C49.583 20.4698 48.7414 21.1947 48.7414 22.4656V27.1906Z" fill="white"/>
<path d="M55.6018 24.9419C55.6018 23.1336 57.1477 22.7377 58.6519 22.5627C60.081 22.396 60.6643 22.4085 60.6643 21.8418V21.8044C60.6643 20.9044 60.1518 20.3793 59.1518 20.3793C58.1518 20.3793 57.531 20.9252 57.3019 21.4877L55.8435 21.1544C56.3602 19.7044 57.6894 19.1211 59.1269 19.1211C60.3894 19.1211 62.2143 19.5836 62.2143 21.9002V27.1835H60.7018V26.0961H60.6393C60.3435 26.6919 59.6019 27.3585 58.2852 27.3585C56.7727 27.3585 55.5977 26.5002 55.5977 24.9336L55.6018 24.9419ZM60.6685 24.3211V23.296C60.4435 23.5168 59.2519 23.6543 58.7519 23.721C57.856 23.8418 57.1185 24.1377 57.1185 24.9627C57.1185 25.7293 57.7518 26.1252 58.6268 26.1252C59.9185 26.1252 60.6685 25.2669 60.6685 24.3211Z" fill="white"/>
<path d="M64.2754 19.2301H65.7712V20.4926H65.8545C66.1462 19.6385 66.9421 19.1094 67.8754 19.1094C68.0712 19.1094 68.3795 19.126 68.5337 19.1468V20.6302C68.4087 20.5927 68.0462 20.5385 67.7254 20.5385C66.6254 20.5385 65.8254 21.2885 65.8254 22.3302V27.1927H64.2754V19.2343V19.2301Z" fill="white"/>
<path d="M69.2305 23.2623C69.2305 20.8165 70.693 19.1289 72.9096 19.1289C74.7138 19.1289 76.4346 20.2539 76.4346 23.1289V23.679H70.7763C70.818 25.2123 71.7096 26.0748 73.0346 26.0748C73.9138 26.0748 74.5888 25.6915 74.8679 24.9415L76.3346 25.2039C75.9804 26.4998 74.7555 27.3539 73.018 27.3539C70.6721 27.3539 69.2305 25.7373 69.2305 23.2665V23.2623ZM74.9138 22.5165C74.9096 21.2998 74.1221 20.4081 72.918 20.4081C71.7138 20.4081 70.8388 21.3873 70.7763 22.5165H74.9096H74.9138Z" fill="white"/>
<path d="M85.7306 20.4742H84.0973V24.8533C84.0973 25.7491 84.5473 25.9158 85.0515 25.9158C85.3015 25.9158 85.4931 25.87 85.5973 25.8492L85.8764 27.1284C85.6931 27.1951 85.3639 27.2909 84.8723 27.295C83.6514 27.32 82.5473 26.62 82.5515 25.1742V20.4742H81.3848V19.2325H82.5515V17.3242H84.1014V19.2325H85.7348V20.4742H85.7306Z" fill="white"/>
<path d="M89.1516 27.1906H87.6016V16.5781H89.1307V20.5281H89.2307C89.6057 19.6698 90.3515 19.1281 91.589 19.1281C93.2265 19.1281 94.3141 20.1448 94.3141 22.1282V27.1906H92.7641V22.3156C92.7641 21.149 92.1265 20.4698 91.0599 20.4698C89.9932 20.4698 89.1516 21.1947 89.1516 22.4656V27.1906Z" fill="white"/>
<path d="M96.1836 17.0815C96.1836 16.5732 96.6253 16.1523 97.1628 16.1523C97.7003 16.1523 98.1419 16.5732 98.1419 17.0815C98.1419 17.5898 97.6961 18.0023 97.1628 18.0023C96.6294 18.0023 96.1836 17.5857 96.1836 17.0815ZM96.3794 19.2315H97.9294V27.1898H96.3794V19.2315Z" fill="white"/>
<path d="M104.573 21.4247C104.389 20.8914 103.948 20.3582 102.981 20.3582C102.102 20.3582 101.435 20.7915 101.444 21.404C101.439 21.9415 101.819 22.2373 102.694 22.4457L103.956 22.7373C105.419 23.0748 106.131 23.7706 106.131 24.8914C106.131 26.3331 104.798 27.3539 102.877 27.3539C101.089 27.3539 99.9185 26.5623 99.6602 25.1498L101.156 24.9206C101.344 25.704 101.939 26.1039 102.864 26.1039C103.881 26.1039 104.539 25.6206 104.539 25.0039C104.539 24.5081 104.181 24.1665 103.414 23.9956L102.069 23.6998C100.577 23.3665 99.8935 22.6165 99.8935 21.4873C99.8935 20.079 101.169 19.1289 102.964 19.1289C104.76 19.1289 105.652 19.9373 105.977 21.1748L104.573 21.4247Z" fill="white"/>
<path d="M111.33 23.2623C111.33 20.8165 112.793 19.1289 115.009 19.1289C116.813 19.1289 118.534 20.2539 118.534 23.1289V23.679H112.876C112.918 25.2123 113.809 26.0748 115.134 26.0748C116.013 26.0748 116.688 25.6915 116.968 24.9415L118.434 25.2039C118.08 26.4998 116.855 27.3539 115.118 27.3539C112.772 27.3539 111.33 25.7373 111.33 23.2665V23.2623ZM117.013 22.5165C117.009 21.2998 116.222 20.4081 115.018 20.4081C113.813 20.4081 112.938 21.3873 112.876 22.5165H117.009H117.013Z" fill="white"/>
<path d="M124.043 20.4737H122.326V27.1903H120.772V20.4737H119.543V19.232H120.772V18.3111C120.772 16.8195 121.876 16.082 123.135 16.082C123.76 16.082 124.214 16.2112 124.43 16.2945L124.068 17.5487C123.922 17.5029 123.693 17.4279 123.372 17.4279C122.614 17.4279 122.326 17.8111 122.326 18.5153V19.232H124.043V20.4737Z" fill="white"/>
<path d="M129.422 20.4737H127.705V27.1903H126.151V20.4737H124.922V19.232H126.151V18.3111C126.151 16.8195 127.255 16.082 128.514 16.082C129.139 16.082 129.593 16.2112 129.809 16.2945L129.447 17.5487C129.301 17.5029 129.072 17.4279 128.751 17.4279C127.993 17.4279 127.705 17.8111 127.705 18.5153V19.232H129.422V20.4737Z" fill="white"/>
<path d="M130.344 23.2498C130.344 20.7748 131.81 19.1289 134.052 19.1289C136.294 19.1289 137.76 20.7706 137.76 23.2498C137.76 25.729 136.294 27.3539 134.052 27.3539C131.81 27.3539 130.344 25.7123 130.344 23.2498ZM136.198 23.2456C136.198 21.7206 135.515 20.429 134.056 20.429C132.598 20.429 131.906 21.7248 131.906 23.2456C131.906 24.7665 132.59 26.054 134.056 26.054C135.523 26.054 136.198 24.7748 136.198 23.2456Z" fill="white"/>
<path d="M139.48 19.2301H140.976V20.4926H141.06C141.351 19.6385 142.147 19.1094 143.08 19.1094C143.276 19.1094 143.585 19.126 143.739 19.1468V20.6302C143.614 20.5927 143.251 20.5385 142.93 20.5385C141.83 20.5385 141.03 21.2885 141.03 22.3302V27.1927H139.48V19.2343V19.2301Z" fill="white"/>
<path d="M149.264 20.4742H147.63V24.8533C147.63 25.7491 148.08 25.9158 148.585 25.9158C148.835 25.9158 149.026 25.87 149.13 25.8492L149.41 27.1284C149.226 27.1951 148.897 27.2909 148.405 27.295C147.185 27.32 146.08 26.62 146.085 25.1742V20.4742H144.918V19.2325H146.085V17.3242H147.635V19.2325H149.268V20.4742H149.264Z" fill="white"/>
</svg>
