<svg width="225" height="59" viewBox="0 0 225 59" fill="none" xmlns="http://www.w3.org/2000/svg">
<path d="M195.542 0.136719H29.3792C13.3606 0.136719 0.375 13.1224 0.375 29.1409C0.375 45.1595 13.3606 58.145 29.3792 58.145H195.542C211.56 58.145 224.546 45.1595 224.546 29.1409C224.546 13.1224 211.56 0.136719 195.542 0.136719Z" fill="#ABD64F"/>
<path d="M52.0255 25.6734C49.2672 25.6734 47.2422 23.6109 47.2422 20.2234C47.2422 16.8359 49.2672 14.7734 52.0255 14.7734C54.7838 14.7734 56.8047 16.8317 56.8047 20.2234C56.8047 23.615 54.7713 25.6734 52.0255 25.6734ZM52.0255 16.2318C50.1963 16.2318 48.8338 17.6359 48.8338 20.2234C48.8338 22.8109 50.1963 24.2151 52.0255 24.2151C53.8547 24.2151 55.2172 22.8109 55.2172 20.2234C55.2172 17.6359 53.8505 16.2318 52.0255 16.2318Z" fill="#21523B"/>
<path d="M58.6641 17.5662H60.1599V18.8287H60.2432C60.5349 17.9745 61.3307 17.4453 62.2641 17.4453C62.4599 17.4453 62.7682 17.462 62.9224 17.4828V18.9662C62.7974 18.9287 62.4349 18.8745 62.114 18.8745C61.014 18.8745 60.2141 19.6245 60.2141 20.6661V25.5287H58.6641V17.5703V17.5662Z" fill="#21523B"/>
<path d="M72.6879 19.7607C72.5045 19.2273 72.0629 18.694 71.0962 18.694C70.217 18.694 69.5504 19.1273 69.5587 19.7398C69.5546 20.2773 69.9337 20.5732 70.8087 20.7815L72.0712 21.0731C73.5337 21.4106 74.2462 22.1065 74.2462 23.2274C74.2462 24.669 72.9129 25.6898 70.992 25.6898C69.2045 25.6898 68.0337 24.8982 67.7754 23.4857L69.2712 23.2565C69.4587 24.0398 70.0545 24.4398 70.9795 24.4398C71.9962 24.4398 72.6545 23.9566 72.6545 23.3399C72.6545 22.8441 72.2962 22.5023 71.5296 22.3315L70.1837 22.0357C68.6921 21.7023 68.0087 20.9523 68.0087 19.8231C68.0087 18.4148 69.2837 17.4648 71.0795 17.4648C72.8754 17.4648 73.767 18.2731 74.092 19.5106L72.6879 19.7607Z" fill="#21523B"/>
<path d="M77.4914 25.5267H75.9414V14.9141H77.4706V18.8642H77.5706C77.9456 18.0058 78.6914 17.4641 79.9289 17.4641C81.5664 17.4641 82.6539 18.4808 82.6539 20.4641V25.5267H81.1039V20.6516C81.1039 19.4849 80.4664 18.8058 79.3998 18.8058C78.3331 18.8058 77.4914 19.5308 77.4914 20.8016V25.5267Z" fill="#21523B"/>
<path d="M84.3518 23.2779C84.3518 21.4695 85.8976 21.0737 87.4018 20.8987C88.831 20.732 89.4143 20.7445 89.4143 20.1779V20.1403C89.4143 19.2403 88.9018 18.7154 87.9018 18.7154C86.9018 18.7154 86.281 19.2612 86.0518 19.8237L84.5935 19.4904C85.1101 18.0404 86.4393 17.457 87.8768 17.457C89.1393 17.457 90.9643 17.9195 90.9643 20.2362V25.5196H89.4518V24.432H89.3893C89.0935 25.0279 88.3518 25.6945 87.0351 25.6945C85.5226 25.6945 84.3477 24.8362 84.3477 23.2695L84.3518 23.2779ZM89.4185 22.657V21.632C89.1935 21.8529 88.0018 21.9904 87.5018 22.057C86.606 22.1779 85.8684 22.4737 85.8684 23.2987C85.8684 24.0654 86.5018 24.4612 87.3768 24.4612C88.6684 24.4612 89.4185 23.6029 89.4185 22.657Z" fill="#21523B"/>
<path d="M93.0215 17.5662H94.5173V18.8287H94.6007C94.8923 17.9745 95.6882 17.4453 96.6215 17.4453C96.8173 17.4453 97.1256 17.462 97.2798 17.4828V18.9662C97.1548 18.9287 96.7923 18.8745 96.4715 18.8745C95.3715 18.8745 94.5715 19.6245 94.5715 20.6661V25.5287H93.0215V17.5703V17.5662Z" fill="#21523B"/>
<path d="M97.9805 21.5981C97.9805 19.1523 99.443 17.4648 101.66 17.4648C103.464 17.4648 105.185 18.5899 105.185 21.4649V22.0148H99.5263C99.568 23.5481 100.46 24.4106 101.785 24.4106C102.664 24.4106 103.339 24.0273 103.618 23.2773L105.085 23.5399C104.73 24.8357 103.505 25.6898 101.768 25.6898C99.4221 25.6898 97.9805 24.0731 97.9805 21.6023V21.5981ZM103.664 20.8523C103.66 19.6356 102.872 18.744 101.668 18.744C100.464 18.744 99.5888 19.7231 99.5263 20.8523H103.66H103.664Z" fill="#21523B"/>
<path d="M110.566 15.4174C110.566 14.9091 111.008 14.4883 111.546 14.4883C112.083 14.4883 112.525 14.9091 112.525 15.4174C112.525 15.9258 112.079 16.3383 111.546 16.3383C111.012 16.3383 110.566 15.9216 110.566 15.4174ZM110.762 17.5674H112.312V25.5258H110.762V17.5674Z" fill="#21523B"/>
<path d="M118.108 18.8102H116.474V23.1894C116.474 24.0852 116.924 24.2519 117.428 24.2519C117.678 24.2519 117.87 24.206 117.974 24.1851L118.253 25.4643C118.07 25.531 117.741 25.6269 117.249 25.6311C116.028 25.6561 114.924 24.956 114.928 23.5102V18.8102H113.762V17.5685H114.928V15.6602H116.478V17.5685H118.112V18.8102H118.108Z" fill="#21523B"/>
<path d="M127.467 18.8097H125.75V25.5264H124.196V18.8097H122.967V17.568H124.196V16.6472C124.196 15.1555 125.3 14.418 126.558 14.418C127.183 14.418 127.638 14.5471 127.854 14.6305L127.492 15.8846C127.346 15.8388 127.117 15.7638 126.796 15.7638C126.038 15.7638 125.75 16.1472 125.75 16.8513V17.568H127.467V18.8097Z" fill="#21523B"/>
<path d="M128.389 21.5856C128.389 19.1106 129.855 17.4648 132.097 17.4648C134.339 17.4648 135.805 19.1065 135.805 21.5856C135.805 24.0648 134.339 25.6898 132.097 25.6898C129.855 25.6898 128.389 24.0481 128.389 21.5856ZM134.243 21.5815C134.243 20.0565 133.56 18.7648 132.101 18.7648C130.643 18.7648 129.951 20.0606 129.951 21.5815C129.951 23.1023 130.635 24.3898 132.101 24.3898C133.568 24.3898 134.243 23.1106 134.243 21.5815Z" fill="#21523B"/>
<path d="M137.525 17.5662H139.021V18.8287H139.105C139.396 17.9745 140.192 17.4453 141.125 17.4453C141.321 17.4453 141.63 17.462 141.784 17.4828V18.9662C141.659 18.9287 141.296 18.8745 140.975 18.8745C139.875 18.8745 139.075 19.6245 139.075 20.6661V25.5287H137.525V17.5703V17.5662Z" fill="#21523B"/>
<path d="M142.637 17.5664H144.237L145.795 23.4123H145.874L147.441 17.5664H149.041L150.595 23.3872H150.674L152.224 17.5664H153.824L151.487 25.5248H149.908L148.291 19.7789H148.17L146.553 25.5248H144.978L142.637 17.5664Z" fill="#21523B"/>
<path d="M154.908 23.2779C154.908 21.4695 156.454 21.0737 157.958 20.8987C159.388 20.732 159.971 20.7445 159.971 20.1779V20.1403C159.971 19.2403 159.458 18.7154 158.458 18.7154C157.458 18.7154 156.838 19.2612 156.608 19.8237L155.15 19.4904C155.667 18.0404 156.996 17.457 158.433 17.457C159.696 17.457 161.521 17.9195 161.521 20.2362V25.5196H160.008V24.432H159.946C159.65 25.0279 158.908 25.6945 157.592 25.6945C156.079 25.6945 154.904 24.8362 154.904 23.2695L154.908 23.2779ZM159.975 22.657V21.632C159.75 21.8529 158.558 21.9904 158.058 22.057C157.163 22.1779 156.425 22.4737 156.425 23.2987C156.425 24.0654 157.058 24.4612 157.933 24.4612C159.225 24.4612 159.975 23.6029 159.975 22.657Z" fill="#21523B"/>
<path d="M163.584 17.5662H165.08V18.8287H165.163C165.455 17.9745 166.251 17.4453 167.184 17.4453C167.38 17.4453 167.688 17.462 167.842 17.4828V18.9662C167.717 18.9287 167.355 18.8745 167.034 18.8745C165.934 18.8745 165.134 19.6245 165.134 20.6661V25.5287H163.584V17.5703V17.5662Z" fill="#21523B"/>
<path d="M168.551 21.5639C168.551 18.9847 169.967 17.4638 171.888 17.4638C173.372 17.4638 173.901 18.3639 174.18 18.8597H174.272V14.918H175.822V25.5306H174.309V24.293H174.18C173.901 24.8013 173.33 25.6888 171.88 25.6888C169.947 25.6888 168.555 24.1431 168.555 21.5681L168.551 21.5639ZM174.297 21.5472C174.297 19.8847 173.572 18.7805 172.217 18.7805C170.863 18.7805 170.113 19.968 170.113 21.5472C170.113 23.1264 170.834 24.3597 172.217 24.3597C173.601 24.3597 174.297 23.218 174.297 21.5472Z" fill="#21523B"/>
<path d="M57.1414 32.5273H58.5622C57.5414 33.894 56.7372 36.6732 56.7372 39.1357C56.7372 41.5982 57.5414 44.3773 58.5622 45.7482H57.1414C55.8247 43.9023 55.1289 41.7357 55.1289 39.1357C55.1289 36.5357 55.8247 34.3732 57.1414 32.5273Z" fill="#21523B"/>
<path d="M63.9044 36.8219H62.271V41.2011C62.271 42.0969 62.7211 42.2636 63.2252 42.2636C63.4752 42.2636 63.6669 42.2178 63.7711 42.197L64.0502 43.4761C63.8669 43.5427 63.5378 43.6386 63.0461 43.6428C61.8253 43.6678 60.7211 42.9677 60.7252 41.5219V36.8219H59.5586V35.5802H60.7252V33.6719H62.2752V35.5802H63.9086V36.8219H63.9044Z" fill="#21523B"/>
<path d="M67.3293 43.5383H65.7793V32.9258H67.3085V36.8758H67.4085C67.7835 36.0174 68.5293 35.4757 69.7668 35.4757C71.4043 35.4757 72.4918 36.4924 72.4918 38.4757V43.5383H70.9418V38.6632C70.9418 37.4965 70.3043 36.8174 69.2377 36.8174C68.171 36.8174 67.3293 37.5424 67.3293 38.8132V43.5383Z" fill="#21523B"/>
<path d="M74.1839 41.2896C74.1839 39.4812 75.7297 39.0854 77.2338 38.9104C78.663 38.7438 79.2464 38.7563 79.2464 38.1896V38.1521C79.2464 37.2521 78.7339 36.7271 77.7339 36.7271C76.7339 36.7271 76.113 37.2729 75.8838 37.8354L74.4255 37.5021C74.9422 36.0521 76.2713 35.4688 77.7088 35.4688C78.9713 35.4688 80.7964 35.9312 80.7964 38.2479V43.5313H79.2839V42.4437H79.2213C78.9255 43.0396 78.1838 43.7063 76.8672 43.7063C75.3547 43.7063 74.1797 42.8479 74.1797 41.2812L74.1839 41.2896ZM79.2505 40.6687V39.6438C79.0255 39.8646 77.8338 40.0021 77.3338 40.0688C76.438 40.1896 75.7005 40.4854 75.7005 41.3104C75.7005 42.0771 76.3339 42.4729 77.2089 42.4729C78.5005 42.4729 79.2505 41.6146 79.2505 40.6687Z" fill="#21523B"/>
<path d="M86.5724 36.8219H84.9391V41.2011C84.9391 42.0969 85.3891 42.2636 85.8932 42.2636C86.1432 42.2636 86.3349 42.2178 86.4391 42.197L86.7182 43.4761C86.5349 43.5427 86.2057 43.6386 85.7141 43.6428C84.4932 43.6678 83.3891 42.9677 83.3932 41.5219V36.8219H82.2266V35.5802H83.3932V33.6719H84.9432V35.5802H86.5766V36.8219H86.5724Z" fill="#21523B"/>
<path d="M91.5254 35.582H93.1254L94.6837 41.4279H94.7629L96.3296 35.582H97.9296L99.4837 41.4029H99.5629L101.113 35.582H102.713L100.375 43.5404H98.7962L97.1795 37.7946H97.0587L95.4421 43.5404H93.8671L91.5254 35.582Z" fill="#21523B"/>
<path d="M103.572 39.5935C103.572 37.1185 105.039 35.4727 107.281 35.4727C109.522 35.4727 110.989 37.1144 110.989 39.5935C110.989 42.0727 109.522 43.6977 107.281 43.6977C105.039 43.6977 103.572 42.056 103.572 39.5935ZM109.426 39.5894C109.426 38.0644 108.743 36.7727 107.285 36.7727C105.826 36.7727 105.135 38.0685 105.135 39.5894C105.135 41.1102 105.818 42.3977 107.285 42.3977C108.751 42.3977 109.426 41.1185 109.426 39.5894Z" fill="#21523B"/>
<path d="M112.713 35.5818H114.209V36.8443H114.292C114.584 35.9901 115.38 35.4609 116.313 35.4609C116.509 35.4609 116.817 35.4776 116.971 35.4985V36.9818C116.846 36.9443 116.484 36.8901 116.163 36.8901C115.063 36.8901 114.263 37.6401 114.263 38.6818V43.5443H112.713V35.586V35.5818Z" fill="#21523B"/>
<path d="M118.312 32.9258H119.863V38.9466H119.996L123.167 35.5799H125.021L121.796 38.9965L125.237 43.5424H123.338L120.633 39.9466L119.863 40.7174V43.5424H118.312V32.9299V32.9258Z" fill="#21523B"/>
<path d="M130.987 37.7724C130.803 37.2391 130.362 36.7057 129.395 36.7057C128.516 36.7057 127.849 37.139 127.858 37.7515C127.853 38.289 128.233 38.5849 129.108 38.7932L130.37 39.0849C131.833 39.4224 132.545 40.1183 132.545 41.2391C132.545 42.6808 131.212 43.7016 129.291 43.7016C127.503 43.7016 126.333 42.9099 126.074 41.4974L127.57 41.2682C127.758 42.0515 128.353 42.4516 129.278 42.4516C130.295 42.4516 130.953 41.9683 130.953 41.3516C130.953 40.8558 130.595 40.514 129.828 40.3432L128.483 40.0474C126.991 39.7141 126.308 38.964 126.308 37.8349C126.308 36.4265 127.583 35.4766 129.378 35.4766C131.174 35.4766 132.066 36.2849 132.391 37.5224L130.987 37.7724Z" fill="#21523B"/>
<path d="M141.82 36.8219H140.187V41.2011C140.187 42.0969 140.637 42.2636 141.141 42.2636C141.391 42.2636 141.583 42.2178 141.687 42.197L141.966 43.4761C141.783 43.5427 141.454 43.6386 140.962 43.6428C139.741 43.6678 138.637 42.9677 138.641 41.5219V36.8219H137.475V35.5802H138.641V33.6719H140.191V35.5802H141.825V36.8219H141.82Z" fill="#21523B"/>
<path d="M143.088 39.5935C143.088 37.1185 144.555 35.4727 146.796 35.4727C149.038 35.4727 150.505 37.1144 150.505 39.5935C150.505 42.0727 149.038 43.6977 146.796 43.6977C144.555 43.6977 143.088 42.056 143.088 39.5935ZM148.942 39.5894C148.942 38.0644 148.259 36.7727 146.8 36.7727C145.342 36.7727 144.65 38.0685 144.65 39.5894C144.65 41.1102 145.334 42.3977 146.8 42.3977C148.267 42.3977 148.942 41.1185 148.942 39.5894Z" fill="#21523B"/>
<path d="M151.871 39.5935C151.871 37.1185 153.338 35.4727 155.579 35.4727C157.821 35.4727 159.288 37.1144 159.288 39.5935C159.288 42.0727 157.821 43.6977 155.579 43.6977C153.338 43.6977 151.871 42.056 151.871 39.5935ZM157.725 39.5894C157.725 38.0644 157.042 36.7727 155.584 36.7727C154.125 36.7727 153.434 38.0685 153.434 39.5894C153.434 41.1102 154.117 42.3977 155.584 42.3977C157.05 42.3977 157.725 41.1185 157.725 39.5894Z" fill="#21523B"/>
<path d="M161.074 42.6006C161.074 42.0339 161.541 41.5715 162.112 41.5715C162.683 41.5715 163.149 42.0381 163.149 42.6006C163.149 43.1631 162.678 43.6381 162.112 43.6381C161.545 43.6381 161.074 43.1756 161.074 42.6006ZM162.833 40.4881H161.399L161.266 32.9297H162.97L162.837 40.4881H162.833Z" fill="#21523B"/>
<path d="M166.263 45.7443H164.842C165.863 44.3776 166.667 41.5985 166.667 39.136C166.667 36.6735 165.863 33.8901 164.842 32.5234H166.263C167.579 34.3693 168.275 36.536 168.275 39.136C168.275 41.736 167.579 43.8984 166.263 45.7443Z" fill="#21523B"/>
</svg>
