<svg width="188" height="42" viewBox="0 0 188 42" fill="none" xmlns="http://www.w3.org/2000/svg">
<path d="M166.755 0.132812H20.9212C9.41529 0.132812 0.0878906 9.46021 0.0878906 20.9661C0.0878906 32.4721 9.41529 41.7995 20.9212 41.7995H166.755C178.26 41.7995 187.588 32.4721 187.588 20.9661C187.588 9.46021 178.26 0.132812 166.755 0.132812Z" fill="#02B14F"/>
<path d="M40.7466 17.817C39.4424 17.817 38.6174 18.4836 38.6174 19.3878C38.6132 20.4045 39.7174 20.792 40.5466 21.0045L41.5841 21.2753C42.93 21.6086 44.6383 22.3461 44.6383 24.2586C44.6383 26.0586 43.2049 27.3669 40.7091 27.3669C38.2132 27.3669 36.8424 26.1794 36.7383 24.2586H38.3424C38.4341 25.4128 39.4633 25.9628 40.6966 25.9628C42.0591 25.9628 43.0507 25.2794 43.0507 24.2419C43.0507 23.3003 42.1758 22.9253 41.0383 22.6253L39.7841 22.2836C38.0799 21.8211 37.0216 20.9586 37.0216 19.4795C37.0216 17.6503 38.6549 16.4336 40.7841 16.4336C42.9133 16.4336 44.4424 17.6669 44.4883 19.3669H42.9424C42.8299 18.3878 41.9633 17.817 40.7466 17.817Z" fill="white"/>
<path d="M47.9621 27.1906H46.4121V16.5781H47.9412V20.5281H48.0413C48.4163 19.6698 49.1621 19.1282 50.3996 19.1282C52.0371 19.1282 53.1246 20.1448 53.1246 22.1282V27.1906H51.5746V22.3156C51.5746 21.149 50.9371 20.4698 49.8704 20.4698C48.8037 20.4698 47.9621 21.1947 47.9621 22.4656V27.1906Z" fill="white"/>
<path d="M54.8166 24.9419C54.8166 23.1336 56.3625 22.7378 57.8666 22.5628C59.2958 22.3961 59.8791 22.4085 59.8791 21.8418V21.8044C59.8791 20.9044 59.3666 20.3794 58.3666 20.3794C57.3666 20.3794 56.7458 20.9252 56.5167 21.4877L55.0583 21.1544C55.575 19.7044 56.9042 19.1211 58.3417 19.1211C59.6042 19.1211 61.4291 19.5836 61.4291 21.9002V27.1835H59.9167V26.0961H59.8542C59.5583 26.6919 58.8166 27.3586 57.5 27.3586C55.9875 27.3586 54.8125 26.5002 54.8125 24.9336L54.8166 24.9419ZM59.8833 24.3211V23.2961C59.6583 23.5169 58.4666 23.6543 57.9666 23.721C57.0708 23.8418 56.3333 24.1378 56.3333 24.9628C56.3333 25.7294 56.9666 26.1252 57.8416 26.1252C59.1333 26.1252 59.8833 25.2669 59.8833 24.3211Z" fill="white"/>
<path d="M63.4922 19.2302H64.988V20.4926H65.0714C65.363 19.6385 66.1589 19.1094 67.0922 19.1094C67.288 19.1094 67.5963 19.126 67.7505 19.1468V20.6302C67.6255 20.5927 67.263 20.5385 66.9422 20.5385C65.8422 20.5385 65.0422 21.2885 65.0422 22.3302V27.1927H63.4922V19.2343V19.2302Z" fill="white"/>
<path d="M68.4473 23.2622C68.4473 20.8164 69.9097 19.1289 72.1264 19.1289C73.9306 19.1289 75.6514 20.2538 75.6514 23.1288V23.6789H69.9931C70.0347 25.2122 70.9264 26.0747 72.2514 26.0747C73.1306 26.0747 73.8056 25.6914 74.0848 24.9414L75.5514 25.2038C75.1972 26.4997 73.9723 27.3539 72.2348 27.3539C69.8889 27.3539 68.4473 25.7372 68.4473 23.2664V23.2622ZM74.1306 22.5164C74.1264 21.2997 73.3389 20.408 72.1348 20.408C70.9306 20.408 70.0556 21.3872 69.9931 22.5164H74.1264H74.1306Z" fill="white"/>
<path d="M84.9513 20.4742H83.318V24.8534C83.318 25.7492 83.768 25.9158 84.2722 25.9158C84.5222 25.9158 84.7138 25.87 84.818 25.8492L85.0971 27.1284C84.9138 27.1951 84.5846 27.2909 84.093 27.295C82.8721 27.32 81.768 26.62 81.7722 25.1742V20.4742H80.6055V19.2326H81.7722V17.3242H83.3221V19.2326H84.9555V20.4742H84.9513Z" fill="white"/>
<path d="M88.3723 27.1906H86.8223V16.5781H88.3515V20.5281H88.4514C88.8264 19.6698 89.5722 19.1282 90.8097 19.1282C92.4472 19.1282 93.5348 20.1448 93.5348 22.1282V27.1906H91.9848V22.3156C91.9848 21.149 91.3473 20.4698 90.2806 20.4698C89.214 20.4698 88.3723 21.1947 88.3723 22.4656V27.1906Z" fill="white"/>
<path d="M95.4004 17.0815C95.4004 16.5732 95.842 16.1523 96.3795 16.1523C96.917 16.1523 97.3588 16.5732 97.3588 17.0815C97.3588 17.5898 96.9129 18.0023 96.3795 18.0023C95.8462 18.0023 95.4004 17.5857 95.4004 17.0815ZM95.5962 19.2316H97.1463V27.1898H95.5962V19.2316Z" fill="white"/>
<path d="M103.787 21.4246C103.604 20.8913 103.162 20.3581 102.196 20.3581C101.317 20.3581 100.65 20.7914 100.658 21.4039C100.654 21.9414 101.033 22.2372 101.908 22.4456L103.171 22.7372C104.633 23.0747 105.346 23.7705 105.346 24.8913C105.346 26.333 104.012 27.3539 102.092 27.3539C100.304 27.3539 99.1333 26.5622 98.875 25.1497L100.371 24.9205C100.558 25.7039 101.154 26.1039 102.079 26.1039C103.096 26.1039 103.754 25.6205 103.754 25.0038C103.754 24.508 103.396 24.1664 102.629 23.9955L101.283 23.6997C99.7916 23.3664 99.1083 22.6164 99.1083 21.4872C99.1083 20.0789 100.383 19.1289 102.179 19.1289C103.975 19.1289 104.867 19.9372 105.192 21.1747L103.787 21.4246Z" fill="white"/>
<path d="M110.547 23.2622C110.547 20.8164 112.009 19.1289 114.226 19.1289C116.03 19.1289 117.751 20.2538 117.751 23.1288V23.6789H112.093C112.134 25.2122 113.026 26.0747 114.351 26.0747C115.23 26.0747 115.905 25.6914 116.184 24.9414L117.651 25.2038C117.297 26.4997 116.072 27.3539 114.334 27.3539C111.989 27.3539 110.547 25.7372 110.547 23.2664V23.2622ZM116.23 22.5164C116.226 21.2997 115.439 20.408 114.234 20.408C113.03 20.408 112.155 21.3872 112.093 22.5164H116.226H116.23Z" fill="white"/>
<path d="M123.26 20.4737H121.543V27.1903H119.989V20.4737H118.76V19.2321H119.989V18.3111C119.989 16.8195 121.093 16.082 122.351 16.082C122.976 16.082 123.431 16.2112 123.647 16.2945L123.285 17.5487C123.139 17.5029 122.91 17.4279 122.589 17.4279C121.831 17.4279 121.543 17.8111 121.543 18.5153V19.2321H123.26V20.4737Z" fill="white"/>
<path d="M128.639 20.4737H126.922V27.1903H125.368V20.4737H124.139V19.2321H125.368V18.3111C125.368 16.8195 126.472 16.082 127.73 16.082C128.355 16.082 128.81 16.2112 129.026 16.2945L128.664 17.5487C128.518 17.5029 128.289 17.4279 127.968 17.4279C127.21 17.4279 126.922 17.8111 126.922 18.5153V19.2321H128.639V20.4737Z" fill="white"/>
<path d="M129.559 23.2497C129.559 20.7747 131.025 19.1289 133.267 19.1289C135.509 19.1289 136.975 20.7705 136.975 23.2497C136.975 25.7289 135.509 27.3539 133.267 27.3539C131.025 27.3539 129.559 25.7122 129.559 23.2497ZM135.413 23.2455C135.413 21.7205 134.729 20.4289 133.271 20.4289C131.813 20.4289 131.121 21.7247 131.121 23.2455C131.121 24.7664 131.804 26.0539 133.271 26.0539C134.738 26.0539 135.413 24.7747 135.413 23.2455Z" fill="white"/>
<path d="M138.701 19.2302H140.197V20.4926H140.28C140.572 19.6385 141.368 19.1094 142.301 19.1094C142.497 19.1094 142.805 19.126 142.959 19.1468V20.6302C142.834 20.5927 142.472 20.5385 142.151 20.5385C141.051 20.5385 140.251 21.2885 140.251 22.3302V27.1927H138.701V19.2343V19.2302Z" fill="white"/>
<path d="M148.485 20.4742H146.851V24.8534C146.851 25.7492 147.301 25.9158 147.805 25.9158C148.055 25.9158 148.247 25.87 148.351 25.8492L148.63 27.1284C148.447 27.1951 148.118 27.2909 147.626 27.295C146.405 27.32 145.301 26.62 145.305 25.1742V20.4742H144.139V19.2326H145.305V17.3242H146.855V19.2326H148.489V20.4742H148.485Z" fill="white"/>
</svg>
