<svg width="220" height="52" viewBox="0 0 220 52" fill="none" xmlns="http://www.w3.org/2000/svg">
<path d="M3.246 1.43359H3.1543C3.19596 1.43776 3.2335 1.44193 3.246 1.43359Z" fill="#B6DB65"/>
<path d="M0.0833028 1.5435C0.0833028 1.5435 0.0708333 1.53932 0.0625 1.53516L0.0833028 1.5435Z" fill="#B6DB65"/>
<path d="M0.475306 0.729457C0.32114 0.929457 -0.108009 0.91699 0.0253246 1.17949C-0.028842 1.28366 0.0544506 1.4211 0.0877839 1.53777C0.412784 1.63777 0.0711112 1.68363 0.341944 1.77947H0.150294C0.241961 1.8128 0.304459 1.8461 0.200292 1.85444L0.146123 1.8461C0.283623 1.8961 0.19614 1.92109 0.266973 1.94609L0.212804 1.93775L0.233658 1.97946L0.154465 1.96277C0.300298 2.03777 0.300316 2.09201 0.225316 2.13367L0.454453 2.15442C0.183619 2.23359 0.658611 2.32111 0.341944 2.38361L0.287827 2.37527C0.879493 2.55444 -0.145529 2.52946 0.421138 2.70862C0.350304 2.68779 0.304453 2.70862 0.246119 2.70028C0.308619 2.76278 0.337806 2.82951 0.787806 2.86284C0.779473 2.90451 0.646136 2.88775 0.471136 2.87942C0.666969 2.89192 0.746111 2.93784 0.758611 2.96701L0.68364 2.94615L0.741979 3.04198L1.11699 3.05032C1.00449 3.09199 0.662816 3.03358 0.74615 3.08358L1.05448 3.10444C0.987812 3.16694 0.52116 3.17946 0.287827 3.23363C0.141993 3.51696 0.921148 3.82531 0.379481 4.07947L0.146123 4.09199C-0.195543 4.09615 0.650321 4.1628 0.333654 4.1753L0.487819 4.20449C0.425319 4.21283 0.362823 4.23367 0.283656 4.21701C0.271156 4.24617 0.325312 4.24612 0.429479 4.26278L0.216975 4.29615C0.054475 4.41282 0.466989 4.49616 0.387823 4.61699C-0.0371774 4.77532 0.371121 5.02951 0.612788 5.15868C1.13362 5.32118 -0.187204 5.70032 0.412796 5.86699C0.366963 5.87949 0.475292 5.88367 0.512792 5.8795L0.491989 6.08784C0.491989 6.08784 0.491967 6.33777 0.833634 6.4336C1.1753 6.53777 1.8378 6.43359 3.17947 5.90443L3.25449 5.89608C3.41699 5.77942 3.4503 5.72527 3.07113 5.71277C3.52113 5.64194 3.10865 5.63359 3.25032 5.59193H3.28781C2.92947 5.57943 3.56282 5.44614 3.24615 5.42947C3.28365 5.42947 3.40861 5.4128 3.41695 5.4253C3.35445 5.39613 3.25032 5.35447 3.51282 5.32113C3.43366 5.2378 3.54613 5.1086 3.11696 5.0836H3.19198C2.90448 5.0711 3.14616 5.04197 2.99616 5.01697C3.02949 5.01281 3.05029 5.00863 3.06279 5.00863C2.77946 4.99197 3.00866 4.90445 2.88782 4.88361L3.06279 4.8711L3.01696 4.8003L2.97948 4.82949C2.49614 4.84616 3.27946 4.75866 2.96279 4.72116C3.02113 4.67116 1.9503 4.6628 2.18363 4.59614C1.95446 4.57947 2.55445 4.60445 2.37945 4.57111C2.63362 4.55861 2.53778 4.58361 2.74195 4.56694C2.62112 4.53361 3.00031 4.4961 2.82531 4.4586L3.02113 4.45026C2.65863 4.40026 3.27948 4.33366 2.93365 4.30449C2.77115 4.24616 3.51697 4.25449 3.13364 4.20032L3.40031 4.1753C3.44198 4.1503 3.07533 4.15859 3.20449 4.12942C3.37116 4.12942 3.33781 4.092 3.49614 4.10867C3.75864 4.04617 3.12116 3.97533 3.56699 3.89199C3.24199 3.86699 3.43781 3.82941 3.19198 3.80858C3.33365 3.80858 3.21695 3.72115 3.52528 3.77949C3.55028 3.78365 3.54614 3.79199 3.49197 3.78783L3.68362 3.79617C4.05029 3.75867 3.48363 3.70447 3.54197 3.65447C3.47947 3.66697 3.49611 3.68782 3.36278 3.67115L3.39197 3.62527L3.55448 3.64195L3.6503 3.57949H3.44614C3.55031 3.55033 3.89615 3.55442 3.60865 3.50442C3.45031 3.47942 3.33363 3.52534 3.27529 3.48784C3.41696 3.45034 3.62529 3.39197 3.68779 3.34197C3.45862 3.33363 3.47112 3.32109 3.42529 3.30026L3.62116 3.3086C3.35033 3.2336 4.05445 3.3128 3.84195 3.24197L3.97949 3.25448L3.57111 3.21277C3.18361 3.13361 3.98365 3.21278 3.45448 3.11695C3.48782 3.14195 3.02112 3.09618 3.10862 3.07534L3.29615 3.0961C3.25865 3.07526 3.17945 3.06699 3.21695 3.05866C3.31695 3.07533 3.49199 3.08366 3.46282 3.05866L3.7003 3.09192L3.35449 3.02112C3.55865 3.00446 3.30862 2.92531 3.57945 2.93364C3.57945 2.93364 3.71695 2.87114 3.42529 2.82947C3.60445 2.86281 3.67945 2.8295 3.89195 2.85867C3.68779 2.82117 3.5253 2.74616 3.74613 2.74616L3.77115 2.7545C4.00449 2.69617 3.47948 2.57949 3.75864 2.53366C3.52948 2.51282 3.65862 2.48359 3.36695 2.46275C3.08778 2.34609 3.97531 2.39192 3.07947 2.25025C3.03364 2.20858 3.29614 2.23366 3.34198 2.22116L3.3878 2.23784C3.32114 2.15867 3.31698 2.1378 3.34615 2.09197C3.26281 2.05447 2.84612 1.99194 2.95445 1.9586C3.11695 1.9961 3.08782 1.97527 3.09199 1.9586C3.11699 1.97527 3.17531 1.98362 3.29198 1.97946C3.24198 1.96696 3.20864 1.9586 3.18364 1.95026C3.19614 1.95026 3.20863 1.95027 3.2253 1.95443C3.17113 1.91693 3.11699 1.91284 3.09616 1.92534C3.07116 1.92117 3.03782 1.91699 2.99199 1.91283C3.20866 1.91283 2.99196 1.82528 3.27529 1.86695C3.22113 1.77112 2.94194 1.6628 2.84194 1.57113C2.98778 1.5878 3.11696 1.62528 3.16696 1.65445L3.12113 1.59616C3.32946 1.63366 3.23779 1.64612 3.27529 1.66696C3.62529 1.66696 2.95863 1.48363 3.27946 1.46697L3.11696 1.42109H3.14615C3.05865 1.40442 2.94197 1.37112 2.91697 1.35446C3.1003 1.37529 3.3378 1.42949 3.33363 1.39199C3.5128 1.39616 3.25863 1.29612 3.17113 1.24195C3.13779 1.25445 3.03781 1.22942 2.97531 1.20858C2.97531 1.18775 3.15447 1.21283 3.07947 1.18366L3.32529 1.22944C3.09196 1.19194 3.08365 1.13775 2.98365 1.10859C3.16698 1.13359 3.13362 1.16701 3.27112 1.19617C3.26279 1.12117 3.26694 1.15866 3.25861 1.08366C3.07944 1.00866 3.0253 1.04617 2.8128 0.983669C2.77113 0.942002 2.60864 0.871153 2.7628 0.862819L2.54196 0.829453C2.38779 0.729453 2.42113 0.696096 2.65029 0.700262C1.81696 0.271096 1.2253 0.100344 0.833634 0.0545103C0.446134 0.00867699 0.258632 0.079433 0.258632 0.079433C-0.266368 0.191933 0.341961 0.433612 0.462794 0.716945L0.475306 0.729457Z" fill="#B6DB65"/>
<path d="M7.82021 13.0586L7.79102 13.1502C7.81602 13.1169 7.82854 13.0794 7.82021 13.0586Z" fill="#B6DB65"/>
<path d="M14.3574 16.0909C14.3574 16.0909 14.3658 16.0826 14.3699 16.0742C14.3616 16.0784 14.3616 16.0867 14.3574 16.0909Z" fill="#B6DB65"/>
<path d="M7.10288 16.3086C7.10288 16.3086 7.09036 16.3169 7.08203 16.3211L7.10288 16.3086Z" fill="#B6DB65"/>
<path d="M5.84505 15.1529C6.13672 15.4987 5.99089 15.932 6.47839 16.0404C6.64506 16.1904 6.89506 16.2404 7.10756 16.3029C7.37006 16.0696 7.3492 16.4445 7.59503 16.2612L7.53669 16.4487C7.62002 16.3862 7.69506 16.357 7.67839 16.4654L7.6492 16.5113C7.7742 16.4196 7.79086 16.5237 7.85336 16.4779L7.82422 16.5237L7.89919 16.5362L7.84919 16.5987C8.01586 16.5196 8.11586 16.5612 8.16586 16.6695L8.27003 16.4654C8.32836 16.7904 8.61586 16.407 8.6367 16.7612L8.60755 16.8112C9.09089 16.3779 8.74921 17.3487 9.22004 16.9403C9.16171 16.9903 9.17836 17.0529 9.15336 17.1029C9.28253 17.0904 9.40339 17.1112 9.59922 16.7029C9.66589 16.7404 9.59921 16.8571 9.53254 17.0196C9.61587 16.8404 9.71585 16.7946 9.77419 16.8112L9.71585 16.8695L9.90338 16.882L10.0283 16.5278C10.0658 16.6653 9.85752 16.9529 9.97835 16.9071L10.1075 16.6237C10.195 16.7362 10.0742 17.1904 10.095 17.4488C10.5284 17.7863 11.3408 17.2654 11.5908 17.9404L11.5284 18.1654C11.4159 18.4862 11.8326 17.7404 11.7367 18.0404L11.8451 17.9154C11.8367 17.9779 11.8451 18.0487 11.7951 18.1112C11.8409 18.1404 11.8617 18.0904 11.9284 18.007L11.9075 18.2237C12.045 18.4529 12.3492 18.1196 12.5242 18.2696C12.6284 18.7654 13.2242 18.5403 13.5534 18.4028C14.07 18.032 14.12 19.4613 14.6742 19.0113C14.6742 19.0613 14.7367 18.9653 14.745 18.9278L15.0867 19.0737C15.0867 19.0737 15.5076 19.2195 15.8534 18.9737C16.1992 18.732 16.4408 18.1029 16.1742 16.5779L16.1992 16.5071C16.0617 16.2862 15.9617 16.2195 15.7409 16.5445C15.8409 16.0987 15.6034 16.4571 15.6034 16.3029L15.6159 16.2696C15.4117 16.5779 15.4701 15.9279 15.2784 16.1988C15.2909 16.1654 15.3284 16.0445 15.3534 16.0445C15.2617 16.0779 15.1284 16.1445 15.195 15.8903C14.995 15.9028 14.7784 15.7112 14.5367 16.0821L14.5659 16.0153C14.4159 16.2695 14.4659 16.032 14.3492 16.1445C14.3576 16.1112 14.3575 16.0904 14.3617 16.0779C14.2034 16.3237 14.1367 16.0529 14.0409 16.1487L14.0908 15.9779L13.9326 15.9696L13.9742 16.0237C13.8034 16.4778 13.9575 15.6987 13.7575 15.9654C13.6784 15.8779 13.2367 16.8529 13.2075 16.5946C13.0867 16.7904 13.37 16.2612 13.2409 16.3987C13.32 16.1571 13.3284 16.2612 13.3742 16.0612C13.2617 16.1487 13.3409 15.7778 13.1992 15.907L13.2617 15.7195C13.0284 16.0195 13.1367 15.4028 12.945 15.6987C12.7742 15.807 13.07 15.1196 12.8159 15.4362L12.8617 15.1695C12.8242 15.1112 12.7117 15.4612 12.6992 15.3195C12.7617 15.1654 12.6742 15.1696 12.7659 15.0321C12.7325 14.7404 12.3701 15.2862 12.3701 14.8029C12.2117 15.0904 12.2034 14.8779 12.0825 15.0945C12.1325 14.9612 11.9242 15.007 12.1325 14.757C12.1492 14.7362 12.1617 14.7487 12.1409 14.7987L12.2242 14.6237C12.27 14.2487 11.9784 14.7403 11.9075 14.6528C11.9075 14.7237 11.9534 14.7237 11.8784 14.8362L11.8034 14.7779L11.8825 14.6363L11.7951 14.4945L11.7326 14.6862C11.7117 14.5654 11.8242 14.2404 11.6409 14.4737C11.5451 14.607 11.5909 14.7487 11.4992 14.7779C11.47 14.6154 11.4284 14.3695 11.3492 14.2695C11.2659 14.482 11.2409 14.4612 11.1909 14.4904L11.2701 14.3112C11.0451 14.5071 11.4117 13.8987 11.2117 14.0445L11.2783 13.9237L11.0784 14.2862C10.8159 14.5945 11.1992 13.8904 10.8617 14.3238C10.92 14.3154 10.695 14.7279 10.6784 14.6237L10.7742 14.457C10.7284 14.4778 10.6825 14.5446 10.6784 14.5029C10.7409 14.4196 10.8076 14.257 10.7492 14.2654L10.8825 14.0654L10.6492 14.3445C10.6742 14.132 10.4617 14.3112 10.5534 14.057C10.5534 14.057 10.4784 13.8737 10.3159 14.1195C10.4242 13.9695 10.3825 13.8696 10.4992 13.6904C10.37 13.8571 10.1909 13.957 10.2534 13.7404L10.2742 13.7237C10.2284 13.4487 9.87418 13.8612 9.87418 13.5487C9.77002 13.7529 9.76171 13.6029 9.63671 13.8695C9.35337 14.0445 9.67838 13.2154 9.17838 13.9695C9.09088 13.9737 9.21169 13.7404 9.20336 13.6821L9.24089 13.6487C9.08673 13.6445 9.04922 13.6321 8.97422 13.5612C8.88672 13.6112 8.6617 13.9653 8.6367 13.832C8.7492 13.7028 8.69923 13.7112 8.67006 13.6946C8.7034 13.6821 8.74088 13.6362 8.76172 13.5153C8.72838 13.557 8.70336 13.5779 8.68252 13.5946C8.69086 13.5821 8.69504 13.5737 8.70338 13.557C8.62421 13.5779 8.60339 13.6279 8.61589 13.6612C8.59923 13.682 8.58668 13.7112 8.57002 13.7529C8.63252 13.5404 8.42418 13.6779 8.57002 13.432C8.39502 13.3987 8.12835 13.5779 7.94502 13.5904C8.01585 13.4571 8.11588 13.3695 8.18254 13.3445L8.07004 13.3362C8.19087 13.1612 8.18671 13.2654 8.23671 13.2487C8.32838 12.9029 7.84086 13.3946 7.90753 13.0529L7.78673 13.1737L7.79502 13.1446C7.74502 13.2154 7.64922 13.2987 7.61588 13.307C7.70755 13.1445 7.86586 12.9612 7.80336 12.932C7.86586 12.757 7.62421 12.9154 7.50755 12.9529C7.52005 13.0029 7.4492 13.0779 7.39504 13.1195C7.3617 13.1029 7.45753 12.9445 7.39087 12.9903L7.53669 12.7862C7.40752 12.982 7.31171 12.9362 7.24087 13.007C7.33671 12.8487 7.37839 12.9112 7.47006 12.807C7.34923 12.7404 7.40753 12.7737 7.2867 12.707C7.1117 12.8112 7.15338 12.9029 6.99088 13.0529C6.90755 13.0529 6.74921 13.1487 6.77838 12.982L6.6617 13.1696C6.45337 13.2279 6.41168 13.1529 6.48668 12.9237C5.54085 13.307 5.07418 13.7154 4.87418 14.0612C4.67418 14.4029 4.73253 14.6695 4.73253 14.6695C4.75336 15.332 5.34922 14.9737 5.84922 15.1404L5.84505 15.1529Z" fill="#B6DB65"/>
<path d="M25.7793 18.1914L25.8002 18.2872C25.8002 18.2456 25.8001 18.2081 25.7793 18.1914Z" fill="#B6DB65"/>
<path d="M33.2871 18.5248C33.2871 18.5248 33.2913 18.5122 33.2955 18.5039C33.2913 18.5122 33.2871 18.5164 33.2871 18.5248Z" fill="#B6DB65"/>
<path d="M26.6958 21.3828C26.6958 21.3828 26.6917 21.3953 26.6875 21.4037L26.7 21.3828H26.6958Z" fill="#B6DB65"/>
<path d="M25.1582 21.0052C25.5541 21.1552 25.629 21.5886 26.0707 21.451C26.2707 21.501 26.4957 21.4178 26.6957 21.3844C26.8124 21.0553 26.9541 21.401 27.0874 21.126L27.1165 21.3177C27.1624 21.226 27.2124 21.1636 27.2416 21.2677V21.3219C27.3041 21.1802 27.3624 21.2719 27.3957 21.2011V21.2552L27.4624 21.2344L27.4457 21.3135C27.5541 21.1677 27.6582 21.1635 27.7457 21.2385L27.754 21.0094C27.929 21.276 28.0291 20.8052 28.1874 21.1219V21.1761C28.4374 20.5844 28.5082 21.6094 28.7666 21.0469C28.7332 21.1177 28.7707 21.1677 28.7666 21.2219C28.8749 21.1635 28.9874 21.1344 29.0124 20.6803C29.0874 20.6886 29.0666 20.826 29.0666 21.001C29.0749 20.8052 29.1457 20.726 29.204 20.7135L29.1749 20.7885L29.3457 20.7302L29.3291 20.3553C29.4124 20.4678 29.329 20.8136 29.4207 20.7261L29.4332 20.4177C29.5541 20.4844 29.604 20.9553 29.7165 21.1886C30.2165 21.3428 30.7832 20.576 31.229 21.1344L31.2415 21.3677C31.2415 21.7094 31.3874 20.8678 31.3957 21.1844L31.4541 21.0302C31.4666 21.0927 31.4999 21.1594 31.4666 21.2344C31.5166 21.251 31.5207 21.1928 31.5582 21.0928L31.6082 21.3053C31.804 21.4761 31.9832 21.0719 32.1874 21.1594C32.4291 21.5969 32.9082 21.2094 33.1832 20.9844C33.5707 20.4844 33.9957 21.8386 34.3957 21.2636C34.4082 21.3136 34.4416 21.2052 34.4416 21.1636L34.7999 21.2135C34.7999 21.2135 35.2332 21.2469 35.4999 20.926C35.7707 20.6052 35.8624 19.9344 35.2166 18.526L35.2249 18.4511C35.0332 18.2719 34.9124 18.2302 34.779 18.601C34.7582 18.1427 34.6207 18.5552 34.5791 18.4052V18.3678C34.4624 18.7178 34.3457 18.0761 34.2291 18.3886C34.2332 18.3511 34.2374 18.226 34.2624 18.2177C34.179 18.276 34.0666 18.376 34.0624 18.1094C33.8666 18.176 33.5957 18.0511 33.4624 18.4719L33.4707 18.3969C33.3957 18.6802 33.3791 18.4386 33.2957 18.5844C33.2957 18.5511 33.2874 18.5302 33.2874 18.5177C33.2041 18.801 33.0582 18.5594 32.9957 18.6803V18.5052L32.8374 18.5427L32.8957 18.5803C32.8665 19.0636 32.7832 18.2719 32.6666 18.5844C32.5624 18.5219 32.4332 19.5885 32.3249 19.3469C32.2665 19.5719 32.3791 18.9802 32.2957 19.151C32.2957 18.8969 32.3374 18.9928 32.3207 18.7928C32.2415 18.9094 32.1999 18.5303 32.1041 18.7011V18.5052C31.9707 18.8635 31.8791 18.2386 31.7874 18.5803C31.6541 18.7386 31.7166 17.9928 31.5749 18.3761L31.5332 18.1094C31.4791 18.0635 31.4832 18.4344 31.4249 18.3052C31.4332 18.1385 31.3499 18.1677 31.3915 18.0094C31.2582 17.7427 31.0915 18.3719 30.9207 17.9219C30.8707 18.2469 30.7832 18.051 30.7416 18.2927C30.7416 18.151 30.554 18.2636 30.6707 17.9594C30.679 17.9344 30.6957 17.9385 30.6916 17.9969L30.7124 17.8052C30.6207 17.4344 30.5124 18.0011 30.4082 17.9386C30.4374 18.0052 30.479 17.9886 30.4457 18.1219L30.3499 18.0927L30.3749 17.9302L30.2332 17.8302L30.2457 18.0344C30.179 17.9302 30.1666 17.5844 30.0749 17.8678C30.0332 18.0261 30.1291 18.1427 30.0541 18.201C29.9666 18.0594 29.8332 17.8469 29.7124 17.7802C29.7124 18.0094 29.6791 17.9969 29.6457 18.0427V17.8469C29.5082 18.1136 29.6249 17.4094 29.4874 17.6219L29.5041 17.4844L29.4499 17.8927C29.3166 18.276 29.4082 17.4802 29.254 18.0052C29.3082 17.976 29.254 18.4427 29.1999 18.3511L29.2249 18.1636C29.1874 18.2011 29.1707 18.2802 29.1499 18.2386C29.1749 18.1386 29.1749 17.9635 29.1207 17.9927L29.1666 17.7553L29.054 18.101C28.9915 17.8927 28.8582 18.1427 28.8457 17.8718C28.8457 17.8718 28.6957 17.7344 28.6416 18.0219C28.6832 17.8427 28.5999 17.7678 28.6374 17.5553C28.5832 17.7594 28.454 17.9219 28.4165 17.6969L28.429 17.6719C28.2624 17.4385 28.104 17.9594 27.9582 17.6802C27.9499 17.9094 27.8749 17.7803 27.8749 18.0719C27.6874 18.3511 27.6082 17.4594 27.4874 18.3552C27.4082 18.3969 27.4124 18.1385 27.3749 18.0885L27.3957 18.0427C27.2499 18.1052 27.2041 18.1135 27.0999 18.0844C27.0416 18.1677 26.9999 18.5886 26.9124 18.4803C26.954 18.3178 26.9124 18.3427 26.8791 18.3427C26.9041 18.3177 26.9166 18.2594 26.8791 18.1427C26.8666 18.1927 26.8541 18.2261 26.8457 18.2511C26.8457 18.2386 26.8457 18.226 26.8457 18.2094C26.7832 18.2635 26.7874 18.3177 26.8124 18.3427C26.8124 18.3677 26.8124 18.4011 26.8124 18.4469C26.7665 18.2261 26.6415 18.4469 26.654 18.1636C26.4707 18.2178 26.3207 18.501 26.1624 18.601C26.1582 18.451 26.2041 18.3261 26.2499 18.2719L26.1416 18.3177C26.1582 18.1052 26.2124 18.2011 26.2457 18.1594C26.1499 17.8053 25.9582 18.4802 25.8374 18.1511L25.7916 18.3177L25.7832 18.2885C25.7749 18.376 25.7332 18.4927 25.7082 18.5219C25.704 18.3344 25.7457 18.0969 25.6749 18.101C25.6332 17.9177 25.5041 18.1761 25.4207 18.2678C25.4582 18.3011 25.4374 18.4053 25.4124 18.4678C25.3749 18.4678 25.3707 18.2844 25.3374 18.3594L25.3582 18.1094C25.3499 18.3469 25.2416 18.3552 25.2166 18.4552C25.2166 18.2677 25.2874 18.3011 25.3082 18.1636C25.1624 18.1719 25.2332 18.1678 25.0874 18.1761C24.9915 18.3553 25.0791 18.4135 25.0207 18.626C24.9457 18.6677 24.8624 18.8344 24.7999 18.6761V18.8969C24.6582 19.0553 24.579 19.0219 24.5165 18.7886C23.9415 19.6386 23.8165 20.2427 23.8457 20.6386C23.8749 21.0344 24.054 21.2177 24.054 21.2177C24.3957 21.7469 24.6665 21.126 25.1457 20.9968L25.1582 21.0052Z" fill="#B6DB65"/>
<path d="M45.1191 18.375L45.1525 18.4667C45.1525 18.425 45.1441 18.3875 45.1191 18.375Z" fill="#B6DB65"/>
<path d="M52.707 18.1068C52.707 18.1068 52.707 18.0943 52.7154 18.0859C52.7112 18.0943 52.7112 18.0985 52.707 18.1068Z" fill="#B6DB65"/>
<path d="M46.3736 21.4453C46.3736 21.4453 46.3694 21.4578 46.3652 21.4703L46.3736 21.4453Z" fill="#B6DB65"/>
<path d="M44.8318 21.2422C45.236 21.3422 45.3568 21.7672 45.7693 21.5797C45.9693 21.6089 46.1777 21.5047 46.3735 21.4463C46.4568 21.1088 46.6277 21.4338 46.7318 21.1505L46.7777 21.338C46.811 21.2422 46.8568 21.1755 46.8943 21.2755V21.3297C46.9443 21.1838 47.011 21.2672 47.036 21.1964V21.2505L47.1027 21.2255L47.0943 21.3047C47.186 21.1506 47.2901 21.138 47.3776 21.2046L47.3652 20.9755C47.561 21.2255 47.6193 20.7463 47.7985 21.0463V21.1005C47.9985 20.488 48.1526 21.5047 48.361 20.9213C48.336 20.9922 48.3777 21.0381 48.3777 21.0964C48.4777 21.0256 48.586 20.988 48.5776 20.538C48.6526 20.538 48.6443 20.6755 48.6568 20.8505C48.6485 20.6505 48.7152 20.5672 48.7693 20.5547L48.7443 20.6339L48.911 20.563L48.8652 20.1922C48.9568 20.2963 48.9026 20.6464 48.986 20.5547L48.9735 20.2464C49.0985 20.3047 49.186 20.7713 49.311 20.9963C49.811 21.113 50.3193 20.3088 50.7985 20.838L50.8277 21.0714C50.8485 21.4089 50.9401 20.5631 50.9651 20.8797L51.0152 20.7213C51.0319 20.7797 51.0652 20.8463 51.0402 20.9213C51.0902 20.9338 51.0901 20.8756 51.1235 20.7756L51.1818 20.9839C51.3818 21.1422 51.536 20.7296 51.7444 20.8046C52.0069 21.2296 52.4568 20.8171 52.7193 20.5796C53.0777 20.0588 53.5652 21.4005 53.9319 20.8088C53.9444 20.8547 53.9735 20.7463 53.9735 20.7088L54.3277 20.7464C54.3277 20.7464 56.0443 20.8255 54.6443 18.0505V17.9755C54.4527 17.8005 54.3276 17.7672 54.2068 18.1422C54.1693 17.688 54.0485 18.1005 53.9943 17.9547V17.9172C53.8901 18.2713 53.7443 17.6339 53.6402 17.9505C53.6402 17.913 53.6402 17.788 53.6693 17.7796C53.5902 17.838 53.4776 17.9463 53.4651 17.6796C53.2693 17.7546 52.9902 17.6422 52.8777 18.0672V17.9921C52.8193 18.2796 52.7902 18.038 52.7152 18.1838C52.711 18.1505 52.7027 18.1297 52.7027 18.1172C52.6318 18.4005 52.4735 18.1671 52.4152 18.2921L52.4068 18.1172L52.2527 18.163L52.311 18.2005C52.3068 18.688 52.1818 17.9005 52.0777 18.2172C51.9693 18.1588 51.8943 19.2297 51.7777 18.9964C51.7318 19.2255 51.811 18.6256 51.7402 18.8047C51.7277 18.5506 51.7735 18.6463 51.7444 18.4422C51.6694 18.563 51.611 18.188 51.5193 18.363L51.511 18.1672C51.3985 18.5297 51.2693 17.913 51.1985 18.263C51.0777 18.4297 51.0943 17.6797 50.9735 18.0714L50.9151 17.8047C50.8568 17.763 50.886 18.1338 50.8193 18.0047C50.8193 17.838 50.736 17.8713 50.7651 17.713C50.6151 17.4547 50.486 18.0964 50.2818 17.6547C50.2527 17.9839 50.1485 17.7922 50.1277 18.038C50.1193 17.8964 49.936 18.0213 50.0318 17.7088C50.0401 17.6838 50.0568 17.688 50.0568 17.7422L50.0652 17.5464C49.9443 17.1839 49.8776 17.7547 49.7693 17.7005C49.8026 17.763 49.8443 17.7463 49.8193 17.8796L49.7193 17.8547L49.736 17.6922L49.586 17.6005L49.611 17.8005C49.536 17.7005 49.4985 17.3547 49.4277 17.6464C49.3943 17.8089 49.5027 17.9171 49.4277 17.9796C49.3277 17.8463 49.1776 17.6422 49.0526 17.5838C49.0693 17.8088 49.036 17.8047 49.0068 17.8505L48.9985 17.6547C48.8776 17.9339 48.936 17.2214 48.8152 17.4422L48.8235 17.3047L48.8027 17.7172C48.6985 18.113 48.7277 17.3089 48.6152 17.8464C48.6652 17.813 48.6527 18.2796 48.586 18.1963L48.5943 18.0047C48.561 18.0463 48.5526 18.1255 48.5276 18.088C48.5443 17.9838 48.5277 17.8089 48.4818 17.8464L48.511 17.6088L48.4235 17.9631C48.3443 17.7631 48.2318 18.0214 48.1902 17.7547C48.1902 17.7547 48.0235 17.6297 47.9985 17.9213C48.0235 17.738 47.936 17.6713 47.9526 17.4546C47.9151 17.663 47.7985 17.8339 47.7443 17.6172L47.7527 17.5922C47.5652 17.3713 47.4485 17.9089 47.2776 17.6422C47.2901 17.8714 47.2027 17.7505 47.2318 18.0422C47.0693 18.338 46.9068 17.4589 46.8693 18.363C46.7943 18.413 46.7735 18.1547 46.7318 18.1088L46.7485 18.0589C46.6068 18.138 46.5652 18.1463 46.4568 18.1297C46.4068 18.2213 46.411 18.638 46.311 18.5422C46.336 18.3755 46.2985 18.4046 46.261 18.4088C46.2818 18.3838 46.2901 18.3213 46.2401 18.2088C46.236 18.2588 46.2277 18.2922 46.2152 18.3213C46.2152 18.3088 46.2152 18.2964 46.2152 18.2797C46.1568 18.3422 46.1693 18.3922 46.1985 18.413C46.1985 18.438 46.1985 18.4713 46.211 18.5172C46.1443 18.3047 46.036 18.538 46.0235 18.2505C45.8443 18.3214 45.7235 18.6213 45.5777 18.738C45.5568 18.5922 45.5902 18.4588 45.6318 18.4005L45.5277 18.4589C45.5235 18.2464 45.586 18.3338 45.6151 18.2921C45.4776 17.9546 45.361 18.6422 45.2068 18.3338L45.1818 18.5046L45.1735 18.4755C45.1735 18.563 45.1443 18.688 45.1235 18.7171C45.0985 18.5338 45.1151 18.2921 45.0401 18.3046C44.9776 18.1296 44.8777 18.4005 44.8027 18.5005C44.8443 18.5296 44.836 18.6339 44.8193 18.7006C44.7818 18.7089 44.7568 18.5255 44.7318 18.6046L44.7235 18.3547C44.7443 18.588 44.636 18.613 44.6235 18.713C44.5985 18.5296 44.6777 18.5505 44.6818 18.413C44.536 18.4422 44.6068 18.4255 44.461 18.4547C44.386 18.6464 44.4818 18.6922 44.4485 18.9089C44.3818 18.9589 44.3152 19.1339 44.2318 18.988L44.261 19.2089C44.136 19.3839 44.0568 19.363 43.961 19.138C43.0318 20.9713 43.8193 21.6089 43.8193 21.6089C44.2152 22.0881 44.3985 21.4338 44.8527 21.2505L44.8318 21.2422Z" fill="#B6DB65"/>
<path d="M64.5781 17.6953L64.6114 17.787C64.6114 17.7453 64.599 17.7078 64.5781 17.6953Z" fill="#B6DB65"/>
<path d="M72.166 17.3294C72.166 17.3294 72.166 17.3169 72.1702 17.3086C72.166 17.3169 72.166 17.3211 72.166 17.3294Z" fill="#B6DB65"/>
<path d="M65.8736 20.75C65.8736 20.75 65.8736 20.7625 65.8652 20.775L65.8736 20.75Z" fill="#B6DB65"/>
<path d="M64.3322 20.5664C64.7405 20.6623 64.8613 21.0872 65.2738 20.8914C65.4738 20.9164 65.6821 20.8081 65.8738 20.7498C65.953 20.4123 66.128 20.7331 66.228 20.4498L66.278 20.6372C66.3113 20.5414 66.353 20.4747 66.3946 20.5747V20.6289C66.4446 20.4831 66.5113 20.5664 66.5363 20.4914V20.5456L66.603 20.5164L66.5946 20.5955C66.6863 20.4372 66.7863 20.4247 66.878 20.4914L66.8613 20.2622C67.0613 20.5122 67.1113 20.0331 67.2946 20.3289V20.383C67.4863 19.7664 67.6571 20.7789 67.853 20.1956C67.828 20.2706 67.8696 20.3122 67.8696 20.3705C67.9696 20.2997 68.078 20.2623 68.0613 19.8081C68.1363 19.8081 68.128 19.9456 68.1447 20.1206C68.1363 19.9206 68.1988 19.8373 68.2571 19.8248L68.2321 19.9039L68.3988 19.8289L68.3488 19.458C68.4405 19.5622 68.3905 19.9123 68.4738 19.8164L68.4613 19.5081C68.5863 19.5623 68.678 20.0289 68.8071 20.2539C69.3071 20.3664 69.8071 19.5539 70.2905 20.0747L70.3197 20.3081C70.3447 20.6456 70.4238 19.7997 70.4571 20.1122L70.503 19.9539C70.5196 20.0122 70.5572 20.079 70.5322 20.154C70.5822 20.1665 70.5821 20.1081 70.6113 20.0039L70.6738 20.2122C70.878 20.3664 71.0238 19.9539 71.2363 20.0248C71.503 20.4456 71.9488 20.0247 72.2072 19.7872C72.5613 19.2622 73.0613 20.5956 73.4196 19.9997C73.4363 20.0456 73.4613 19.9372 73.4613 19.8997L73.8155 19.9331C73.8155 19.9331 75.5321 19.9873 74.103 17.2331V17.158C73.9071 16.9872 73.7822 16.9539 73.6697 17.3289C73.628 16.8748 73.5072 17.2872 73.4572 17.1414V17.1039C73.3572 17.4581 73.203 16.8247 73.103 17.1414C73.103 17.1039 73.103 16.9789 73.128 16.9706C73.0488 17.0331 72.9405 17.1372 72.9196 16.8747C72.7238 16.9539 72.4446 16.8414 72.3363 17.2705V17.1956C72.2821 17.4831 72.2488 17.2414 72.178 17.3914C72.1738 17.3581 72.1655 17.3373 72.1655 17.3248C72.0988 17.6123 71.9363 17.3789 71.8822 17.5039L71.8696 17.3289L71.7155 17.3789L71.7738 17.4123C71.7738 17.8998 71.6405 17.1123 71.5405 17.4331C71.4321 17.3748 71.3696 18.4497 71.2488 18.2164C71.2071 18.4456 71.278 17.8456 71.2072 18.0247C71.1947 17.7706 71.2363 17.8664 71.2072 17.6622C71.1363 17.7872 71.0696 17.408 70.9821 17.583L70.9696 17.3872C70.8613 17.7539 70.7238 17.1372 70.6571 17.4872C70.5363 17.6539 70.5447 16.9081 70.428 17.2956L70.3655 17.033C70.3071 16.9914 70.3405 17.3623 70.2697 17.2331C70.2697 17.0664 70.1822 17.1039 70.2155 16.9414C70.0613 16.6872 69.9405 17.3248 69.7321 16.8914C69.7071 17.2206 69.603 17.0289 69.5821 17.2747C69.5696 17.1331 69.3905 17.258 69.4821 16.9455C69.4905 16.9205 69.5071 16.9247 69.5071 16.9789V16.7831C69.3863 16.4206 69.3238 16.9914 69.2155 16.9414C69.2488 17.0039 69.2905 16.9873 69.2696 17.1206L69.1696 17.0998L69.1822 16.9372L69.0322 16.8497L69.0613 17.0497C68.9863 16.9497 68.9447 16.6081 68.8738 16.8956C68.8447 17.0581 68.953 17.1623 68.8821 17.2289C68.778 17.0956 68.628 16.8955 68.4988 16.8414C68.5197 17.0664 68.4863 17.0623 68.453 17.1081L68.4405 16.9123C68.3238 17.1914 68.3738 16.4789 68.253 16.7039V16.5664L68.2405 16.9789C68.1405 17.3747 68.1613 16.5748 68.053 17.1123C68.103 17.0748 68.0947 17.5455 68.028 17.4622L68.0363 17.2705C68.003 17.3122 67.9946 17.3914 67.9696 17.3539C67.9863 17.2497 67.9696 17.0748 67.9196 17.1123L67.9446 16.8706L67.8613 17.2248C67.778 17.0248 67.6697 17.2831 67.628 17.0164C67.628 17.0164 67.4613 16.8914 67.4363 17.1872C67.4613 17.0039 67.3696 16.9372 67.3863 16.7205C67.353 16.9289 67.2363 17.1039 67.178 16.8872L67.1863 16.8622C66.9946 16.6456 66.8863 17.1831 66.7113 16.9164C66.728 17.1456 66.6363 17.0248 66.6696 17.3164C66.5113 17.6123 66.3363 16.7373 66.3113 17.6414C66.2363 17.6956 66.2113 17.4331 66.1697 17.3872L66.1863 17.3373C66.0446 17.4164 66.003 17.4289 65.8947 17.4123C65.8447 17.5039 65.853 17.9247 65.753 17.8247C65.778 17.6581 65.7405 17.6872 65.703 17.6914C65.7238 17.6622 65.728 17.6039 65.678 17.4914C65.6738 17.5414 65.6655 17.5747 65.6571 17.6039C65.6571 17.5914 65.6571 17.5789 65.6571 17.5622C65.5988 17.6247 65.6113 17.6747 65.6405 17.6956C65.6405 17.7206 65.6405 17.7539 65.653 17.7997C65.5821 17.5872 65.478 17.8206 65.4613 17.5373C65.2821 17.6123 65.1655 17.9122 65.0197 18.0331C64.9947 17.8872 65.028 17.7539 65.0697 17.6956L64.9655 17.7539C64.9572 17.5414 65.0196 17.6289 65.053 17.5872C64.9113 17.2497 64.8072 17.9414 64.6447 17.6331L64.6196 17.8039L64.6113 17.7747C64.6113 17.8622 64.5863 17.9872 64.5655 18.0164C64.5363 17.8331 64.5488 17.5914 64.478 17.6039C64.4113 17.4289 64.3155 17.6997 64.2447 17.8039C64.2863 17.8331 64.278 17.9372 64.2613 18.0039C64.2238 18.0122 64.1946 17.8289 64.1696 17.9081L64.1571 17.658C64.1821 17.8914 64.0696 17.9164 64.0613 18.0206C64.0321 17.8372 64.1113 17.8581 64.1155 17.7206C63.9696 17.7497 64.0405 17.7372 63.8946 17.7664C63.8238 17.958 63.9196 17.9997 63.8905 18.2206C63.8238 18.2706 63.7613 18.4497 63.678 18.3039L63.7113 18.5247C63.5863 18.7039 63.5072 18.6789 63.4113 18.4581C62.5113 20.3039 63.3072 20.9331 63.3072 20.9331C63.7113 21.4039 63.8822 20.7539 64.3322 20.5581V20.5664Z" fill="#B6DB65"/>
<path d="M84.0391 16.793L84.0724 16.8846C84.0724 16.843 84.0599 16.8055 84.0391 16.793Z" fill="#B6DB65"/>
<path d="M91.627 16.3607C91.627 16.3607 91.6311 16.3482 91.6311 16.3398C91.627 16.3482 91.627 16.3524 91.627 16.3607Z" fill="#B6DB65"/>
<path d="M85.3638 19.832C85.3638 19.8404 85.3596 19.8445 85.3555 19.857L85.3638 19.832Z" fill="#B6DB65"/>
<path d="M83.823 19.6622C84.2314 19.7539 84.3605 20.1747 84.7647 19.9789C84.9647 20.0039 85.173 19.8914 85.3647 19.8331C85.4397 19.4956 85.6188 19.8165 85.7147 19.529L85.7688 19.7164C85.8022 19.6206 85.8438 19.5497 85.8855 19.6539V19.7081C85.9355 19.5623 86.0022 19.6456 86.0272 19.5706V19.6248L86.0938 19.5956L86.0855 19.6747C86.1772 19.5164 86.2772 19.5039 86.3689 19.5664L86.348 19.3372C86.5522 19.583 86.5939 19.1039 86.7814 19.3998V19.4539C86.9647 18.8372 87.148 19.8497 87.3397 19.2622C87.3147 19.3372 87.3564 19.3789 87.3605 19.4372C87.4605 19.3664 87.5688 19.3248 87.5438 18.8748C87.6188 18.8748 87.6105 19.0123 87.6314 19.1873C87.6189 18.9914 87.6813 18.9039 87.7397 18.8873L87.7189 18.9664L87.8814 18.8914L87.8272 18.5205C87.923 18.6247 87.873 18.9748 87.9522 18.8789L87.9355 18.5706C88.0605 18.6248 88.1564 19.0914 88.2897 19.3123C88.7897 19.4164 89.2814 18.6039 89.7689 19.1205L89.8022 19.3539C89.8272 19.6914 89.9022 18.8456 89.9355 19.1581L89.9813 18.9998C89.998 19.0581 90.0355 19.1248 90.0105 19.1998C90.0605 19.2123 90.0605 19.1539 90.0897 19.0497L90.1522 19.2581C90.3563 19.4122 90.5022 18.9956 90.7105 19.0664C90.9813 19.4831 91.423 19.0664 91.6814 18.8205C92.0314 18.2955 92.5397 19.6205 92.8939 19.0205C92.9105 19.0664 92.9355 18.958 92.9314 18.9205L93.2855 18.9497C93.2855 18.9497 95.0022 18.9914 93.5564 16.2456V16.1706C93.3605 15.9998 93.2355 15.9664 93.123 16.3456C93.0772 15.8914 92.9605 16.3081 92.9105 16.1623V16.1247C92.8147 16.483 92.6563 15.8456 92.5563 16.1664C92.5563 16.1289 92.5564 16.0039 92.5814 15.9955C92.5022 16.058 92.3939 16.1664 92.373 15.8997C92.1772 15.9789 91.898 15.8706 91.7939 16.2998V16.2247C91.7397 16.5164 91.7064 16.2705 91.6355 16.4205C91.6314 16.3872 91.623 16.3706 91.623 16.3539C91.5605 16.6414 91.398 16.408 91.3397 16.533L91.3272 16.3581L91.173 16.408L91.2355 16.4414C91.2397 16.9289 91.1022 16.1456 91.0022 16.4622C90.8939 16.4081 90.8397 17.4789 90.7188 17.2497C90.6772 17.4789 90.7438 16.8789 90.6772 17.058C90.6605 16.8039 90.7063 16.8998 90.6772 16.6956C90.6063 16.8206 90.5355 16.4455 90.4522 16.6205L90.4397 16.4247C90.3355 16.7914 90.1897 16.1789 90.1272 16.5247C90.0064 16.6955 90.0105 15.9456 89.898 16.3372L89.8313 16.0748C89.773 16.0331 89.8063 16.4039 89.7355 16.2789C89.7313 16.1123 89.648 16.1498 89.6772 15.9873C89.5188 15.7331 89.4064 16.3747 89.1939 15.9414C89.1689 16.2706 89.0647 16.0789 89.048 16.3289C89.0355 16.1872 88.8563 16.3164 88.948 15.9997C88.9563 15.9747 88.973 15.9789 88.973 16.0331V15.8372C88.848 15.4789 88.7897 16.0497 88.6813 15.9997C88.7147 16.0622 88.7563 16.0414 88.7355 16.1789L88.6355 16.1581L88.648 15.9955L88.4938 15.908L88.523 16.108C88.4438 16.008 88.4022 15.6664 88.3355 15.9581C88.3063 16.1206 88.4189 16.2248 88.3439 16.2914C88.2397 16.1581 88.0855 15.958 87.9605 15.9039C87.9855 16.1289 87.9522 16.1248 87.9188 16.1706L87.9063 15.9748C87.7897 16.2539 87.8355 15.5456 87.7189 15.7664V15.6289L87.7105 16.0414C87.6147 16.4372 87.6272 15.6373 87.523 16.1748C87.573 16.1373 87.5688 16.608 87.5022 16.5247V16.333C87.4772 16.3747 87.4688 16.4539 87.4438 16.4164C87.4605 16.3122 87.4438 16.1373 87.3897 16.1748L87.4105 15.9331L87.3313 16.2873C87.2438 16.0873 87.1397 16.3498 87.0939 16.0831C87.0939 16.0831 86.9272 15.9622 86.9022 16.2539C86.923 16.0706 86.8314 16.0039 86.848 15.7914C86.8189 15.9997 86.7022 16.1748 86.6397 15.9581L86.648 15.9331C86.4522 15.7164 86.3522 16.258 86.173 15.9914C86.1939 16.2205 86.098 16.0998 86.1355 16.3914C85.9813 16.6873 85.7938 15.8122 85.7813 16.7205C85.7063 16.7747 85.6772 16.5122 85.6355 16.4706L85.6522 16.4205C85.5105 16.5039 85.4688 16.5123 85.3605 16.4998C85.3105 16.5914 85.323 17.0123 85.223 16.9164C85.2439 16.7498 85.2064 16.7789 85.173 16.7831C85.1939 16.7539 85.198 16.6956 85.1438 16.5831C85.1438 16.6373 85.1314 16.6664 85.123 16.6956C85.123 16.6831 85.123 16.6706 85.123 16.6539C85.0647 16.7164 85.0772 16.7664 85.1063 16.7873C85.1063 16.8123 85.1064 16.8456 85.123 16.8914C85.048 16.6789 84.948 16.9164 84.9272 16.6289C84.748 16.7039 84.6355 17.0081 84.4939 17.1248C84.4689 16.9789 84.4939 16.8456 84.5397 16.7873L84.4355 16.8455C84.4272 16.633 84.4897 16.7206 84.523 16.6747C84.3772 16.3372 84.2772 17.0289 84.1147 16.7247L84.0938 16.8956L84.0855 16.8664C84.0897 16.9539 84.0647 17.0789 84.0438 17.1081C84.0147 16.9248 84.023 16.6831 83.948 16.6956C83.8813 16.5206 83.7855 16.7956 83.7147 16.8956C83.7564 16.9248 83.748 17.0289 83.7355 17.0956C83.698 17.1039 83.6688 16.9206 83.6438 16.9998L83.6272 16.7497C83.6522 16.983 83.5438 17.0081 83.5355 17.1123C83.5063 16.9289 83.5855 16.9498 83.5855 16.8123C83.4397 16.8414 83.5105 16.8289 83.3647 16.8581C83.2938 17.0497 83.3897 17.0914 83.3647 17.3123C83.298 17.3664 83.2397 17.5414 83.1522 17.3956L83.1897 17.6164C83.0689 17.7956 82.9897 17.7747 82.8897 17.5539C82.0105 19.408 82.8147 20.0289 82.8147 20.0289C83.223 20.4998 83.3897 19.8414 83.8355 19.6455L83.823 19.6622Z" fill="#B6DB65"/>
<path d="M103.484 15.7461L103.518 15.8377C103.518 15.7961 103.505 15.7586 103.484 15.7461Z" fill="#B6DB65"/>
<path d="M111.07 15.2786C111.07 15.2786 111.074 15.2661 111.074 15.2578C111.07 15.2661 111.07 15.2702 111.07 15.2786Z" fill="#B6DB65"/>
<path d="M104.829 18.7852C104.829 18.7935 104.824 18.7976 104.82 18.8101L104.829 18.7852Z" fill="#B6DB65"/>
<path d="M103.284 18.6159C103.692 18.7034 103.821 19.1284 104.23 18.9284C104.43 18.9534 104.638 18.8409 104.825 18.7784C104.9 18.4368 105.08 18.7576 105.171 18.4743L105.225 18.6617C105.259 18.5617 105.296 18.4951 105.342 18.5951V18.6492C105.392 18.5034 105.459 18.5825 105.484 18.5117V18.5659L105.55 18.5367L105.542 18.6159C105.63 18.4575 105.73 18.4409 105.825 18.5075L105.805 18.2784C106.009 18.5243 106.05 18.0451 106.242 18.3409V18.395C106.425 17.7784 106.609 18.7867 106.8 18.1992C106.775 18.2742 106.817 18.3159 106.821 18.3743C106.921 18.3034 107.03 18.2617 107.005 17.8117C107.08 17.8117 107.075 17.9492 107.092 18.1242C107.08 17.9284 107.142 17.8409 107.2 17.8242L107.18 17.9034L107.342 17.8284L107.288 17.4575C107.384 17.5617 107.338 17.9117 107.417 17.8159L107.4 17.5076C107.525 17.5617 107.625 18.0242 107.759 18.2451C108.263 18.3492 108.746 17.5284 109.238 18.0493L109.271 18.2826C109.3 18.6201 109.371 17.7742 109.405 18.0867L109.45 17.9284C109.467 17.9867 109.505 18.0534 109.484 18.1284C109.534 18.1367 109.534 18.0825 109.563 17.9784L109.63 18.1867C109.834 18.3409 109.975 17.9242 110.188 17.995C110.459 18.4117 110.9 17.9909 111.155 17.7451C111.5 17.2159 112.017 18.5409 112.367 17.9409C112.384 17.9868 112.409 17.8784 112.405 17.8409L112.759 17.87C112.759 17.87 114.475 17.9034 113.017 15.1659V15.0909C112.817 14.92 112.696 14.8909 112.584 15.27C112.538 14.8159 112.421 15.2325 112.367 15.0867V15.0493C112.271 15.4076 112.109 14.77 112.013 15.0909C112.013 15.0534 112.013 14.9284 112.038 14.9201C111.959 14.9826 111.85 15.0909 111.83 14.8243C111.638 14.9034 111.355 14.7992 111.25 15.2284V15.1534C111.2 15.4451 111.163 15.1993 111.092 15.3493C111.084 15.3159 111.08 15.2992 111.08 15.2825C111.017 15.57 110.855 15.3409 110.796 15.4618L110.784 15.2867L110.63 15.3368L110.692 15.37C110.7 15.8575 110.555 15.0742 110.463 15.395C110.355 15.3409 110.305 16.4159 110.18 16.1826C110.138 16.4118 110.205 15.8118 110.138 15.9909C110.121 15.7368 110.167 15.8284 110.138 15.6284C110.067 15.7534 109.996 15.3784 109.913 15.5534L109.896 15.3576C109.792 15.7243 109.646 15.1118 109.584 15.4576C109.463 15.6284 109.463 14.8784 109.355 15.27L109.288 15.0076C109.23 14.9659 109.267 15.3367 109.196 15.2117C109.192 15.0451 109.109 15.0826 109.138 14.9201C108.98 14.6659 108.867 15.3075 108.655 14.8742C108.634 15.2034 108.525 15.0159 108.509 15.2618C108.496 15.1201 108.317 15.2493 108.405 14.9368C108.413 14.9118 108.43 14.9159 108.43 14.97V14.7742C108.305 14.4159 108.246 14.9868 108.138 14.9368C108.171 14.9993 108.213 14.9784 108.192 15.1159L108.092 15.0951L108.105 14.9326L107.95 14.8451L107.984 15.0451C107.905 14.9451 107.863 14.6034 107.796 14.8951C107.767 15.0576 107.88 15.1617 107.809 15.2284C107.705 15.0951 107.55 14.8993 107.421 14.8451C107.446 15.0701 107.413 15.0659 107.38 15.1117L107.363 14.9159C107.246 15.1951 107.292 14.4868 107.171 14.7118V14.5742L107.163 14.9867C107.067 15.3825 107.075 14.5826 106.975 15.1201C107.025 15.0826 107.025 15.5534 106.955 15.4701V15.2784C106.925 15.32 106.921 15.3993 106.896 15.3618C106.913 15.2576 106.892 15.0826 106.842 15.1201L106.863 14.8784L106.784 15.2326C106.696 15.0326 106.592 15.2951 106.546 15.0284C106.546 15.0284 106.375 14.9076 106.359 15.2034C106.38 15.0201 106.288 14.9534 106.3 14.7409C106.271 14.9493 106.155 15.1242 106.096 14.9076L106.105 14.8825C105.909 14.67 105.809 15.2076 105.63 14.9451C105.65 15.1743 105.555 15.0534 105.596 15.3451C105.442 15.6451 105.255 14.7701 105.242 15.6743C105.167 15.7284 105.138 15.4659 105.096 15.4242L105.113 15.3742C104.971 15.4575 104.93 15.4659 104.821 15.4534C104.771 15.5451 104.788 15.9659 104.688 15.8701C104.709 15.7034 104.671 15.7326 104.638 15.7367C104.659 15.7076 104.663 15.6492 104.609 15.5367C104.609 15.5909 104.596 15.6201 104.588 15.6493C104.588 15.6368 104.588 15.6242 104.588 15.6075C104.53 15.67 104.546 15.7201 104.575 15.7409C104.575 15.7659 104.58 15.7992 104.592 15.8451C104.517 15.6326 104.421 15.87 104.396 15.5825C104.221 15.6575 104.109 15.9618 103.963 16.0826C103.938 15.9368 103.963 15.8034 104.005 15.7451L103.9 15.8034C103.888 15.5909 103.955 15.6784 103.984 15.6326C103.838 15.2951 103.742 15.9908 103.575 15.6825L103.555 15.8534L103.542 15.8242C103.546 15.9117 103.521 16.0368 103.5 16.0659C103.467 15.8826 103.48 15.6409 103.405 15.6576C103.338 15.4826 103.242 15.7576 103.175 15.8618C103.217 15.8909 103.213 15.9951 103.196 16.0617C103.159 16.0701 103.13 15.8868 103.105 15.9659L103.088 15.7159C103.117 15.9492 103.005 15.9743 102.996 16.0784C102.963 15.8951 103.046 15.9159 103.046 15.7784C102.9 15.8118 102.971 15.7951 102.825 15.8242C102.759 16.0159 102.855 16.0576 102.825 16.2784C102.759 16.3326 102.7 16.5076 102.613 16.3617L102.65 16.5826C102.53 16.7617 102.45 16.7409 102.35 16.52C101.48 18.3784 102.284 18.9951 102.284 18.9951C102.696 19.4618 102.855 18.8075 103.305 18.6075L103.284 18.6159Z" fill="#B6DB65"/>
<path d="M122.922 14.582L122.959 14.6737C122.959 14.632 122.947 14.5945 122.922 14.582Z" fill="#B6DB65"/>
<path d="M130.496 14.0129C130.496 14.0129 130.496 14.0005 130.5 13.9922C130.496 14.0005 130.496 14.0046 130.496 14.0129Z" fill="#B6DB65"/>
<path d="M124.297 17.5977C124.297 17.5977 124.297 17.6102 124.293 17.6227L124.301 17.5977H124.297Z" fill="#B6DB65"/>
<path d="M122.751 17.4562C123.159 17.5395 123.297 17.9605 123.701 17.7563C123.901 17.7771 124.105 17.6646 124.297 17.5979C124.368 17.2562 124.551 17.5771 124.643 17.2854L124.697 17.4729C124.726 17.3729 124.768 17.3062 124.814 17.4062V17.4604C124.859 17.3145 124.93 17.3938 124.955 17.3188V17.3729L125.022 17.3438L125.014 17.4229C125.101 17.2646 125.201 17.2479 125.293 17.3104L125.268 17.0812C125.476 17.3229 125.514 16.8438 125.705 17.1355V17.1896C125.88 16.5687 126.076 17.5771 126.259 16.9896C126.239 17.0646 126.28 17.1062 126.28 17.1646C126.38 17.0937 126.484 17.0479 126.455 16.5979C126.53 16.5979 126.526 16.7354 126.547 16.9063C126.534 16.7104 126.593 16.6229 126.651 16.6063L126.63 16.6854L126.793 16.6063L126.734 16.2354C126.83 16.3354 126.789 16.6896 126.868 16.5938L126.847 16.2854C126.972 16.3396 127.08 16.8021 127.214 17.0188C127.718 17.1146 128.193 16.2896 128.693 16.8021L128.73 17.0313C128.764 17.3688 128.822 16.5187 128.864 16.8312L128.905 16.6729C128.926 16.7312 128.959 16.7937 128.939 16.8729C128.989 16.8812 128.984 16.827 129.014 16.7229L129.08 16.9312C129.289 17.0812 129.426 16.6645 129.634 16.7312C129.914 17.1437 130.347 16.7146 130.601 16.4687C130.943 15.9354 131.476 17.2562 131.818 16.6479C131.834 16.6937 131.859 16.5854 131.855 16.5479L132.209 16.5729C132.209 16.5729 133.926 16.5812 132.426 13.8646V13.7896C132.222 13.6229 132.101 13.5938 131.993 13.9729C131.939 13.5188 131.83 13.9354 131.776 13.7938V13.7562C131.684 14.1146 131.514 13.4813 131.422 13.8021C131.422 13.7646 131.418 13.6396 131.443 13.6312C131.364 13.6937 131.259 13.8021 131.234 13.5396C131.043 13.6229 130.759 13.5187 130.664 13.9521V13.8771C130.614 14.1688 130.576 13.9271 130.505 14.0771C130.497 14.0438 130.493 14.0271 130.493 14.0105C130.434 14.298 130.268 14.0688 130.214 14.1938L130.197 14.0187L130.043 14.0687L130.105 14.1021C130.118 14.5896 129.964 13.8062 129.876 14.127C129.768 14.0729 129.73 15.1479 129.605 14.9188C129.568 15.1479 129.626 14.5479 129.559 14.7271C129.539 14.4729 129.584 14.5646 129.551 14.3646C129.484 14.4896 129.405 14.1146 129.322 14.2938L129.305 14.0979C129.205 14.4646 129.051 13.8563 128.993 14.2021C128.876 14.3729 128.868 13.6229 128.759 14.0187L128.689 13.7562C128.63 13.7187 128.672 14.0854 128.597 13.9604C128.589 13.7937 128.509 13.8313 128.534 13.6688C128.372 13.4188 128.272 14.0604 128.051 13.6312C128.034 13.9604 127.926 13.7729 127.909 14.0187C127.893 13.877 127.718 14.0105 127.801 13.6938C127.809 13.6688 127.826 13.6729 127.826 13.7271V13.5312C127.693 13.1729 127.643 13.748 127.534 13.698C127.572 13.7605 127.609 13.7396 127.593 13.8729L127.493 13.8521L127.501 13.6896L127.347 13.6062L127.38 13.8062C127.301 13.7062 127.251 13.3688 127.193 13.6604C127.168 13.8229 127.28 13.9271 127.209 13.9938C127.105 13.8646 126.947 13.6645 126.818 13.6145C126.847 13.8395 126.809 13.8354 126.78 13.8813L126.764 13.6854C126.651 13.9688 126.684 13.2563 126.572 13.4813V13.3438V13.7562C126.48 14.1562 126.48 13.3521 126.389 13.8938C126.439 13.8563 126.443 14.327 126.372 14.2437V14.0521C126.343 14.0937 126.334 14.177 126.309 14.1354C126.322 14.0312 126.301 13.8563 126.251 13.8938L126.268 13.6521L126.193 14.0105C126.105 13.8105 126.001 14.077 125.955 13.8104C125.955 13.8104 125.784 13.6896 125.768 13.9854C125.789 13.8021 125.693 13.7396 125.705 13.5229C125.676 13.7312 125.568 13.9105 125.501 13.6938L125.509 13.6688C125.309 13.4563 125.218 13.9979 125.034 13.7354C125.059 13.9646 124.964 13.8437 125.005 14.1354C124.855 14.4354 124.655 13.5646 124.655 14.4687C124.58 14.5229 124.551 14.2646 124.505 14.2188L124.522 14.1687C124.384 14.2521 124.343 14.2646 124.23 14.2521C124.184 14.3437 124.201 14.7646 124.101 14.6687C124.122 14.4979 124.084 14.5354 124.047 14.5354C124.068 14.5062 124.072 14.4479 124.018 14.3354C124.018 14.3895 124.005 14.4187 123.997 14.4479C123.997 14.4354 123.997 14.4229 123.997 14.4063C123.943 14.4688 123.955 14.5187 123.984 14.5395C123.984 14.5645 123.989 14.5979 124.001 14.6437C123.926 14.4312 123.83 14.6687 123.801 14.3854C123.626 14.4646 123.518 14.7687 123.372 14.8896C123.347 14.7437 123.372 14.6104 123.409 14.552L123.305 14.6146C123.293 14.4021 123.359 14.4895 123.389 14.4437C123.239 14.1104 123.151 14.8021 122.98 14.5021L122.959 14.6729L122.947 14.6437C122.955 14.7312 122.926 14.8562 122.909 14.8854C122.876 14.7021 122.88 14.4604 122.809 14.4771C122.739 14.3021 122.651 14.5771 122.58 14.6812C122.622 14.7104 122.618 14.8146 122.605 14.8771C122.568 14.8854 122.534 14.7021 122.514 14.7854L122.493 14.5354C122.522 14.7687 122.414 14.7937 122.405 14.8979C122.372 14.7146 122.451 14.7354 122.451 14.5937C122.305 14.6271 122.376 14.6104 122.23 14.6437C122.164 14.8354 122.259 14.8771 122.239 15.0979C122.172 15.1521 122.118 15.3312 122.026 15.1854L122.068 15.4062C121.947 15.5854 121.868 15.5688 121.768 15.3479C120.914 17.2188 121.726 17.8229 121.726 17.8229C122.143 18.2854 122.297 17.6271 122.743 17.4229L122.751 17.4562Z" fill="#B6DB65"/>
<path d="M142.359 13.2148L142.397 13.3065C142.397 13.2648 142.384 13.2273 142.359 13.2148Z" fill="#B6DB65"/>
<path d="M149.953 12.7044C149.953 12.7044 149.953 12.6919 149.957 12.6836C149.953 12.6919 149.953 12.6961 149.953 12.7044Z" fill="#B6DB65"/>
<path d="M143.729 16.2422C143.729 16.2422 143.729 16.2547 143.725 16.2672L143.733 16.2422H143.729Z" fill="#B6DB65"/>
<path d="M142.188 16.0865C142.596 16.174 142.729 16.5948 143.134 16.3948C143.334 16.4156 143.538 16.3031 143.729 16.2406C143.8 15.8989 143.984 16.2198 144.075 15.9323L144.129 16.1197C144.159 16.0197 144.2 15.9531 144.246 16.0531V16.1072C144.292 15.9614 144.363 16.0406 144.384 15.9698V16.0239L144.45 15.9947L144.442 16.074C144.529 15.9156 144.629 15.8989 144.721 15.9614L144.7 15.7323C144.904 15.9781 144.946 15.4947 145.134 15.7905V15.8448C145.313 15.2239 145.504 16.2364 145.688 15.6448C145.663 15.7198 145.709 15.7614 145.709 15.8197C145.809 15.7489 145.913 15.7073 145.888 15.2573C145.963 15.2573 145.959 15.3948 145.979 15.5698C145.967 15.374 146.025 15.2864 146.084 15.2697L146.063 15.349L146.225 15.2697L146.167 14.8989C146.263 14.9989 146.217 15.3531 146.296 15.2573L146.275 14.949C146.4 15.0031 146.504 15.4655 146.638 15.6864C147.138 15.7864 147.621 14.9656 148.113 15.4822L148.146 15.7114C148.175 16.0489 148.242 15.2031 148.279 15.5156L148.325 15.3573C148.342 15.4156 148.379 15.4781 148.359 15.5573C148.409 15.5656 148.409 15.5114 148.438 15.4072L148.504 15.6156C148.709 15.7656 148.85 15.3489 149.059 15.4198C149.329 15.8364 149.771 15.4114 150.025 15.1614C150.371 14.6322 150.888 15.9531 151.238 15.349C151.254 15.3948 151.279 15.2865 151.275 15.249L151.629 15.2739C151.629 15.2739 153.346 15.2947 151.888 12.5656V12.4906C151.688 12.3239 151.567 12.2906 151.454 12.6739C151.409 12.2197 151.292 12.6364 151.238 12.4906V12.453C151.142 12.8114 150.979 12.1781 150.884 12.4989C150.884 12.4614 150.884 12.3365 150.909 12.3281C150.829 12.3906 150.721 12.499 150.7 12.2365C150.504 12.3198 150.225 12.2115 150.121 12.6448V12.5697C150.071 12.8614 150.034 12.6197 149.963 12.7697C149.954 12.7364 149.95 12.7198 149.95 12.7031C149.888 12.9906 149.725 12.7614 149.667 12.8864L149.654 12.7114L149.5 12.7615L149.563 12.7947C149.571 13.2822 149.425 12.4989 149.329 12.8198C149.221 12.7656 149.175 13.8406 149.05 13.6114C149.013 13.8406 149.075 13.2406 149.004 13.4197C148.988 13.1656 149.034 13.2573 149 13.0573C148.929 13.1823 148.859 12.8072 148.771 12.9822L148.754 12.7864C148.65 13.1531 148.504 12.5406 148.442 12.8906C148.325 13.0614 148.321 12.3114 148.209 12.7073L148.142 12.4448C148.084 12.4073 148.121 12.774 148.05 12.649C148.042 12.4823 147.963 12.5197 147.988 12.3572C147.829 12.1031 147.721 12.7489 147.504 12.3156C147.484 12.6448 147.375 12.4573 147.363 12.7031C147.35 12.5614 147.171 12.6906 147.259 12.3781C147.267 12.3531 147.284 12.3573 147.284 12.4114V12.2156C147.154 11.8573 147.1 12.4281 146.992 12.3781C147.029 12.4406 147.067 12.4197 147.05 12.5572L146.95 12.5365L146.963 12.3739L146.809 12.2864L146.842 12.4864C146.763 12.3864 146.717 12.0448 146.654 12.3365C146.629 12.499 146.738 12.6031 146.667 12.6697C146.563 12.5364 146.404 12.3406 146.275 12.2864C146.3 12.5114 146.267 12.5073 146.238 12.5531L146.221 12.3572C146.109 12.6406 146.146 11.9281 146.029 12.1531V12.0156L146.025 12.4281C145.934 12.824 145.938 12.0239 145.838 12.5656C145.888 12.5281 145.888 12.9989 145.821 12.9156V12.7239C145.792 12.7656 145.788 12.8448 145.759 12.8073C145.771 12.7031 145.75 12.5281 145.704 12.5656L145.725 12.324L145.65 12.6781C145.563 12.4781 145.459 12.7406 145.413 12.4781C145.413 12.4781 145.242 12.3573 145.225 12.6531C145.246 12.4698 145.154 12.4031 145.163 12.1906C145.134 12.3989 145.021 12.5781 144.959 12.3614L144.967 12.3365C144.771 12.124 144.675 12.6656 144.492 12.4031C144.513 12.6323 144.421 12.5114 144.459 12.8031C144.309 13.1031 144.109 12.2281 144.109 13.1364C144.034 13.1906 144.004 12.9322 143.959 12.8864L143.975 12.8364C143.834 12.9198 143.792 12.9323 143.684 12.9156C143.634 13.0073 143.654 13.4281 143.55 13.3323C143.571 13.1656 143.534 13.1989 143.496 13.1989C143.517 13.1697 143.521 13.1114 143.467 12.9989C143.467 13.0531 143.454 13.0822 143.446 13.1114C143.446 13.0989 143.446 13.0865 143.446 13.0698C143.392 13.1323 143.404 13.1822 143.434 13.2031C143.434 13.2281 143.438 13.2614 143.45 13.3072C143.375 13.0947 143.275 13.3323 143.25 13.049C143.075 13.1281 142.963 13.4323 142.821 13.5531C142.796 13.4073 142.821 13.2739 142.859 13.2156L142.754 13.2781C142.742 13.0656 142.809 13.1531 142.838 13.1072C142.688 12.7739 142.6 13.4656 142.429 13.1615L142.409 13.3323L142.396 13.3031C142.404 13.3906 142.375 13.5156 142.359 13.5448C142.325 13.3614 142.329 13.1198 142.259 13.1364C142.188 12.9614 142.1 13.2364 142.029 13.3406C142.071 13.3698 142.067 13.4739 142.054 13.5406C142.017 13.5489 141.984 13.3656 141.963 13.4489L141.942 13.1989C141.971 13.4322 141.863 13.4573 141.854 13.5614C141.821 13.3781 141.9 13.399 141.9 13.2573C141.754 13.2906 141.825 13.2739 141.679 13.3072C141.613 13.4989 141.709 13.5406 141.688 13.7614C141.621 13.8156 141.567 13.9906 141.475 13.8489L141.517 14.0698C141.396 14.2489 141.317 14.2281 141.213 14.0115C140.363 15.874 141.179 16.4865 141.179 16.4865C141.596 16.9531 141.75 16.2948 142.192 16.0948L142.188 16.0865Z" fill="#B6DB65"/>
<path d="M161.801 11.9492L161.838 12.0409C161.838 11.9992 161.826 11.9617 161.801 11.9492Z" fill="#B6DB65"/>
<path d="M169.414 11.4544C169.414 11.4544 169.414 11.4419 169.418 11.4336C169.414 11.4419 169.414 11.4461 169.414 11.4544Z" fill="#B6DB65"/>
<path d="M163.18 14.9648C163.18 14.9648 163.18 14.9774 163.176 14.9899L163.184 14.9648H163.18Z" fill="#B6DB65"/>
<path d="M161.638 14.8258C162.047 14.9091 162.184 15.33 162.584 15.1258C162.784 15.1466 162.988 15.0341 163.176 14.9674C163.243 14.6257 163.43 14.9466 163.518 14.6591L163.572 14.8467C163.601 14.7467 163.643 14.6799 163.688 14.7799V14.8341C163.734 14.6883 163.805 14.7674 163.826 14.6924V14.7466L163.893 14.7175L163.884 14.7966C163.972 14.6383 164.072 14.6216 164.163 14.6841L164.143 14.4549C164.347 14.7007 164.384 14.2175 164.576 14.5133V14.5674C164.751 13.9466 164.943 14.9591 165.13 14.3674C165.105 14.4424 165.151 14.4841 165.151 14.5424C165.251 14.4716 165.355 14.43 165.33 13.98C165.405 13.98 165.401 14.1175 165.422 14.2925C165.409 14.0966 165.468 14.0091 165.526 13.9925L165.505 14.0716L165.668 13.9925L165.613 13.6216C165.709 13.7216 165.663 14.0758 165.743 13.98L165.722 13.6716C165.847 13.7258 165.951 14.1883 166.08 14.4091C166.58 14.5091 167.063 13.6925 167.551 14.2091L167.584 14.4424C167.613 14.7799 167.684 13.9341 167.718 14.2466L167.763 14.0883C167.78 14.1466 167.817 14.2133 167.792 14.2883C167.842 14.3008 167.843 14.2424 167.872 14.1382L167.934 14.3466C168.138 14.5007 168.28 14.0841 168.488 14.1549C168.755 14.5716 169.197 14.1549 169.451 13.9132C169.805 13.3882 170.293 14.7216 170.651 14.1299C170.663 14.1757 170.693 14.0674 170.693 14.0299L171.043 14.0633C171.043 14.0633 171.468 14.0799 171.722 13.7549C171.972 13.4258 172.063 12.755 171.368 11.3675L171.376 11.2925C171.176 11.1175 171.051 11.0841 170.93 11.4591C170.893 11.0049 170.768 11.4175 170.718 11.2716V11.2341C170.613 11.5883 170.463 10.9508 170.363 11.2716C170.363 11.2341 170.363 11.1091 170.388 11.1007C170.305 11.1632 170.197 11.2674 170.18 11.0007C169.984 11.0799 169.701 10.9675 169.588 11.3966V11.3216C169.534 11.6091 169.501 11.3674 169.426 11.5174C169.422 11.4841 169.413 11.4633 169.413 11.4508C169.347 11.7383 169.184 11.5049 169.126 11.6299L169.113 11.4549L168.959 11.505L169.022 11.5382C169.022 12.0257 168.888 11.2383 168.788 11.5591C168.68 11.5049 168.622 12.5758 168.501 12.3467C168.459 12.5758 168.53 11.9757 168.459 12.1549C168.443 11.9007 168.488 11.9966 168.459 11.7925C168.388 11.9175 168.318 11.5425 168.23 11.7175L168.218 11.5216C168.109 11.8882 167.968 11.2757 167.905 11.6216C167.784 11.7924 167.788 11.0424 167.676 11.4341L167.609 11.1716C167.551 11.13 167.584 11.5008 167.513 11.3758C167.509 11.2091 167.426 11.2466 167.455 11.0841C167.297 10.83 167.184 11.4716 166.968 11.0383C166.947 11.3674 166.838 11.1799 166.822 11.4257C166.809 11.2841 166.63 11.4132 166.718 11.1007C166.726 11.0757 166.743 11.0799 166.743 11.1341V10.9383C166.613 10.5799 166.559 11.1507 166.447 11.1007C166.484 11.1632 166.522 11.1425 166.505 11.28L166.405 11.2591L166.418 11.0967L166.263 11.0091L166.297 11.2091C166.218 11.1091 166.172 10.7675 166.109 11.0591C166.08 11.2216 166.193 11.3258 166.122 11.3925C166.018 11.2591 165.859 11.0632 165.73 11.0091C165.755 11.2341 165.722 11.23 165.693 11.2758L165.676 11.08C165.563 11.3633 165.601 10.6508 165.484 10.8758V10.7383L165.48 11.1508C165.388 11.5466 165.392 10.7466 165.292 11.2883C165.342 11.2508 165.343 11.7216 165.276 11.6382V11.4466C165.247 11.4883 165.243 11.5674 165.213 11.5299C165.226 11.4257 165.205 11.2508 165.159 11.2883L165.18 11.0466L165.105 11.4008C165.018 11.2008 164.913 11.4633 164.863 11.2008C164.863 11.2008 164.693 11.08 164.676 11.3758C164.697 11.1925 164.601 11.1257 164.613 10.9132C164.584 11.1216 164.472 11.3008 164.409 11.0841L164.418 11.0591C164.218 10.8466 164.126 11.3883 163.942 11.1258C163.963 11.3549 163.872 11.2341 163.909 11.5257C163.759 11.8257 163.559 10.9549 163.559 11.8591C163.484 11.9133 163.451 11.655 163.409 11.6092L163.426 11.5591C163.284 11.6424 163.243 11.6549 163.134 11.6424C163.088 11.7341 163.109 12.1549 163.005 12.0591C163.026 11.8882 162.988 11.9258 162.951 11.9258C162.972 11.8967 162.976 11.8382 162.922 11.7257C162.922 11.7799 162.909 11.8091 162.901 11.8382C162.901 11.8257 162.901 11.8133 162.897 11.7966C162.842 11.8591 162.855 11.9092 162.884 11.93C162.884 11.955 162.888 11.9883 162.901 12.0342C162.822 11.8217 162.73 12.0591 162.701 11.7758C162.526 11.8549 162.417 12.1591 162.276 12.2799C162.247 12.1341 162.276 12.0007 162.313 11.9424L162.209 12.005C162.197 11.7925 162.263 11.8799 162.293 11.8341C162.143 11.5007 162.055 12.1966 161.884 11.8925L161.863 12.0633L161.851 12.0342C161.859 12.1217 161.834 12.2466 161.813 12.2758C161.78 12.0924 161.784 11.8508 161.713 11.8674C161.643 11.6924 161.555 11.9674 161.484 12.0716C161.526 12.1008 161.522 12.2049 161.509 12.2674C161.472 12.2757 161.438 12.0924 161.418 12.1758L161.397 11.9258C161.43 12.1592 161.318 12.1841 161.313 12.2883C161.28 12.1049 161.359 12.1258 161.359 11.9841C161.213 12.0174 161.284 12.0008 161.138 12.0342C161.072 12.2258 161.172 12.2674 161.147 12.4883C161.08 12.5424 161.026 12.7216 160.934 12.5757L160.976 12.7966C160.859 12.9758 160.776 12.9591 160.672 12.7425C159.83 14.6133 160.647 15.2174 160.647 15.2174C161.063 15.6799 161.218 15.0216 161.659 14.8133L161.638 14.8258Z" fill="#B6DB65"/>
<path d="M181.43 11.5664L181.455 11.6622C181.455 11.6206 181.455 11.5831 181.43 11.5664Z" fill="#B6DB65"/>
<path d="M189.121 12.6339C189.121 12.6339 189.129 12.6214 189.134 12.6172C189.125 12.6214 189.125 12.6297 189.121 12.6339Z" fill="#B6DB65"/>
<path d="M182.325 14.7578C182.325 14.7578 182.321 14.7703 182.316 14.7787L182.329 14.7578H182.325Z" fill="#B6DB65"/>
<path d="M180.863 14.3865C181.246 14.5282 181.317 14.9615 181.73 14.8198C181.917 14.8698 182.13 14.7865 182.321 14.7573C182.442 14.4323 182.567 14.7782 182.701 14.5073L182.721 14.699C182.767 14.6073 182.817 14.5448 182.842 14.6531L182.834 14.7073C182.905 14.5698 182.955 14.6615 182.988 14.5948L182.98 14.6489L183.046 14.6324L183.026 14.7115C183.134 14.5698 183.234 14.5698 183.313 14.6489L183.33 14.4199C183.484 14.6949 183.605 14.2323 183.738 14.5531L183.73 14.6073C184.013 14.0282 184.009 15.0573 184.296 14.5115C184.259 14.5782 184.296 14.6323 184.284 14.6865C184.392 14.6323 184.5 14.6156 184.563 14.1656C184.634 14.1823 184.605 14.3157 184.588 14.4865C184.613 14.2907 184.688 14.2157 184.746 14.2115L184.709 14.2823L184.88 14.2365L184.901 13.8615C184.971 13.9823 184.859 14.3156 184.955 14.2365L184.996 13.9281C185.109 14.0073 185.113 14.4782 185.192 14.724C185.642 14.924 186.284 14.2282 186.634 14.8449L186.613 15.0781C186.563 15.4156 186.821 14.6032 186.784 14.9157L186.863 14.774C186.863 14.8365 186.884 14.9073 186.846 14.9781C186.892 14.999 186.901 14.9448 186.955 14.8489L186.967 15.0656C187.121 15.2614 187.355 14.8907 187.538 15.0115C187.688 15.4782 188.201 15.1823 188.509 15.0115C188.984 14.599 189.08 16.0115 189.576 15.5365C189.576 15.5865 189.63 15.4907 189.642 15.4532L189.946 15.5906C189.946 15.5906 190.317 15.7323 190.651 15.4948C190.976 15.2531 191.321 14.6573 191.075 13.1198L191.105 13.0532C190.959 12.824 190.842 12.749 190.609 13.0699C190.709 12.624 190.459 12.9782 190.45 12.824L190.463 12.7906C190.255 13.0948 190.288 12.4407 190.096 12.7157C190.109 12.6823 190.142 12.5614 190.171 12.5614C190.076 12.5948 189.938 12.6657 189.992 12.4073C189.776 12.424 189.525 12.2407 189.3 12.624L189.326 12.5532C189.188 12.8157 189.221 12.574 189.109 12.6948C189.109 12.6615 189.109 12.6407 189.113 12.6282C188.971 12.8865 188.871 12.6198 188.784 12.724L188.817 12.549L188.651 12.5573L188.701 12.6073C188.58 13.0782 188.646 12.2823 188.467 12.5656C188.371 12.4823 188.051 13.5073 187.988 13.2532C187.892 13.4657 188.105 12.899 187.992 13.0574C188.038 12.8074 188.059 12.9073 188.08 12.7073C187.98 12.8115 188.005 12.4281 187.876 12.5781L187.909 12.3823C187.717 12.7115 187.721 12.0823 187.576 12.4032C187.417 12.5407 187.596 11.8115 187.392 12.1656V11.8948C187.338 11.8407 187.288 12.2073 187.246 12.0698C187.28 11.9031 187.188 11.924 187.255 11.774C187.155 11.4865 186.896 12.0906 186.776 11.6198C186.68 11.9364 186.613 11.7281 186.542 11.9656C186.559 11.824 186.351 11.9114 186.509 11.6239C186.521 11.5989 186.538 11.6073 186.53 11.6615L186.576 11.474C186.526 11.0948 186.342 11.6407 186.242 11.5698C186.263 11.6365 186.309 11.6281 186.259 11.7573L186.163 11.7157L186.209 11.5573L186.071 11.4406L186.063 11.6448C186.005 11.5323 186.03 11.1865 185.905 11.4573C185.842 11.6073 185.934 11.7365 185.846 11.7865C185.767 11.6365 185.651 11.4115 185.534 11.3323C185.513 11.5573 185.48 11.5448 185.438 11.5865L185.463 11.3907C185.292 11.6449 185.476 10.9532 185.309 11.149L185.338 11.0156L185.246 11.4198C185.075 11.7906 185.238 11.0031 185.034 11.5156C185.092 11.4906 185.001 11.949 184.946 11.8573L184.988 11.6698C184.946 11.7032 184.926 11.7823 184.905 11.7406C184.938 11.6406 184.951 11.4657 184.896 11.4949L184.963 11.2615L184.817 11.5948C184.767 11.3823 184.613 11.6198 184.613 11.349C184.613 11.349 184.463 11.1948 184.388 11.4865C184.442 11.3073 184.359 11.2281 184.413 11.0198C184.346 11.2198 184.196 11.374 184.176 11.149L184.188 11.124C184.026 10.8781 183.83 11.3906 183.692 11.1031C183.676 11.3323 183.601 11.199 183.588 11.4907C183.384 11.7615 183.334 10.8656 183.18 11.7573C183.096 11.799 183.109 11.5365 183.071 11.4865L183.096 11.4406C182.942 11.499 182.896 11.5032 182.792 11.474C182.73 11.5573 182.68 11.974 182.592 11.8656C182.638 11.7031 182.596 11.7281 182.559 11.7239C182.584 11.6989 182.596 11.6406 182.559 11.5239C182.546 11.5739 182.534 11.6073 182.521 11.6323C182.521 11.6198 182.521 11.6073 182.521 11.5907C182.455 11.6448 182.459 11.6948 182.488 11.7239C182.488 11.7489 182.484 11.7823 182.488 11.8281C182.446 11.6073 182.309 11.8281 182.33 11.5406C182.138 11.5906 181.984 11.874 181.821 11.974C181.817 11.824 181.863 11.699 181.913 11.6448L181.8 11.6907C181.817 11.4782 181.871 11.574 181.909 11.5365C181.809 11.1823 181.617 11.8573 181.488 11.5323L181.442 11.699L181.434 11.6698C181.426 11.7573 181.384 11.8782 181.359 11.9032C181.351 11.7157 181.392 11.4782 181.317 11.4823C181.271 11.299 181.142 11.5573 181.059 11.6531C181.096 11.6865 181.08 11.7906 181.059 11.8531C181.021 11.8531 181.013 11.6698 180.98 11.749L180.992 11.499C180.992 11.7365 180.876 11.7448 180.855 11.8448C180.846 11.6573 180.921 11.6906 180.942 11.5531C180.792 11.5656 180.867 11.5615 180.713 11.574C180.621 11.7573 180.713 11.8115 180.659 12.0282C180.584 12.074 180.505 12.2407 180.434 12.0865L180.446 12.3073C180.305 12.4698 180.23 12.4407 180.151 12.2115C179.609 13.0865 179.534 13.699 179.58 14.0907C179.63 14.4865 179.805 14.6615 179.805 14.6615C180.151 15.1698 180.376 14.5407 180.834 14.3948L180.863 14.3865Z" fill="#B6DB65"/>
<path d="M200.12 18.2031L200.082 18.2948C200.111 18.2614 200.128 18.2281 200.12 18.2031Z" fill="#B6DB65"/>
<path d="M205.283 24.219C205.283 24.219 205.296 24.219 205.304 24.2148C205.296 24.2148 205.287 24.2148 205.283 24.219Z" fill="#B6DB65"/>
<path d="M198.878 21.2773C198.878 21.2773 198.866 21.2815 198.857 21.2899L198.878 21.2773Z" fill="#B6DB65"/>
<path d="M197.991 20.1425C198.208 20.4717 197.991 20.8592 198.395 20.98C198.504 21.13 198.716 21.1883 198.883 21.2758C199.179 21.0925 199.054 21.4383 199.325 21.305L199.22 21.4675C199.312 21.4216 199.387 21.405 199.341 21.505L199.3 21.5424C199.437 21.4758 199.42 21.5799 199.487 21.5466L199.446 21.5841L199.508 21.6133L199.446 21.6591C199.621 21.6133 199.691 21.6758 199.7 21.7841L199.858 21.6175C199.796 21.9258 200.187 21.6424 200.075 21.9674L200.033 22.005C200.62 21.7383 199.945 22.5216 200.512 22.2883C200.441 22.3175 200.433 22.3758 200.387 22.4133C200.5 22.4425 200.595 22.4966 200.937 22.1966C200.979 22.255 200.871 22.3341 200.746 22.4549C200.896 22.3257 200.995 22.3174 201.041 22.3507L200.966 22.3799L201.121 22.4591L201.383 22.1925C201.358 22.33 201.05 22.505 201.175 22.5091L201.408 22.3091C201.437 22.4383 201.125 22.7966 201.02 23.0258C201.208 23.4591 202.145 23.38 201.97 24.0591L201.796 24.2133C201.529 24.4217 202.27 24.0133 202.029 24.2133L202.183 24.1633C202.141 24.2091 202.108 24.2717 202.029 24.2967C202.045 24.3425 202.091 24.3091 202.195 24.28L202.054 24.4424C202.025 24.6883 202.454 24.5758 202.491 24.7883C202.262 25.2216 202.833 25.3592 203.162 25.4592C203.791 25.505 202.833 26.5466 203.512 26.5675C203.475 26.6008 203.583 26.5758 203.621 26.555L203.737 26.8675C203.737 26.8675 203.896 27.2342 204.291 27.3175C204.687 27.3925 205.354 27.2217 206.304 25.9842L206.375 25.9591C206.446 25.6966 206.416 25.5591 206.02 25.6133C206.412 25.3758 205.983 25.4425 206.087 25.3341L206.121 25.3216C205.754 25.3841 206.254 24.955 205.92 25.0008C205.954 24.9883 206.066 24.9258 206.083 24.9467C205.987 24.9008 205.841 24.8466 206.066 24.7091C205.9 24.5633 205.858 24.2424 205.425 24.3508L205.491 24.3217C205.208 24.405 205.404 24.2591 205.233 24.2633C205.262 24.2425 205.271 24.2258 205.287 24.2217C205.004 24.3008 205.12 24.0424 204.983 24.0508L205.129 23.9508L205.008 23.8341V23.905C204.591 24.1508 205.2 23.6341 204.866 23.7091C204.854 23.5799 203.904 24.08 204.037 23.855C203.821 23.9383 204.37 23.6883 204.179 23.7174C204.387 23.5716 204.333 23.6591 204.487 23.5299C204.345 23.5299 204.629 23.2757 204.433 23.2882L204.591 23.1717C204.22 23.2717 204.662 22.8217 204.329 22.9508C204.12 22.9383 204.754 22.5383 204.358 22.6467L204.541 22.4467C204.541 22.3717 204.25 22.6049 204.316 22.4716C204.454 22.3758 204.375 22.3216 204.525 22.2633C204.645 21.9841 204.041 22.2383 204.275 21.8133C203.987 21.9758 204.083 21.78 203.866 21.9008C203.975 21.8092 203.762 21.7258 204.075 21.6258C204.1 21.6174 204.108 21.6341 204.062 21.6675L204.225 21.5591C204.441 21.2425 203.937 21.5175 203.908 21.3967C203.879 21.4633 203.92 21.4883 203.795 21.5466L203.75 21.4466L203.891 21.3633L203.866 21.18L203.725 21.3216C203.758 21.1966 204.008 20.9592 203.729 21.0717C203.579 21.1425 203.562 21.3008 203.462 21.2758C203.508 21.1092 203.566 20.8591 203.525 20.7174C203.358 20.8716 203.341 20.8425 203.283 20.8425L203.433 20.7133C203.133 20.7841 203.729 20.3925 203.475 20.43L203.587 20.3508L203.25 20.5924C202.875 20.7549 203.516 20.2716 203.02 20.5175C203.083 20.5383 202.708 20.8216 202.729 20.7174L202.883 20.6049C202.829 20.6049 202.762 20.6466 202.775 20.6049C202.866 20.5549 202.991 20.43 202.929 20.4133L203.133 20.2841L202.8 20.4383C202.9 20.2425 202.625 20.3216 202.8 20.1175C202.8 20.1175 202.783 19.9008 202.537 20.0716C202.695 19.9758 202.683 19.855 202.858 19.73C202.675 19.8342 202.462 19.8549 202.587 19.6674L202.612 19.6591C202.641 19.3633 202.158 19.63 202.233 19.3133C202.075 19.48 202.1 19.3258 201.904 19.5466C201.575 19.6216 202.095 18.8925 201.408 19.4883C201.316 19.4675 201.491 19.2717 201.491 19.2092L201.537 19.1883C201.375 19.1341 201.337 19.1092 201.275 19.0133C201.175 19.0383 200.875 19.3342 200.875 19.1925C201.012 19.0925 200.962 19.0883 200.933 19.0633C200.97 19.0633 201.016 19.0217 201.058 18.905C201.016 18.9383 200.987 18.955 200.962 18.9675C200.971 18.9591 200.975 18.9508 200.991 18.9383C200.904 18.9383 200.879 18.9841 200.883 19.0216C200.866 19.0383 200.845 19.0633 200.82 19.105C200.92 18.905 200.679 18.9925 200.866 18.7758C200.679 18.6967 200.383 18.8175 200.195 18.8008C200.283 18.68 200.395 18.605 200.47 18.5925L200.35 18.5591C200.491 18.4008 200.479 18.5091 200.533 18.5008C200.662 18.1549 200.1 18.5758 200.191 18.2383L200.058 18.3425L200.071 18.3133C200.012 18.3799 199.908 18.4508 199.871 18.455C199.975 18.3008 200.15 18.1341 200.087 18.0924C200.158 17.9174 199.895 18.0467 199.77 18.0717C199.783 18.1217 199.708 18.1925 199.65 18.23C199.616 18.2091 199.72 18.0549 199.645 18.0966L199.804 17.9049C199.662 18.0966 199.562 18.0341 199.487 18.1049C199.587 17.9508 199.633 18.0216 199.733 17.9216C199.6 17.8425 199.666 17.8799 199.533 17.8008C199.35 17.8924 199.395 17.9925 199.225 18.1383C199.137 18.13 198.975 18.2217 199.008 18.0508L198.887 18.2383C198.675 18.2883 198.629 18.2216 198.7 17.9883C197.754 18.3924 197.354 18.8633 197.17 19.2175C196.987 19.5717 197.025 19.8091 197.025 19.8091C197 20.4091 197.537 20.0133 197.979 20.1592L197.991 20.1425Z" fill="#B6DB65"/>
<path d="M208.787 35.2266L208.695 35.2474C208.737 35.2474 208.774 35.2391 208.787 35.2266Z" fill="#B6DB65"/>
<path d="M208.588 39.3516C208.588 39.3516 208.6 39.3516 208.609 39.3599C208.6 39.3599 208.596 39.3557 208.588 39.3516Z" fill="#B6DB65"/>
<path d="M205.93 35.1869C205.83 35.3827 205.401 35.4452 205.584 35.6286C205.551 35.7202 205.651 35.816 205.705 35.9035C206.042 35.941 205.709 36.0203 205.992 36.0703L205.801 36.0911C205.896 36.1078 205.963 36.1286 205.859 36.1452H205.805C205.951 36.1702 205.863 36.1994 205.934 36.2119H205.88L205.905 36.2411H205.826C205.98 36.2827 205.988 36.3286 205.917 36.3703H206.146C205.888 36.4536 206.363 36.4952 206.059 36.5702H206.005C206.609 36.6869 205.588 36.716 206.159 36.8369C206.088 36.8202 206.042 36.8369 205.984 36.8369C206.046 36.8869 206.08 36.9411 206.53 36.9619C206.521 36.9994 206.388 36.9827 206.213 36.9827C206.409 36.9911 206.492 37.0285 206.501 37.0577L206.426 37.041L206.488 37.1244H206.863C206.755 37.1661 206.409 37.116 206.496 37.1619L206.805 37.1786C206.742 37.2369 206.271 37.2411 206.038 37.2827C205.892 37.4994 206.655 37.8244 206.088 37.991L205.855 37.9744C205.517 37.941 206.346 38.0869 206.034 38.0619L206.184 38.1036C206.121 38.1036 206.055 38.1119 205.984 38.091C205.967 38.1119 206.021 38.1203 206.121 38.1494H205.909C205.734 38.2203 206.134 38.3494 206.034 38.4327C205.592 38.4911 205.955 38.7577 206.159 38.9202C206.63 39.1869 205.263 39.1535 205.801 39.4327C205.751 39.4327 205.855 39.4661 205.892 39.4744L205.813 39.6286C205.813 39.6286 205.738 39.8161 206.021 40.0119C206.305 40.1994 206.942 40.4327 208.392 40.3952L208.463 40.4161C208.663 40.3536 208.717 40.2911 208.363 40.1453C208.813 40.2244 208.426 40.0702 208.576 40.0744L208.613 40.0827C208.28 39.9494 208.926 40.0077 208.63 39.8869C208.663 39.8952 208.788 39.9203 208.792 39.9369C208.746 39.8828 208.655 39.7995 208.917 39.8453C208.867 39.7245 209.017 39.591 208.609 39.4535L208.68 39.4702C208.405 39.3827 208.646 39.4119 208.509 39.3452C208.542 39.3452 208.563 39.3452 208.576 39.3494C208.305 39.2619 208.551 39.2202 208.438 39.1661L208.613 39.1911L208.584 39.0994L208.542 39.1244C208.063 39.041 208.855 39.1078 208.551 38.9994C208.617 38.9494 207.567 38.741 207.813 38.7202C207.592 38.6619 208.176 38.7952 208.009 38.7286C208.259 38.7619 208.163 38.7703 208.363 38.7869C208.251 38.7286 208.63 38.7536 208.467 38.6786L208.663 38.7035C208.317 38.591 208.934 38.6077 208.601 38.5202C208.446 38.4327 209.188 38.5411 208.813 38.4244H209.08C209.126 38.3994 208.759 38.3661 208.888 38.3453C209.055 38.3661 209.026 38.3161 209.184 38.3536C209.455 38.2994 208.83 38.1535 209.28 38.0952C208.955 38.041 209.155 38.0078 208.913 37.9661C209.055 37.9745 208.946 37.8619 209.246 37.9494C209.271 37.9578 209.267 37.9661 209.209 37.9619L209.401 37.9869C209.771 37.9577 209.209 37.8577 209.271 37.8036C209.205 37.8161 209.221 37.8411 209.088 37.8161L209.117 37.762L209.28 37.7869L209.38 37.7119H209.176C209.284 37.6744 209.626 37.6869 209.342 37.6203C209.184 37.5869 209.067 37.6369 209.009 37.5911C209.151 37.5494 209.363 37.4828 209.426 37.4161C209.196 37.4078 209.209 37.391 209.163 37.3702L209.359 37.3786C209.088 37.2911 209.792 37.3786 209.58 37.2911L209.717 37.3036L209.305 37.2619C208.917 37.1744 209.717 37.2452 209.188 37.1494C209.221 37.1785 208.755 37.1411 208.842 37.1119L209.034 37.1286C208.996 37.1078 208.917 37.0952 208.955 37.0869C209.055 37.1036 209.23 37.1077 209.201 37.0744L209.438 37.1036L209.088 37.0328C209.292 36.9995 209.038 36.9244 209.309 36.9161C209.309 36.9161 209.442 36.8286 209.151 36.7994C209.334 36.8244 209.405 36.7744 209.617 36.7994C209.413 36.7703 209.246 36.6952 209.467 36.6744H209.492C209.717 36.5827 209.188 36.4994 209.463 36.4119C209.234 36.4119 209.359 36.3661 209.067 36.3744C208.78 36.2786 209.663 36.2036 208.759 36.1703C208.709 36.1286 208.971 36.1202 209.017 36.0994L209.063 36.1077C208.988 36.0285 208.98 36.0036 209.001 35.9452C208.913 35.9161 208.492 35.9161 208.592 35.8661C208.759 35.8786 208.73 35.8577 208.73 35.8411C208.755 35.8536 208.817 35.8577 208.93 35.8286C208.88 35.8286 208.846 35.8202 208.821 35.8161C208.834 35.8161 208.846 35.8161 208.863 35.8161C208.805 35.7827 208.751 35.791 208.73 35.8077C208.705 35.8077 208.671 35.8077 208.626 35.8161C208.842 35.7786 208.609 35.7244 208.896 35.7119C208.826 35.6161 208.53 35.5535 208.417 35.4785C208.563 35.466 208.696 35.4786 208.755 35.4994L208.696 35.4453C208.909 35.4369 208.821 35.4744 208.863 35.491C209.205 35.4077 208.513 35.3619 208.826 35.2702L208.659 35.262H208.688C208.601 35.262 208.48 35.2494 208.451 35.2369C208.634 35.2161 208.876 35.216 208.863 35.1785C209.042 35.1369 208.771 35.091 208.667 35.0577C208.638 35.0827 208.534 35.0785 208.467 35.0744C208.459 35.0535 208.642 35.0328 208.563 35.0244L208.813 35.0077C208.58 35.0286 208.555 34.9702 208.455 34.9702C208.638 34.9494 208.617 34.9911 208.755 34.9869C208.726 34.9077 208.742 34.9494 208.713 34.8702C208.521 34.841 208.48 34.8952 208.259 34.8869C208.209 34.8536 208.034 34.8286 208.18 34.7786L207.959 34.8078C207.784 34.7536 207.805 34.7119 208.026 34.6452C207.105 34.466 206.488 34.5036 206.105 34.5744C205.717 34.6452 205.559 34.7452 205.559 34.7452C205.084 34.9577 205.734 34.9952 205.921 35.2036L205.93 35.1869Z" fill="#B6DB65"/>
<path d="M196.721 38.3728C196.829 38.4478 196.942 38.2727 196.908 38.3019C196.875 38.2311 196.754 38.3645 196.721 38.3728Z" fill="#ABD64F"/>
<path d="M198.53 40.7577C198.505 40.8827 198.446 40.666 198.53 40.7577Z" fill="#ABD64F"/>
<path d="M199.438 42.0512C199.492 42.0221 199.538 41.9054 199.592 41.8429L199.459 41.793C199.459 41.868 199.504 41.9846 199.434 42.0512H199.438Z" fill="#ABD64F"/>
<path d="M199.592 41.85L199.788 41.9251C199.7 41.7917 199.638 41.8 199.592 41.85Z" fill="#ABD64F"/>
<path d="M199.855 42.5977L199.68 42.606L199.963 42.6143L199.855 42.5977Z" fill="#ABD64F"/>
<path d="M200.159 42.9414C200.018 42.9581 200.063 43.1497 199.955 43.1331C200.047 43.2164 200.197 43.2372 200.33 43.2539C200.226 43.2081 200.172 43.1122 200.163 42.9414H200.159Z" fill="#ABD64F"/>
<path d="M200.53 43.2877C200.476 43.2669 200.401 43.2586 200.326 43.2461C200.38 43.2711 200.447 43.2877 200.53 43.2877Z" fill="#ABD64F"/>
<path d="M199.9 42.4008L199.996 42.2342C199.996 42.2342 199.967 42.1966 199.954 42.1758C199.934 42.2091 199.871 42.2925 199.9 42.3966V42.4008Z" fill="#ABD64F"/>
<path d="M200 42.2305C200.042 42.3013 200.075 42.3429 200.087 42.3637C200.075 42.3471 200.05 42.3096 200.004 42.2305H200Z" fill="#ABD64F"/>
<path d="M199.941 42.1676L199.954 42.1801C199.954 42.1801 199.966 42.1551 199.941 42.1676Z" fill="#ABD64F"/>
<path d="M199.838 41.8729L200.063 41.9562L199.975 41.7812C199.942 41.8146 199.909 41.8812 199.838 41.8729Z" fill="#ABD64F"/>
<path d="M200.167 41.9985L200.062 41.9609L200.096 42.0235L200.167 41.9985Z" fill="#ABD64F"/>
<path d="M200.458 42.9305C200.57 42.9472 200.629 43.0138 200.704 43.0846C200.662 42.9763 200.608 42.8763 200.541 42.793C200.487 42.8138 200.379 42.8388 200.458 42.9305Z" fill="#ABD64F"/>
<path d="M200.246 42.5817L200.267 42.5901C200.267 42.5901 200.267 42.5609 200.246 42.5817Z" fill="#ABD64F"/>
<path d="M201.325 43.8771C201.325 43.8771 201.337 43.8563 201.341 43.8438L201.316 43.8604L201.329 43.8771H201.325Z" fill="#ABD64F"/>
<path d="M200.559 42.7603C200.534 42.6728 200.471 42.6643 200.4 42.6602C200.45 42.6977 200.5 42.7394 200.546 42.7935C200.571 42.7852 200.584 42.7728 200.563 42.7603H200.559Z" fill="#ABD64F"/>
<path d="M200.77 43.46C200.77 43.4016 200.77 43.3474 200.757 43.2891C200.741 43.3557 200.724 43.4766 200.77 43.46Z" fill="#ABD64F"/>
<path d="M200.246 42.6406H200.234C200.221 42.6823 200.234 42.6656 200.246 42.6406Z" fill="#ABD64F"/>
<path d="M200.246 42.6402C200.292 42.6568 200.346 42.6568 200.4 42.6568C200.359 42.6277 200.313 42.6026 200.267 42.5859C200.267 42.6026 200.254 42.6235 200.246 42.636V42.6402Z" fill="#ABD64F"/>
<path d="M201.129 43.55L201.067 43.5C201.1 43.5875 201.088 43.6792 201.059 43.85C201.2 43.9 201.267 43.8834 201.317 43.8584L201.1 43.5459H201.138L201.129 43.55Z" fill="#ABD64F"/>
<path d="M201.275 43.957L201.1 44.0445L201.42 44.0153L201.275 43.957Z" fill="#ABD64F"/>
<path d="M201.4 44.3495L201.546 44.3703L201.542 44.2578L201.4 44.3495Z" fill="#ABD64F"/>
<path d="M209.055 49.7429C209.28 49.7096 209.621 49.6679 209.471 49.5596L209.305 49.4805C209.23 49.6221 209.142 49.7013 209.059 49.7429H209.055Z" fill="#ABD64F"/>
<path d="M204.117 47.4242C204.13 47.5575 204.163 47.645 204.205 47.7117C204.205 47.5408 204.255 47.3575 204.117 47.4242Z" fill="#ABD64F"/>
<path d="M217.524 39.1042C217.532 39.0417 217.503 39.0167 217.449 39.025C217.437 39.0875 217.453 39.1251 217.524 39.1042Z" fill="#ABD64F"/>
<path d="M204.203 47.7109C204.203 47.8359 204.241 47.9568 204.407 47.9693C204.407 47.9443 204.407 47.9234 204.407 47.8942C204.332 47.8484 204.261 47.7984 204.207 47.7109H204.203Z" fill="#ABD64F"/>
<path d="M198.766 36.8449C198.803 36.8324 198.861 36.8324 198.92 36.8324C198.891 36.8199 198.845 36.8199 198.766 36.8449Z" fill="#ABD64F"/>
<path d="M202.472 45.565C202.447 45.565 202.409 45.5067 202.472 45.565Z" fill="#ABD64F"/>
<path d="M202.455 45.418C202.455 45.4555 202.463 45.4971 202.48 45.5346C202.48 45.5138 202.472 45.4763 202.455 45.418Z" fill="#ABD64F"/>
<path d="M202.4 45.481C202.388 45.4518 202.38 45.431 202.367 45.4102C202.338 45.4185 202.33 45.4393 202.4 45.481Z" fill="#ABD64F"/>
<path d="M202.548 45.6521C202.515 45.6146 202.494 45.5771 202.477 45.5312C202.477 45.5521 202.477 45.5646 202.465 45.5646C202.482 45.5813 202.506 45.6063 202.544 45.6521H202.548Z" fill="#ABD64F"/>
<path d="M218.454 37.018L218.596 36.9554C218.187 36.9096 217.754 37.0597 217.375 37.2097C217.341 37.168 217.504 37.1055 217.562 37.0763C217.096 36.943 216.896 36.9721 216.067 37.2805L216.208 37.0763C216.079 37.1346 215.921 37.0555 215.65 36.9846C215.387 36.918 214.991 36.8638 214.621 36.9846C214.633 36.9596 214.658 36.9222 214.721 36.893C214.508 36.9513 214.308 36.9472 214.091 36.9138C213.941 36.8805 213.804 36.8263 213.671 36.7846C213.404 36.7013 213.179 36.6846 213.083 37.0596L212.746 37.243C213.183 37.3055 212.679 37.568 212.858 37.693C212.687 37.7346 212.417 37.4638 212.625 37.4263L212.658 37.4638C212.737 37.0721 212.117 37.3221 212.129 37.0554C211.267 37.0679 210.429 36.8472 209.625 36.8222L209.716 37.1263L209.437 37.1055C209.362 37.0347 209.342 36.868 209.542 36.8805C209.437 36.7055 209.204 37.0221 209.2 37.0888C208.808 36.9638 209.354 36.7346 209.237 36.7263L209.075 36.7471L209.112 36.7846C208.979 36.9096 208.967 37.0388 208.725 37.0222C208.571 36.9597 208.65 36.8347 208.587 36.8222C208.587 36.8014 208.567 36.7888 208.496 36.8138L208.142 36.7846L208.271 37.0055C208.154 37.0597 207.808 37.0221 207.475 37.0388C207.137 37.0221 206.792 37.0597 206.675 37.0055L206.804 36.7846L206.45 36.8138C206.379 36.793 206.358 36.8014 206.358 36.8222C206.3 36.8347 206.375 36.9597 206.221 37.0222C205.979 37.0388 205.967 36.9055 205.833 36.7846L205.871 36.7471L205.708 36.7263C205.587 36.7346 206.137 36.9638 205.746 37.0888C205.742 37.0221 205.508 36.7055 205.4 36.8805C205.541 36.8721 205.571 36.9513 205.546 37.0263C205.458 37.0013 205.362 36.9722 205.287 36.9013L205.312 36.8222C205.287 36.8222 205.262 36.8264 205.237 36.8264C205.225 36.8097 205.212 36.7971 205.204 36.7805C205.217 36.7971 205.221 36.8138 205.225 36.8304C204.879 36.8471 204.529 36.8929 204.175 36.9388C203.829 36.9054 203.45 36.7555 203.062 36.8013C203.054 36.8638 203.112 36.9513 203.062 37.0429C203.037 37.0429 203.008 37.0429 202.983 37.0429L202.725 36.7263C202.612 36.7596 202.617 37.1472 202.417 36.893C202.446 36.9555 202.487 37.0471 202.412 37.0721C202.217 37.0096 202.017 36.9763 201.817 36.9596C201.708 36.6846 201.5 36.7055 201.262 36.7763C201.129 36.818 200.992 36.8722 200.842 36.9055C200.625 36.9388 200.425 36.943 200.212 36.8846C200.275 36.9138 200.3 36.9513 200.312 36.9763C200.083 36.9013 199.846 36.8972 199.633 36.9222C199.425 36.8722 199.212 36.793 199.008 36.668C199.162 36.8096 199.058 36.8263 198.941 36.8304C199.008 36.8596 198.958 36.9805 198.954 37.0763C198.937 37.0805 198.921 37.0805 198.904 37.0846L198.479 36.8346C198.408 37.0554 198.129 36.9347 197.992 37.0138C197.779 36.9847 197.612 37.0138 197.379 37.0763C197.437 37.1096 197.6 37.168 197.567 37.2097C197.187 37.0597 196.754 36.9096 196.346 36.9554L196.487 37.018L195.908 36.9972L196.017 37.1471C196.667 37.4429 196.633 37.5597 196.675 37.7513C196.708 37.9347 196.825 38.2138 197.45 38.4346C197.221 38.4471 197.462 38.8429 197.496 39.0221C197.533 39.0263 197.583 39.043 197.65 39.0763C197.5 39.1638 197.683 39.3472 197.892 39.5055C198.108 39.668 198.35 39.8055 198.421 39.9222C198.454 40.0972 198.296 40.068 198.117 40.0222C198.396 40.1555 198.491 40.3888 198.579 40.6513C198.591 40.6888 198.604 40.7263 198.617 40.7638C198.6 40.7513 198.579 40.7388 198.558 40.718C198.558 40.7388 198.554 40.743 198.55 40.7555C198.567 40.7763 198.587 40.8013 198.617 40.8513C198.625 40.843 198.629 40.8346 198.637 40.8305C198.658 40.8971 198.679 40.9596 198.7 41.0138C198.717 41.0554 198.733 41.0929 198.746 41.1221C198.75 41.1304 198.758 41.1305 198.767 41.1346C198.767 41.2013 198.804 41.2847 198.746 41.2763C198.887 41.368 198.921 41.3055 198.95 41.1722C198.987 41.1472 199.029 41.1097 199.067 41.0763L199.133 41.1054C199.154 41.0638 199.2 41.018 199.104 41.0471C199.125 41.0305 199.146 41.0179 199.171 41.0096C199.196 41.0554 199.196 41.0971 199.183 41.1305L199.129 41.1054C199.117 41.1304 199.125 41.1471 199.175 41.1471C199.104 41.3055 198.779 41.3638 199.137 41.4847C199.129 41.4305 199.092 41.3513 199.142 41.3513C199.254 41.4221 199.758 41.2721 199.937 41.3263C199.862 41.3721 199.829 41.4596 199.658 41.4304C199.729 41.4388 199.817 41.4721 199.883 41.468C199.958 41.5721 200.129 41.6054 200.262 41.6471C200.254 41.7013 200.246 41.7471 200.233 41.7763C200.262 41.7388 200.283 41.6971 200.308 41.6596C200.425 41.6971 200.487 41.7471 200.358 41.8763L200.187 41.9805C200.696 42.1846 200.254 42.1888 200.742 42.418L200.762 42.393C200.866 42.5805 201.133 42.5138 200.946 42.7971L200.866 42.7679C200.933 42.8679 200.975 42.918 201.017 42.968C200.992 42.968 200.967 42.968 200.942 42.9555C201.204 43.218 200.796 42.9346 200.883 43.2054C200.817 43.1679 200.767 43.1221 200.725 43.0804C200.75 43.1471 200.767 43.2139 200.779 43.2805V43.268C200.787 43.2388 200.796 43.2263 200.796 43.2513C200.796 43.2513 200.8 43.2513 200.804 43.2513C200.825 43.2388 200.846 43.2305 200.866 43.2221C200.904 43.3305 200.842 43.2638 200.804 43.2513C200.796 43.2555 200.787 43.2597 200.779 43.2638L201.083 43.493C201.054 43.418 200.991 43.343 200.866 43.218C200.991 43.1763 201.112 43.2055 201.2 43.1638C201.208 43.1722 201.212 43.1804 201.225 43.1888C201.221 43.2304 201.267 43.3638 201.342 43.3513C201.242 43.4388 201.317 43.5763 201.421 43.7054C201.396 43.7513 201.371 43.7929 201.354 43.8346C201.392 43.8096 201.433 43.7847 201.504 43.793C201.596 43.8847 201.687 43.9597 201.721 43.993C201.617 43.8055 201.771 43.8097 201.892 43.7888C201.8 44.0222 201.837 44.1054 202.066 44.1388C201.983 44.2179 201.896 44.3013 201.829 44.3846C201.808 44.3596 201.796 44.3347 201.783 44.3055C201.687 44.4805 201.762 44.4138 201.758 44.4888C201.683 44.618 201.667 44.7513 201.771 44.893C201.775 44.8221 201.746 44.7388 201.821 44.7222C201.896 44.7055 201.887 44.8138 201.883 44.8513C201.942 44.8388 201.942 44.7638 201.992 44.7097C202.004 44.7263 202.017 44.7429 202.029 44.7596C202.012 44.9263 202.1 44.9929 202.204 45.0763C202.229 45.1513 202.25 45.2304 202.208 45.3888C202.271 45.3304 202.287 45.2263 202.375 45.4055C202.4 45.3971 202.437 45.3929 202.458 45.3929C202.458 45.4013 202.458 45.4013 202.458 45.4055V45.3888C202.458 45.3888 202.479 45.3888 202.458 45.3846C202.458 45.3263 202.471 45.268 202.496 45.2263C202.521 45.2222 202.55 45.2222 202.575 45.2263C202.475 45.4097 203.125 45.3346 202.704 45.5263C202.825 45.5888 202.933 45.6763 203.042 45.7722C203.004 45.8972 202.992 46.0096 202.812 45.9096L202.958 46.1096C202.967 46.2888 203.058 46.4721 203.196 46.5221C203.237 46.6388 203.541 46.6263 203.362 46.6388L203.696 46.8721L203.662 46.9055C203.883 47.2222 204.396 47.3346 204.404 47.8929C204.521 47.9638 204.65 48.0346 204.742 48.2388L204.642 48.3722C204.787 48.468 204.825 48.8638 205 48.8179C204.887 49.0304 204.979 49.1846 205.15 49.3638C205.417 49.668 205.717 49.9429 205.858 50.1846L205.987 50.0055C206.192 50.2846 206.429 50.4888 206.704 50.7013L206.725 50.568C206.771 50.6555 206.817 50.7513 206.867 50.8513C207.037 51.1972 207.254 51.5888 207.45 51.6055C207.45 51.6055 207.45 51.6055 207.45 51.6097C207.454 51.6097 207.458 51.6097 207.462 51.6097C207.467 51.6097 207.471 51.6097 207.475 51.6097C207.475 51.6097 207.475 51.6097 207.475 51.6055C207.671 51.5847 207.887 51.193 208.058 50.8513C208.246 50.4805 208.383 50.1596 208.625 50.0971C208.683 49.9138 208.758 49.8638 208.846 49.8263C208.837 49.8388 208.833 49.8513 208.829 49.8638C208.842 49.8554 208.854 49.8388 208.867 49.818C208.925 49.7972 208.987 49.7764 209.054 49.743C208.987 49.7555 208.929 49.768 208.887 49.7888C208.954 49.6971 209.05 49.543 209.121 49.3805L209.3 49.4763C209.3 49.4763 209.312 49.4554 209.321 49.4429C209.483 49.3596 209.337 49.2721 209.175 49.2304C209.204 49.1429 209.217 49.0638 209.217 48.9888C209.546 49.0972 209.312 48.6971 209.658 48.8179C209.571 48.6554 209.892 48.3263 209.654 48.0597C209.692 48.0847 209.729 48.0763 209.696 48.1221C209.8 48.0555 209.908 47.9888 209.896 47.8472L210.125 47.968L210.021 47.5514C210.242 47.5264 210.35 47.5346 210.404 47.7763C210.404 47.2971 210.508 47.468 210.475 47.0347L210.592 47.1513C210.658 47.0596 210.6 46.7805 210.75 46.8097C211.154 46.8097 211.575 45.8596 212.212 45.5346C211.754 45.3263 212.571 45.4346 212.296 45.1804C212.408 45.2221 212.516 45.193 212.529 45.3388C212.65 45.0097 212.987 45.0638 212.883 44.6846C212.996 44.7263 212.971 44.8471 213.046 44.8638C213.046 44.8263 213.033 44.718 213.108 44.7347C213.183 44.7513 213.154 44.8346 213.158 44.9055C213.358 44.6305 213.104 44.3805 212.862 44.1513C213.092 44.118 213.129 44.0347 213.037 43.8014C213.158 43.8222 213.312 43.818 213.208 44.0055C213.296 43.9222 213.787 43.5388 213.592 43.3638C213.667 43.3763 213.712 43.2471 213.708 43.2013C213.887 43.0054 213.921 43.0013 214.067 42.7804L213.987 42.8096C213.804 42.5263 214.071 42.593 214.171 42.4055L214.192 42.4305C214.675 42.2013 214.237 42.1971 214.746 41.993L214.575 41.8888C214.271 41.5846 215.037 41.718 215.087 41.4013H214.937C214.917 41.1972 215.658 41.4471 215.796 41.3596C215.846 41.3596 215.808 41.4388 215.8 41.493C216.25 41.343 215.629 41.2888 215.766 41.0179C215.912 41.0638 216 41.2971 216.146 41.1596C216.167 41.1596 216.179 41.1471 216.192 41.1263C216.204 41.0971 216.221 41.0596 216.237 41.0179C216.279 40.9138 216.317 40.7805 216.362 40.6555C216.45 40.393 216.546 40.1597 216.825 40.0263C216.646 40.0763 216.483 40.1013 216.521 39.9263C216.592 39.8055 216.833 39.6722 217.05 39.5097C217.262 39.3513 217.442 39.1722 217.292 39.0805C217.358 39.0472 217.408 39.0304 217.446 39.0263C217.475 38.8471 217.721 38.4555 217.492 38.4388C218.117 38.2138 218.233 37.9388 218.266 37.7555C218.304 37.5638 218.275 37.4471 218.925 37.1513L219.033 37.0013L218.454 37.0222V37.018ZM202.279 43.8888C202.283 43.8638 202.287 43.8305 202.292 43.8014C202.242 43.9139 202.192 43.9972 202.129 43.993L202.042 43.6888C202.121 43.693 202.212 43.7097 202.3 43.6972C202.3 43.7305 202.296 43.768 202.292 43.8014C202.308 43.768 202.325 43.7305 202.337 43.693C202.362 43.6888 202.387 43.6763 202.412 43.6638L202.496 43.768C202.442 43.8513 202.375 43.9055 202.279 43.8847V43.8888ZM203.354 44.8596C203.354 44.8596 203.346 44.8638 203.342 44.8679C203.337 44.8554 203.329 44.8388 203.325 44.8263L203.354 44.8638V44.8596ZM206.842 49.293L206.879 49.3429C206.867 49.3846 206.85 49.4263 206.837 49.468C206.837 49.4096 206.837 49.3513 206.837 49.2972L206.842 49.293ZM208.037 49.3471L208.075 49.3013C208.075 49.3513 208.075 49.4013 208.075 49.4513C208.062 49.4179 208.05 49.3804 208.042 49.3429L208.037 49.3471ZM199.975 41.4013C199.975 41.4013 199.975 41.3972 199.975 41.393C199.975 41.393 199.975 41.393 199.975 41.4013ZM203.167 46.193C203.167 46.193 203.175 46.193 203.179 46.193C203.204 46.3513 203.196 46.293 203.167 46.193ZM207.5 51.5346C207.5 51.5346 207.508 51.5138 207.512 51.5013L207.496 51.5429C207.496 51.5429 207.475 51.568 207.462 51.5763C207.45 51.568 207.437 51.5554 207.429 51.5429L207.412 51.5013C207.412 51.5013 207.421 51.5221 207.425 51.5346C207.391 51.4971 207.358 51.4472 207.35 51.3763C207.358 51.3888 207.371 51.4013 207.379 51.4138C207.404 51.4513 207.425 51.4929 207.45 51.5263C207.454 51.5221 207.458 51.5139 207.462 51.5097C207.467 51.5139 207.471 51.5221 207.475 51.5263C207.5 51.4888 207.521 51.4513 207.546 51.4138C207.554 51.4013 207.567 51.393 207.575 51.3763C207.567 51.4472 207.533 51.4971 207.5 51.5346ZM208.546 36.8972L208.6 36.9513C208.475 37.0096 208.508 36.9555 208.546 36.8972ZM209.721 47.2721L209.854 47.1097L210.012 47.5055C209.95 47.4346 209.841 47.3555 209.721 47.2763V47.2721ZM212.791 43.993C212.733 43.9972 212.683 43.9139 212.629 43.8014C212.629 43.8347 212.633 43.8638 212.641 43.8888C212.583 43.9013 212.533 43.8805 212.492 43.8471L212.596 43.7221C212.608 43.7471 212.621 43.7764 212.629 43.8014C212.629 43.768 212.625 43.7263 212.621 43.6888L212.667 43.6305C212.762 43.6388 212.846 43.643 212.892 43.6388L212.787 43.993H212.791Z" fill="#ABD64F"/>
<path d="M201.859 44.9373L202.014 45.0498C201.951 44.9873 201.968 44.9331 201.964 44.8789C201.93 44.9122 201.897 44.979 201.859 44.9373Z" fill="#ABD64F"/>
<path d="M202.748 45.6984C202.748 45.6234 202.556 45.8026 202.586 45.7318C202.373 45.811 203.04 45.8901 202.748 45.6984Z" fill="#ABD64F"/>
<path d="M198.141 36.6113L197.975 36.5195L198.083 36.6654L198.141 36.6113Z" fill="#ABD64F"/>
<path d="M197.814 36.9232L197.776 36.6523L197.672 36.8982C197.709 36.8857 197.784 36.8649 197.814 36.9232Z" fill="#ABD64F"/>
<path d="M197.395 39.1042C197.466 39.1209 197.483 39.0875 197.47 39.025C197.412 39.0167 197.383 39.0417 197.395 39.1042Z" fill="#ABD64F"/>
</svg>
