<svg width="45" height="58" viewBox="0 0 45 58" fill="none" xmlns="http://www.w3.org/2000/svg">
<path d="M3.55259 1.98828H3.46094C3.5026 1.99661 3.54009 1.99661 3.55259 1.98828Z" fill="#B6DB65"/>
<path d="M3.26562 5.68359C3.26562 5.68359 3.27815 5.6836 3.28648 5.68776C3.27815 5.68776 3.27396 5.68776 3.26562 5.68359Z" fill="#B6DB65"/>
<path d="M0.419291 2.25444C0.419291 2.25444 0.406771 2.25026 0.398438 2.24609L0.419291 2.25444Z" fill="#B6DB65"/>
<path d="M0.739948 1.52286C0.610782 1.71036 0.177456 1.71869 0.331623 1.94369C0.28579 2.03953 0.37332 2.15203 0.414987 2.25619C0.744154 2.33536 0.40666 2.38119 0.68166 2.46453H0.489959C0.581625 2.49369 0.644123 2.52287 0.539956 2.53121L0.485788 2.52287C0.627454 2.56453 0.535804 2.58952 0.606637 2.61035L0.552469 2.60201L0.573322 2.63949L0.494129 2.62703C0.639963 2.68953 0.644156 2.73953 0.573322 2.77703L0.802458 2.79371C0.539959 2.86454 1.00663 2.94371 0.698292 2.99787L0.644123 2.98953C1.23579 3.15203 0.219152 3.12285 0.777485 3.28535C0.706652 3.26451 0.6608 3.28117 0.602467 3.27284C0.664967 3.33117 0.689983 3.3895 1.13998 3.43117C1.13165 3.46867 0.998312 3.44785 0.823312 3.43951C1.01915 3.45618 1.09828 3.49783 1.10662 3.527L1.03165 3.50619L1.08998 3.59368L1.46082 3.61036C1.34832 3.64369 1.00666 3.58116 1.09416 3.63116L1.40248 3.65619C1.33582 3.71035 0.869115 3.70617 0.635782 3.74784C0.481615 3.98534 1.24416 4.31453 0.68583 4.50203L0.452473 4.49369C0.114973 4.47286 0.948282 4.59784 0.635782 4.58117L0.785826 4.61866C0.723326 4.61866 0.660784 4.63121 0.585784 4.61454C0.569117 4.63954 0.627487 4.64371 0.727487 4.66871L0.514983 4.68117C0.34415 4.76867 0.744131 4.88121 0.652465 4.97704C0.214965 5.06871 0.594133 5.33536 0.8108 5.48119C1.30247 5.70202 -0.0558545 5.83954 0.510812 6.0687C0.460812 6.0687 0.569137 6.09368 0.606637 6.09785L0.548298 6.27287C0.548298 6.27287 0.506637 6.48953 0.814971 6.63536C1.12747 6.78536 1.78997 6.85617 3.20663 6.61034L3.27748 6.61868C3.46082 6.53535 3.50245 6.477 3.13578 6.39366C3.58995 6.40616 3.18582 6.31868 3.33582 6.30618H3.37331C3.02748 6.23535 3.66913 6.21034 3.3608 6.1395C3.3983 6.14367 3.51914 6.15203 3.52747 6.16453C3.47331 6.12286 3.37332 6.06037 3.63998 6.07287C3.57748 5.97287 3.70666 5.84787 3.29 5.76037L3.3608 5.76866C3.07746 5.7145 3.32333 5.72284 3.18166 5.67284C3.21499 5.67284 3.23579 5.67284 3.24829 5.67284C2.96912 5.61451 3.21079 5.56034 3.09413 5.51867L3.26914 5.52702L3.23166 5.44787L3.19412 5.47285C2.71079 5.43118 3.49829 5.43534 3.19412 5.36034C3.25662 5.31451 2.19831 5.18534 2.43998 5.14784C2.21498 5.10617 2.80664 5.19784 2.6358 5.14784C2.8858 5.1645 2.78996 5.17703 2.99413 5.1812C2.87746 5.13537 3.25662 5.13954 3.08995 5.08121L3.28583 5.09367C2.93166 5.00617 3.55247 4.99783 3.21497 4.93533C3.05664 4.86033 3.7983 4.93534 3.41914 4.84368H3.68581C3.73164 4.81451 3.36499 4.79371 3.49416 4.77288C3.66083 4.78954 3.63164 4.74371 3.78581 4.77288C4.05247 4.72288 3.42746 4.60203 3.87329 4.54786C3.55246 4.50203 3.74829 4.47285 3.50662 4.43535C3.64829 4.44368 3.53581 4.34367 3.83997 4.42284C3.86497 4.43117 3.86082 4.43535 3.80249 4.43118L3.99414 4.45203C4.36081 4.4312 3.8025 4.33953 3.86083 4.2937C3.79416 4.30203 3.81081 4.32704 3.68164 4.30204L3.71078 4.25616L3.87329 4.28119L3.97329 4.21868L3.77329 4.21034C3.87746 4.18534 4.21914 4.20203 3.93997 4.13953C3.78164 4.1062 3.66912 4.14784 3.60662 4.10617C3.74828 4.07284 3.96078 4.01868 4.02328 3.96452C3.79828 3.95202 3.80662 3.93535 3.76078 3.91452L3.95665 3.9312C3.68999 3.8437 4.38995 3.94785 4.17745 3.86452L4.31498 3.8812L3.90666 3.82703C3.52332 3.73537 4.31498 3.8312 3.78998 3.72287C3.81914 3.75203 3.35666 3.69787 3.44416 3.67287L3.63164 3.69784C3.59414 3.67701 3.51495 3.66452 3.55662 3.65619C3.65662 3.67702 3.83166 3.68535 3.80249 3.65619L4.0358 3.69367L3.69415 3.61453C3.89832 3.59786 3.65245 3.5145 3.91912 3.527C3.91912 3.527 4.05662 3.46037 3.76495 3.41454C3.94412 3.44787 4.01916 3.41035 4.2275 3.44368C4.02333 3.40618 3.86079 3.327 4.08162 3.327L4.10665 3.33535C4.33998 3.26868 3.81497 3.15621 4.09414 3.10204C3.86497 3.08537 3.99416 3.05202 3.70249 3.03536C3.42333 2.92702 4.30663 2.93952 3.41497 2.82285C3.36913 2.78119 3.62747 2.79787 3.67747 2.78537L3.7233 2.79783C3.65663 2.71866 3.6483 2.69784 3.67747 2.64784C3.59414 2.6145 3.17749 2.56871 3.28166 2.53121C3.44416 2.56454 3.41497 2.53953 3.41914 2.52287C3.44414 2.53537 3.50246 2.54783 3.61913 2.53533C3.56913 2.52699 3.53579 2.51869 3.51079 2.51035C3.52329 2.51035 3.53578 2.51035 3.55245 2.51035C3.49828 2.47702 3.44414 2.477 3.41914 2.48533C3.39414 2.48533 3.3608 2.48121 3.31497 2.48121C3.53164 2.47288 3.31082 2.3937 3.59416 2.4187C3.53582 2.32287 3.24829 2.23119 3.14829 2.14786C3.29413 2.15619 3.42331 2.18537 3.47748 2.21037L3.42748 2.15203C3.63581 2.17286 3.54415 2.1937 3.58581 2.21454C3.93165 2.18537 3.26081 2.05204 3.57747 2.01037L3.4108 1.97701H3.43999C3.35249 1.96867 3.2358 1.93951 3.20663 1.92284C3.38997 1.93117 3.62747 1.96451 3.6233 1.93118C3.80247 1.91868 3.54412 1.83953 3.44828 1.7937C3.41495 1.81037 3.31496 1.79368 3.25246 1.77702C3.24829 1.76035 3.43163 1.76453 3.35663 1.7437L3.6025 1.76867C3.36916 1.75201 3.35663 1.69785 3.25663 1.67702C3.43996 1.68535 3.41083 1.72286 3.54833 1.73953C3.53166 1.66453 3.53997 1.70202 3.5233 1.62702C3.33997 1.56869 3.28999 1.61035 3.07332 1.56868C3.02749 1.53118 2.86081 1.47701 3.01081 1.45617L2.78997 1.44783C2.62747 1.3645 2.65662 1.33118 2.88162 1.31035C1.14412 0.647852 0.448302 0.960366 0.448302 0.960366C-0.0558647 1.09787 0.573312 1.26451 0.719146 1.50617L0.739948 1.52286Z" fill="#B6DB65"/>
<path d="M3.96591 15.4805L3.88672 15.5305C3.92839 15.518 3.96175 15.5013 3.96591 15.4805Z" fill="#B6DB65"/>
<path d="M7.05859 21.5981C7.05859 21.5981 7.07111 21.5982 7.07945 21.5898C7.07111 21.5898 7.06276 21.5898 7.05859 21.5981Z" fill="#B6DB65"/>
<path d="M1.13537 15.8995C1.13537 16.3287 0.76035 16.562 1.06035 16.937C1.09368 17.1495 1.25618 17.3328 1.37285 17.5078C1.71868 17.487 1.46872 17.762 1.77288 17.7703L1.61038 17.8787C1.71455 17.8787 1.78954 17.9037 1.71037 17.9745L1.65621 17.9912C1.81037 17.9912 1.75618 18.087 1.83534 18.087L1.78118 18.1037L1.83122 18.162L1.75203 18.1787C1.9312 18.2203 1.97702 18.312 1.94785 18.4245L2.15619 18.3286C1.99785 18.6078 2.46034 18.4912 2.25201 18.7745L2.20201 18.7953C2.84368 18.7536 1.97287 19.2911 2.58954 19.262C2.51454 19.2661 2.48954 19.3245 2.43537 19.3453C2.53954 19.412 2.62289 19.4995 3.02706 19.3078C3.05622 19.3786 2.92701 19.4245 2.77701 19.512C2.95201 19.4245 3.05619 19.4495 3.09369 19.4953L3.01454 19.5037L3.14785 19.6245L3.46453 19.4287C3.41036 19.5537 3.06868 19.6536 3.18951 19.687L3.46453 19.5453C3.46453 19.6828 3.08535 19.9578 2.93952 20.1745C3.06452 20.6953 4.01037 20.7704 3.78537 21.4412L3.59789 21.5787C3.31455 21.762 4.0937 21.4286 3.83536 21.6078L3.9937 21.5745C3.95203 21.6203 3.91453 21.6787 3.83536 21.6995C3.85203 21.7495 3.89788 21.7203 4.00621 21.6995L3.85622 21.8579C3.82705 22.1162 4.2562 22.0412 4.30203 22.2578C4.0812 22.7037 4.67702 22.8786 5.01868 22.962C5.64368 22.9703 4.81872 24.1245 5.52288 24.087C5.49372 24.1245 5.59788 24.087 5.62705 24.062L5.80619 24.3703C5.80619 24.3703 6.04788 24.7286 6.46038 24.7328C6.87705 24.7411 7.43952 24.3745 8.14785 23.0245L8.21036 22.987C8.23953 22.737 8.20202 22.6245 7.83535 22.7578C8.18119 22.462 7.78122 22.612 7.87289 22.4911L7.90621 22.4703C7.56454 22.5953 8.00203 22.1161 7.68953 22.2245C7.72286 22.2078 7.82286 22.1328 7.8437 22.1453C7.75203 22.1203 7.60622 22.0995 7.81872 21.9328C7.65622 21.8287 7.60618 21.5578 7.19784 21.7078L7.26035 21.6703C6.98952 21.7828 7.17703 21.6245 7.01453 21.6495C7.03953 21.6245 7.05203 21.612 7.06453 21.6036C6.7937 21.7078 6.90622 21.4578 6.77288 21.4787L6.91454 21.3745L6.79786 21.2787V21.3453C6.38952 21.6036 6.98538 21.0828 6.66872 21.1745C6.66455 21.062 5.72286 21.5703 5.86036 21.3495C5.64369 21.4328 6.18951 21.1828 6.00618 21.2162C6.21451 21.0745 6.15618 21.1578 6.31451 21.0328C6.17701 21.037 6.46452 20.7953 6.27285 20.812L6.43536 20.7037C6.06869 20.8037 6.53539 20.3829 6.20622 20.5037C6.00622 20.4912 6.65618 20.1287 6.26868 20.2287L6.46868 20.0495C6.47701 19.9828 6.17288 20.187 6.25205 20.0745C6.39788 19.9912 6.32702 19.9411 6.48119 19.887C6.63952 19.6411 6.02702 19.8537 6.32285 19.4828C6.02285 19.6162 6.14787 19.4453 5.92287 19.5412C6.0437 19.4662 5.85619 19.3828 6.17286 19.312C6.19786 19.3078 6.20206 19.3203 6.15206 19.3495L6.32285 19.262C6.59369 18.9995 6.06035 19.212 6.06452 19.0995C6.02285 19.1536 6.05621 19.1787 5.92704 19.2245L5.90619 19.1328L6.05618 19.0703L6.07703 18.912L5.91036 19.0245C5.96869 18.9162 6.26037 18.737 5.97287 18.8078C5.8187 18.8537 5.76455 18.9911 5.67705 18.9578C5.75622 18.8161 5.88122 18.6078 5.88538 18.4828C5.68955 18.5953 5.68122 18.5662 5.62705 18.562L5.80202 18.4703C5.50619 18.4912 6.1687 18.237 5.92287 18.2328L6.04789 18.1787L5.66871 18.337C5.27704 18.4162 6.01034 18.1078 5.48118 18.237C5.53118 18.262 5.10205 18.4495 5.15205 18.3578L5.32701 18.287C5.27701 18.2745 5.20202 18.3036 5.22702 18.2661C5.32702 18.237 5.48118 18.1537 5.43118 18.1287L5.6562 18.0537L5.30621 18.1287C5.46038 17.9828 5.18538 17.9953 5.41455 17.8578C5.41455 17.8578 5.47287 17.6745 5.1937 17.7662C5.37287 17.7162 5.40203 17.6161 5.6062 17.5495C5.4062 17.6036 5.20202 17.5703 5.38952 17.4411H5.41455C5.56038 17.2036 5.02701 17.3078 5.21868 17.0703C5.01034 17.162 5.09787 17.0453 4.83537 17.1745C4.51037 17.1411 5.28538 16.7036 4.42705 16.9786C4.35622 16.9328 4.5937 16.8287 4.62287 16.7787H4.67287C4.56037 16.6828 4.53537 16.6495 4.52287 16.5536C4.42287 16.537 4.02703 16.6745 4.0937 16.5536C4.26036 16.5245 4.2187 16.4995 4.2062 16.4703C4.23954 16.4828 4.29785 16.4703 4.38951 16.3911C4.33951 16.4036 4.30622 16.4036 4.27706 16.4036C4.28956 16.3995 4.29787 16.3953 4.31454 16.387C4.23954 16.3537 4.19368 16.3828 4.18118 16.412C4.15618 16.4203 4.12702 16.4328 4.08535 16.4536C4.26869 16.3286 4.01868 16.3078 4.28952 16.212C4.17702 16.0787 3.86034 16.0578 3.71034 15.9578C3.84784 15.8995 3.9812 15.8912 4.04787 15.912L3.96868 15.837C4.17284 15.7745 4.10203 15.8536 4.15203 15.8703C4.4437 15.662 3.75622 15.7453 4.01872 15.5245L3.85205 15.5453L3.87702 15.5287C3.79369 15.5537 3.66871 15.5578 3.63537 15.5453C3.80621 15.4745 4.04372 15.4287 4.01455 15.3703C4.17289 15.2703 3.88952 15.2495 3.77285 15.2078C3.75202 15.2536 3.65204 15.2662 3.58537 15.2703C3.56871 15.2412 3.74368 15.1745 3.66035 15.1662L3.90205 15.0995C3.67705 15.1745 3.63538 15.0786 3.53538 15.0911C3.71038 15.0245 3.70203 15.1037 3.83953 15.0745C3.78537 14.9495 3.81039 15.012 3.75622 14.887C3.55622 14.862 3.53119 14.9578 3.31036 14.9787C3.24786 14.9287 3.06451 14.9078 3.19368 14.7995L2.98535 14.8745C2.78951 14.7953 2.79786 14.7161 2.99786 14.5828C2.01869 14.3286 1.41038 14.3828 1.04372 14.5328C0.677051 14.6828 0.560371 14.912 0.560371 14.912C0.172871 15.4162 0.847873 15.4787 1.13537 15.8912V15.8995Z" fill="#B6DB65"/>
<path d="M14.6273 29.7227L14.5898 29.8102C14.619 29.7769 14.6357 29.7477 14.6273 29.7227Z" fill="#B6DB65"/>
<path d="M20.2754 34.1102C20.2754 34.1102 20.2837 34.1018 20.2921 34.0977C20.2837 34.0977 20.2796 34.106 20.2754 34.1102Z" fill="#B6DB65"/>
<path d="M13.4583 32.7969C13.4583 32.7969 13.4458 32.8052 13.4375 32.8094L13.4583 32.7969Z" fill="#B6DB65"/>
<path d="M12.4844 31.6162C12.7052 31.962 12.5052 32.3536 12.9302 32.4911C13.0552 32.6453 13.2802 32.7078 13.4594 32.7912C13.7427 32.5953 13.6552 32.9495 13.9177 32.8036L13.8302 32.9745C13.9219 32.9245 13.9928 32.9036 13.9594 33.0036L13.9219 33.0453C14.0552 32.9703 14.0511 33.0745 14.1178 33.037L14.0802 33.0787L14.1469 33.1037L14.0886 33.1578C14.2594 33.1036 14.3427 33.1578 14.3677 33.2661L14.5094 33.0828C14.4927 33.3995 14.8427 33.0745 14.7844 33.4162L14.7469 33.4578C15.2928 33.1245 14.7511 33.9911 15.2802 33.6786C15.2136 33.7161 15.2177 33.7787 15.1802 33.8203C15.3011 33.8328 15.4053 33.8745 15.6844 33.5203C15.7386 33.5703 15.6427 33.6662 15.5427 33.8078C15.6636 33.6537 15.7636 33.6287 15.8177 33.6537L15.7511 33.6953L15.9219 33.7453L16.1261 33.4328C16.1261 33.5703 15.8636 33.8036 15.9844 33.7828L16.1719 33.5411C16.2302 33.662 15.9969 34.0745 15.9469 34.3245C16.251 34.7287 17.1386 34.4162 17.1761 35.1203L17.0552 35.3162C16.8594 35.5912 17.4552 34.987 17.2802 35.2495L17.4136 35.1578C17.3886 35.2162 17.3761 35.287 17.3094 35.3328C17.3427 35.3703 17.3761 35.3287 17.4636 35.2662L17.3802 35.4661C17.4386 35.712 17.8094 35.4828 17.926 35.6661C17.8719 36.1578 18.4761 36.1037 18.8219 36.0662C19.4094 35.862 18.9969 37.212 19.6386 36.9495C19.6219 36.9953 19.7094 36.9245 19.7302 36.8912L19.9886 37.1245C19.9886 37.1245 20.3219 37.3828 20.7094 37.262C21.1011 37.1412 21.5386 36.6287 21.7969 35.1203L21.8427 35.062C21.7886 34.812 21.7178 34.7162 21.4053 34.9537C21.6428 34.5662 21.3094 34.8328 21.3553 34.687L21.3802 34.6578C21.0927 34.887 21.3552 34.2912 21.0886 34.487C21.1136 34.4578 21.1844 34.3578 21.2094 34.3661C21.1135 34.3661 20.9677 34.3912 21.1136 34.1703C20.9219 34.1203 20.7802 33.8745 20.4386 34.1536L20.4886 34.0995C20.2719 34.2953 20.3927 34.0828 20.2469 34.1578C20.2636 34.1286 20.2677 34.1078 20.2802 34.0995C20.0594 34.287 20.076 34.012 19.9594 34.0745L20.0594 33.9287L19.9136 33.8787L19.9386 33.9411C19.6427 34.3245 20.0219 33.6287 19.7552 33.8203C19.7094 33.712 19.0052 34.5161 19.0552 34.262C18.8802 34.4161 19.3052 33.9912 19.1427 34.087C19.2886 33.8828 19.2636 33.9787 19.3636 33.8037C19.2344 33.8578 19.4177 33.5245 19.2427 33.612L19.3552 33.4495C19.0469 33.6703 19.3303 33.112 19.0636 33.3412C18.8719 33.3995 19.3428 32.8245 19.0136 33.0578L19.1302 32.8162C19.1136 32.7495 18.9052 33.0536 18.9344 32.9161C19.0386 32.7828 18.9552 32.7662 19.076 32.6578C19.126 32.3703 18.6344 32.7911 18.7594 32.3328C18.5344 32.5703 18.5802 32.362 18.4094 32.537C18.4927 32.4203 18.2803 32.412 18.5469 32.2245C18.5678 32.2078 18.5803 32.2245 18.5469 32.2662L18.6719 32.1203C18.8136 31.7703 18.4052 32.1703 18.3594 32.062C18.3427 32.1328 18.3844 32.1411 18.2844 32.2286L18.2261 32.1495L18.3386 32.0328L18.2886 31.8745L18.1803 32.0453C18.1886 31.9203 18.3802 31.637 18.1469 31.8161C18.0219 31.9203 18.0302 32.0703 17.9386 32.0745C17.9511 31.912 17.9719 31.6661 17.9178 31.5453C17.7886 31.7286 17.7678 31.7037 17.7136 31.7203L17.8302 31.562C17.5677 31.6995 18.0636 31.1953 17.8302 31.2911L17.9219 31.1911L17.6427 31.4953C17.3136 31.7328 17.8469 31.1412 17.4219 31.4828C17.4802 31.4828 17.1719 31.837 17.1761 31.7328L17.3052 31.5953C17.2552 31.6078 17.1969 31.662 17.2052 31.6162C17.2844 31.5495 17.3844 31.4078 17.3261 31.4036L17.4969 31.237L17.2094 31.4536C17.2802 31.2495 17.0344 31.3787 17.1802 31.1537C17.1802 31.1537 17.1428 30.9578 16.9344 31.162C17.0719 31.0412 17.0511 30.9328 17.2052 30.7828C17.0469 30.9203 16.8469 30.9786 16.9511 30.7786L16.9719 30.7661C16.9802 30.4828 16.5511 30.8203 16.6052 30.512C16.4677 30.6911 16.4802 30.5453 16.3135 30.7828C16.0052 30.9036 16.4677 30.1412 15.8469 30.7953C15.7594 30.787 15.9177 30.5786 15.9177 30.5203L15.9636 30.4953C15.8136 30.4662 15.7761 30.4453 15.7136 30.3661C15.6177 30.3995 15.3427 30.7162 15.3386 30.5787C15.4677 30.4703 15.4219 30.4703 15.3927 30.4495C15.4261 30.4453 15.4719 30.3995 15.5094 30.287C15.4719 30.3203 15.4428 30.3411 15.4178 30.3536C15.4261 30.3453 15.4302 30.3328 15.4427 30.3203C15.3636 30.3287 15.3344 30.3745 15.3427 30.4078C15.3261 30.4245 15.3052 30.4537 15.2802 30.4912C15.3761 30.2912 15.1469 30.3953 15.326 30.1745C15.1552 30.1162 14.8678 30.2578 14.6886 30.2495C14.7719 30.1286 14.8844 30.0495 14.9511 30.037L14.8386 30.012C14.9761 29.8537 14.9635 29.9578 15.0135 29.9453C15.1469 29.6078 14.6052 30.0412 14.7052 29.712L14.5719 29.8203L14.5844 29.7953C14.5261 29.862 14.4219 29.9328 14.3885 29.9411C14.4969 29.7911 14.6677 29.6245 14.6094 29.587C14.6844 29.4162 14.4344 29.5495 14.3136 29.5786C14.3219 29.6286 14.2469 29.6953 14.1886 29.7328C14.1594 29.7161 14.2636 29.562 14.1927 29.6037L14.3552 29.4161C14.2094 29.5995 14.1177 29.5453 14.0427 29.612C14.1511 29.462 14.1886 29.5287 14.2886 29.4328C14.1677 29.3578 14.2302 29.3953 14.1094 29.3203C13.9302 29.412 13.9636 29.5037 13.7927 29.6412C13.7094 29.6328 13.5469 29.7203 13.5886 29.5578L13.4594 29.737C13.2511 29.7786 13.2136 29.712 13.3011 29.487C12.3511 29.837 11.8969 30.2495 11.6844 30.5828C11.4719 30.9162 11.5011 31.1662 11.5011 31.1662C11.4511 31.7828 12.0302 31.4411 12.4802 31.6078L12.4844 31.6162Z" fill="#B6DB65"/>
<path d="M29.9212 39.9414L29.9004 40.0372C29.9212 39.9997 29.9337 39.9664 29.9212 39.9414Z" fill="#B6DB65"/>
<path d="M36.2422 43.8367C36.2422 43.8367 36.2505 43.8284 36.2588 43.8242C36.2505 43.8242 36.2464 43.8326 36.2422 43.8367Z" fill="#B6DB65"/>
<path d="M29.3761 43.1836C29.3761 43.1836 29.3635 43.1919 29.3594 43.2003L29.3802 43.1836H29.3761Z" fill="#B6DB65"/>
<path d="M28.2339 42.2521C28.513 42.5354 28.3922 42.9563 28.8213 42.9979C28.9672 43.1188 29.1922 43.1312 29.3755 43.1771C29.6172 42.9312 29.588 43.2938 29.813 43.1021L29.7547 43.2854C29.8338 43.2187 29.9005 43.1854 29.8797 43.2896L29.8505 43.3354C29.9672 43.2396 29.9755 43.3396 30.0338 43.2937L30.0047 43.3396L30.0713 43.3521L30.0213 43.4146C30.1755 43.3313 30.263 43.3688 30.3005 43.4688L30.4089 43.2687C30.4339 43.5812 30.7297 43.2021 30.7172 43.5479L30.688 43.5937C31.1713 43.1771 30.7547 44.1104 31.2255 43.7271C31.1672 43.7729 31.1755 43.8354 31.1422 43.8813C31.2589 43.8729 31.363 43.8979 31.5963 43.5146C31.6547 43.5563 31.5713 43.6646 31.4922 43.8187C31.5922 43.6479 31.688 43.6104 31.7422 43.6312L31.6797 43.6812L31.8505 43.7062L32.0172 43.3729C32.0339 43.5062 31.8005 43.7729 31.913 43.7354L32.0714 43.4729C32.138 43.5854 31.9505 44.0187 31.9255 44.2687C32.2464 44.6187 33.088 44.2271 33.1505 44.9188L33.038 45.1229C32.8588 45.4104 33.413 44.7687 33.2547 45.0396L33.3797 44.9396C33.3589 44.9979 33.3464 45.0687 33.2839 45.1187C33.313 45.1562 33.3464 45.1104 33.4297 45.0437L33.3547 45.2437C33.413 45.4812 33.7672 45.2271 33.8755 45.4062C33.8172 45.8854 34.388 45.8104 34.7255 45.7729C35.313 45.5771 34.8213 46.8896 35.4422 46.6479C35.4213 46.6938 35.513 46.6271 35.5338 46.5938C35.6088 46.6729 35.6838 46.7521 35.7547 46.8312C35.7547 46.8312 36.0255 47.102 36.4213 47.0145C36.8088 46.9229 37.3505 46.5062 37.7547 45.0187L37.8089 44.9687C37.7755 44.7062 37.7005 44.5937 37.3672 44.7979C37.638 44.4312 37.2714 44.6604 37.3297 44.5187L37.3547 44.4937C37.0463 44.6937 37.3422 44.1146 37.0588 44.2896C37.0838 44.2646 37.163 44.1687 37.188 44.1771C37.088 44.1687 36.938 44.1771 37.0922 43.9687C36.8922 43.9062 36.7422 43.6396 36.388 43.9021L36.438 43.8479C36.213 44.0354 36.338 43.8271 36.188 43.8937C36.2047 43.8646 36.2088 43.8438 36.2213 43.8354C35.9922 44.0188 36.013 43.7396 35.888 43.7979L35.988 43.6521L35.838 43.5937L35.863 43.6604C35.5672 44.0437 35.9464 43.3437 35.6714 43.5354C35.6214 43.4229 34.9213 44.2354 34.9672 43.9813C34.7963 44.1396 35.213 43.7062 35.0505 43.8062C35.1922 43.5979 35.1714 43.6979 35.2672 43.5229C35.138 43.5771 35.313 43.2396 35.138 43.3271L35.2464 43.1646C34.9422 43.3896 35.2005 42.8229 34.9422 43.0604C34.7464 43.1229 35.1963 42.5312 34.8755 42.7729L34.9797 42.5229C34.9547 42.4563 34.7672 42.7688 34.7839 42.6271C34.8797 42.4896 34.7922 42.4729 34.9088 42.3604C34.9338 42.0646 34.463 42.5146 34.5463 42.0396C34.3338 42.2896 34.363 42.0771 34.2047 42.2646C34.2755 42.1438 34.0589 42.1437 34.313 41.9437C34.3339 41.9271 34.3464 41.9437 34.313 41.9854L34.4297 41.8312C34.5339 41.4687 34.1589 41.8979 34.1005 41.7938C34.0922 41.8646 34.138 41.8729 34.0422 41.9687L33.9755 41.8937L34.0797 41.7687L34.0047 41.6104L33.913 41.7896C33.9089 41.6646 34.0672 41.3604 33.8464 41.5604C33.7297 41.6771 33.7588 41.8271 33.663 41.8396C33.6547 41.6729 33.6422 41.4229 33.5713 41.3062C33.463 41.5062 33.438 41.4812 33.388 41.5021L33.488 41.3313C33.2339 41.4979 33.6755 40.9396 33.4505 41.0562L33.5297 40.9437L33.288 41.2771C32.988 41.5521 33.4464 40.8979 33.0589 41.2854C33.1214 41.2854 32.8547 41.6687 32.8463 41.5646L32.9589 41.4104C32.9089 41.4271 32.8589 41.4895 32.8589 41.4437C32.9297 41.3687 33.0088 41.2146 32.9505 41.2146L33.1005 41.027L32.838 41.2771C32.8797 41.0646 32.6464 41.2229 32.7589 40.9771C32.7589 40.9771 32.688 40.7854 32.5088 41.0188C32.6297 40.8771 32.588 40.7729 32.7213 40.6021C32.5797 40.7563 32.3922 40.8396 32.4588 40.6271L32.4797 40.6104C32.438 40.327 32.0588 40.7187 32.0588 40.402C31.9505 40.602 31.938 40.452 31.813 40.7145C31.5255 40.8812 31.8464 40.0479 31.3464 40.7979C31.2589 40.8021 31.3755 40.5687 31.363 40.5104L31.4005 40.4771C31.2422 40.4729 31.2005 40.4604 31.1213 40.3896C31.0338 40.4396 30.8172 40.7979 30.788 40.6646C30.8964 40.5354 30.8464 40.5437 30.8172 40.5271C30.8505 40.5146 30.8838 40.4645 30.9005 40.3479C30.8713 40.3895 30.8464 40.4104 30.8255 40.4312C30.8297 40.4187 30.8338 40.4104 30.8463 40.3938C30.7672 40.4146 30.7505 40.4646 30.763 40.4979C30.7505 40.5188 30.7339 40.5479 30.7214 40.5937C30.7755 40.3771 30.5672 40.5229 30.7005 40.2729C30.5172 40.2437 30.263 40.4396 30.0797 40.4646C30.138 40.3271 30.2297 40.2312 30.2964 40.2021H30.1797C30.2838 40.0146 30.2922 40.1229 30.338 40.1021C30.3963 39.7437 29.9505 40.277 29.9797 39.9312L29.8713 40.0646V40.0354C29.8338 40.1145 29.7463 40.2021 29.7172 40.2146C29.788 40.0437 29.9255 39.8438 29.8588 39.8188C29.8963 39.6354 29.6755 39.8188 29.563 39.8688C29.5838 39.9146 29.5214 39.9979 29.4755 40.0479C29.4422 40.0354 29.513 39.8646 29.4505 39.9229L29.5672 39.7021C29.4672 39.9146 29.363 39.8771 29.3005 39.9604C29.3713 39.7896 29.4255 39.8479 29.5005 39.7312C29.363 39.6812 29.4338 39.7062 29.2963 39.6562C29.138 39.7813 29.1964 39.8687 29.0589 40.0396C28.9755 40.0479 28.8339 40.1687 28.8422 40.0021L28.7588 40.2062C28.5672 40.2937 28.513 40.2354 28.5464 40.0021C26.8589 41.1229 27.188 42.0563 27.188 42.0563C27.2755 42.6604 27.7505 42.1896 28.213 42.2521H28.2339Z" fill="#B6DB65"/>
<path d="M43.4073 52.3398L43.3281 52.3898C43.3656 52.3732 43.3989 52.3565 43.4073 52.3398Z" fill="#B6DB65"/>
<path d="M40.7357 53.9961C40.7357 53.9961 40.7232 53.9961 40.7148 54.0003H40.7398L40.7357 53.9961Z" fill="#B6DB65"/>
<path d="M40.724 53.301C40.6948 53.5052 40.3115 53.7094 40.5406 53.801C40.5406 53.8885 40.6615 53.9386 40.7365 53.9927C41.0657 53.9136 40.7781 54.0927 41.0573 54.0386L40.8865 54.1177C40.9823 54.101 41.049 54.0969 40.9573 54.1469L40.9031 54.1635C41.0448 54.1385 40.974 54.1927 41.0448 54.1802L40.9907 54.1969L41.024 54.2177L40.949 54.2385C41.1073 54.2302 41.1282 54.2677 41.074 54.326L41.2907 54.2511C41.0698 54.4052 41.5323 54.2927 41.2656 54.4552L41.2115 54.4719C41.8198 54.3885 40.8573 54.726 41.4323 54.6594C41.3615 54.6677 41.3198 54.6969 41.2656 54.7094C41.3406 54.7344 41.3865 54.7677 41.8198 54.6552C41.8198 54.6885 41.6906 54.7177 41.524 54.7677C41.7156 54.7177 41.799 54.7219 41.8198 54.7469L41.7448 54.7552L41.8282 54.8094L42.1865 54.7052C42.0907 54.7719 41.749 54.826 41.8448 54.8427L42.1449 54.7677C42.099 54.8386 41.6532 54.9802 41.4448 55.0802C41.3615 55.3052 42.1781 55.3844 41.6781 55.676L41.4532 55.7219C41.1198 55.7802 41.9573 55.6927 41.649 55.751H41.8032C41.7448 55.7635 41.6823 55.7885 41.6073 55.7885C41.599 55.8094 41.6532 55.8052 41.7573 55.801L41.5532 55.8552C41.4032 55.9594 41.8157 55.9719 41.7448 56.0719C41.3323 56.2261 41.7448 56.3677 41.9782 56.4719C42.499 56.6135 41.1573 56.8552 41.7365 56.9927C41.6906 56.9969 41.7948 57.0094 41.8365 57.0094L41.7906 57.1594C41.7906 57.1594 41.7573 57.3344 42.0698 57.4635C42.3865 57.5802 43.049 57.7094 44.4615 57.4052L44.5365 57.4135C44.7198 57.3094 44.7615 57.2386 44.3865 57.1636C44.8406 57.1552 44.4323 57.076 44.5782 57.051H44.6157C44.2657 56.9927 44.9074 56.9136 44.5907 56.8552C44.6282 56.8552 44.7531 56.8552 44.7573 56.8719C44.699 56.826 44.5948 56.7677 44.8573 56.7552C44.7823 56.6469 44.899 56.4802 44.474 56.4344H44.549C44.2615 56.4136 44.5032 56.3844 44.3532 56.351C44.3865 56.3469 44.4032 56.3427 44.4198 56.3427C44.1365 56.3218 44.3657 56.2219 44.2448 56.1969L44.4198 56.1802L44.374 56.0969L44.3406 56.1302C43.8573 56.1636 44.6365 56.0385 44.3198 56.0052C44.374 55.9385 43.3073 55.9969 43.5365 55.9177C43.3073 55.9177 43.9032 55.901 43.7282 55.8802C43.9782 55.851 43.8865 55.8802 44.0865 55.8469C43.9615 55.8219 44.3323 55.7468 44.1615 55.7177L44.3573 55.6927C43.9948 55.6719 44.5948 55.5302 44.249 55.5302C44.0782 55.4844 44.8198 55.3969 44.4282 55.3802L44.6865 55.3094C44.724 55.2719 44.3615 55.3385 44.4823 55.2802C44.649 55.2552 44.6073 55.2135 44.7657 55.2094C45.0073 55.0844 44.3698 55.1094 44.7865 54.9261C44.4615 54.9636 44.6448 54.876 44.399 54.9052C44.5365 54.876 44.399 54.7969 44.7157 54.7969C44.7407 54.7969 44.7365 54.8052 44.6823 54.8177L44.874 54.7885C45.2198 54.6552 44.6531 54.7177 44.699 54.6469C44.6406 54.676 44.6615 54.6969 44.5282 54.7094L44.5407 54.651L44.7031 54.6302L44.7782 54.526L44.5823 54.5802C44.674 54.5177 45.0073 54.4302 44.7157 54.4469C44.5573 54.4635 44.4615 54.5427 44.3906 54.5177C44.5156 54.4343 44.6948 54.3094 44.7365 54.226C44.5198 54.2844 44.5198 54.2635 44.474 54.2593L44.6657 54.2094C44.3823 54.201 45.0782 54.0802 44.849 54.0594L44.9823 54.0302L44.5782 54.1135C44.1865 54.1469 44.9657 53.9761 44.4323 54.0386C44.4698 54.0594 44.0157 54.1635 44.0907 54.1052L44.2782 54.0635C44.2324 54.0552 44.1573 54.0677 44.1906 54.0469C44.2906 54.0302 44.4573 53.9802 44.4198 53.9635L44.6531 53.9219L44.3032 53.9594C44.4865 53.8635 44.224 53.8677 44.4782 53.7802C44.4782 53.7802 44.5781 53.6552 44.2906 53.7177C44.4698 53.6844 44.524 53.6177 44.7323 53.5719C44.5282 53.6052 44.349 53.5885 44.549 53.4969H44.574C44.7573 53.326 44.2282 53.4177 44.4573 53.2469C44.2407 53.3219 44.3449 53.2344 44.0699 53.3385C43.7699 53.3385 44.574 52.9844 43.7115 53.2469C43.6531 53.2219 43.8948 53.1302 43.9323 53.0969H43.9823C43.8865 53.0385 43.8698 53.0219 43.8698 52.9594C43.7781 52.9594 43.3823 53.101 43.4615 53.0177C43.624 52.976 43.5865 52.9677 43.5782 52.9469C43.6073 52.9469 43.6656 52.9302 43.7615 52.8677C43.7115 52.8844 43.6824 52.8886 43.6532 52.8927C43.6657 52.8886 43.674 52.8844 43.6907 52.876C43.624 52.8677 43.5781 52.8885 43.5615 52.9135C43.5365 52.9219 43.5073 52.9343 43.4657 52.9552C43.6532 52.8468 43.4198 52.8719 43.6865 52.7677C43.5907 52.701 43.2907 52.7427 43.1573 52.7135C43.2907 52.651 43.4198 52.6177 43.4782 52.6177L43.4073 52.5844C43.6031 52.5052 43.5323 52.5677 43.5782 52.5719C43.8698 52.3802 43.2073 52.5719 43.4698 52.3761L43.3073 52.4261L43.3323 52.4094C43.249 52.4427 43.1323 52.4761 43.1032 52.4761C43.2698 52.3927 43.4948 52.3093 43.4698 52.2802C43.6198 52.1802 43.3531 52.2344 43.2448 52.2344C43.224 52.2677 43.1282 52.3011 43.0657 52.3177C43.0532 52.3011 43.2156 52.2177 43.1365 52.2385L43.3615 52.1385C43.149 52.2385 43.1073 52.1927 43.0157 52.2302C43.1782 52.1469 43.174 52.1927 43.3031 52.1427C43.249 52.0802 43.2782 52.1094 43.224 52.0469C43.0365 52.0844 43.0115 52.1511 42.8073 52.2219C42.749 52.2094 42.5782 52.251 42.6948 52.151L42.499 52.2552C42.3157 52.2677 42.3198 52.2219 42.5032 52.0844C41.5865 52.251 41.0323 52.5135 40.6948 52.7135C40.3615 52.9135 40.2448 53.0593 40.2448 53.0593C39.874 53.4135 40.4907 53.2094 40.7282 53.326L40.724 53.301Z" fill="#B6DB65"/>
</svg>
