<svg width="160" height="66" viewBox="0 0 160 66" fill="none" xmlns="http://www.w3.org/2000/svg">
<path d="M3.83215 1.25H3.73633C3.78216 1.25833 3.81965 1.25833 3.83215 1.25Z" fill="#B6DB65"/>
<path d="M0.523071 1.61767C0.523071 1.61767 0.510547 1.61354 0.498047 1.60938L0.523071 1.61767Z" fill="#B6DB65"/>
<path d="M0.865064 0.74796C0.723397 0.964627 0.269261 0.989611 0.427595 1.25211C0.381761 1.36461 0.477586 1.49795 0.52342 1.61878C0.869253 1.69378 0.519229 1.7688 0.810895 1.84797L0.610903 1.86048C0.710903 1.88965 0.777576 1.91878 0.669243 1.93545H0.610903C0.760904 1.97295 0.669265 2.00215 0.744265 2.02298H0.685926L0.710899 2.06047L0.627586 2.04796C0.78592 2.11462 0.794241 2.17297 0.719241 2.21881H0.96094C0.68594 2.32297 1.18589 2.3813 0.860893 2.4688H0.802605C1.43594 2.6063 0.365064 2.65631 0.969231 2.79798C0.894231 2.78131 0.844255 2.80215 0.785922 2.79798C0.852588 2.86048 0.890095 2.92295 1.36509 2.92712C1.35676 2.96879 1.21507 2.96049 1.03174 2.96466C1.24007 2.96466 1.32757 3.00212 1.34007 3.03546L1.26093 3.01877L1.33173 3.11465L1.72342 3.0938C1.61092 3.1438 1.24424 3.10631 1.34007 3.15631H1.66508C1.60258 3.22297 1.10673 3.26878 0.869235 3.33961C0.735901 3.63545 1.57344 3.9063 1.01511 4.1938L0.769239 4.21878C0.410906 4.24378 1.30257 4.26463 0.973402 4.28963L1.14008 4.31048C1.07758 4.32298 1.01091 4.34379 0.927574 4.33545C0.915074 4.36462 0.973406 4.36044 1.08174 4.37711L0.860893 4.42299C0.698393 4.54799 1.12759 4.61466 1.05259 4.73549C0.610928 4.91466 1.05259 5.15212 1.30676 5.27295C1.85676 5.42295 0.477601 5.83966 1.11093 5.98549C1.06093 5.99799 1.1776 6.00212 1.21927 5.99795L1.19842 6.20628C1.19842 6.20628 1.19841 6.45632 1.55674 6.55215C1.91091 6.65215 2.6151 6.56462 4.02343 6.00629L4.0984 5.99795C4.26924 5.87295 4.30258 5.81046 3.90675 5.79796C4.38175 5.71879 3.94423 5.71048 4.09423 5.66882H4.13177C3.75677 5.65632 4.41927 5.5063 4.08594 5.4938C4.12344 5.4938 4.25675 5.47712 4.26508 5.48546C4.19841 5.45212 4.08591 5.41045 4.36507 5.37295C4.28174 5.28545 4.39424 5.13546 3.94424 5.12296H4.02343C3.71926 5.11463 3.97343 5.07711 3.81927 5.05211C3.85677 5.04794 3.8734 5.04381 3.89007 5.03965C3.59007 5.03131 3.83176 4.93129 3.70259 4.91046L3.8859 4.88965L3.8359 4.81463L3.79841 4.84795C3.29008 4.88545 4.11089 4.76048 3.77756 4.73132C3.83589 4.67298 2.71091 4.71049 2.95674 4.63132C2.71507 4.62299 3.34423 4.62296 3.1609 4.59796C3.42757 4.57712 3.32758 4.60215 3.54008 4.57715C3.41092 4.54799 3.80673 4.4938 3.6234 4.4563L3.83173 4.43962C3.4484 4.40212 4.0984 4.30212 3.73173 4.28546C3.55673 4.23129 4.34423 4.20627 3.9359 4.16461L4.21508 4.12295C4.25675 4.09378 3.86924 4.12296 4.00258 4.08129C4.17758 4.07296 4.14007 4.03547 4.31091 4.04381C4.58174 3.96047 3.91092 3.91878 4.37342 3.80628C4.02758 3.80211 4.23177 3.74382 3.97343 3.73965C4.12343 3.73132 3.99425 3.64381 4.31925 3.68548C4.34425 3.68548 4.34009 3.69794 4.28176 3.69794H4.48592C4.86926 3.63128 4.27343 3.61046 4.33176 3.55629C4.26509 3.57296 4.28173 3.59382 4.14423 3.58548L4.16925 3.53549H4.3401L4.4401 3.46881L4.22759 3.48549C4.33593 3.44799 4.69844 3.42712 4.39427 3.39378C4.2276 3.37712 4.1109 3.43128 4.04006 3.39378C4.18173 3.34378 4.40257 3.26881 4.46507 3.21047C4.22757 3.21881 4.23594 3.20212 4.18594 3.18545H4.39427C4.10677 3.11878 4.85257 3.1563 4.61924 3.0938H4.76511L4.33176 3.08128C3.91926 3.02295 4.7609 3.05212 4.1984 2.98546C4.2359 3.01046 3.74006 2.99799 3.83173 2.96466L4.03177 2.97295C3.99011 2.95628 3.90674 2.94796 3.94841 2.93963C4.05674 2.95213 4.24007 2.94795 4.20674 2.92295L4.45673 2.93963L4.09006 2.88963C4.30673 2.8563 4.03591 2.7938 4.31925 2.7813C4.31925 2.7813 4.45673 2.7063 4.1484 2.6813C4.34007 2.70213 4.41509 2.66046 4.64009 2.67713C4.42342 2.65213 4.24425 2.58962 4.47758 2.56879H4.50261C4.74011 2.49379 4.18591 2.41044 4.47341 2.34378C4.23175 2.33961 4.36508 2.30211 4.05675 2.29795C3.75675 2.19795 4.69007 2.17712 3.74007 2.09796C3.69007 2.05629 3.96509 2.06462 4.01509 2.04796L4.06509 2.06047C3.99009 1.98547 3.98175 1.96464 4.00675 1.91048C3.91508 1.87714 3.47341 1.84381 3.58591 1.80214C3.76091 1.83131 3.72757 1.80629 3.73173 1.78963C3.75673 1.80213 3.8234 1.81046 3.94007 1.7938C3.8859 1.78546 3.85261 1.78128 3.82761 1.77294C3.84011 1.77294 3.8526 1.77294 3.86927 1.77294C3.81093 1.73961 3.75256 1.73964 3.72756 1.75214C3.70256 1.75214 3.66511 1.75214 3.61928 1.75214C3.84844 1.73547 3.61092 1.66462 3.91092 1.68129C3.84842 1.58546 3.54008 1.49795 3.43175 1.41045C3.58591 1.41461 3.7234 1.44379 3.78173 1.47296L3.73173 1.41462C3.95257 1.43545 3.85674 1.45629 3.89841 1.47713C4.26508 1.44796 3.55257 1.31463 3.89007 1.26879L3.7151 1.23548H3.74425C3.65258 1.22298 3.52759 1.19381 3.49843 1.18131C3.69426 1.18964 3.94423 1.22715 3.9359 1.18965C4.1234 1.18132 3.85259 1.09795 3.75259 1.04795C3.71925 1.06461 3.61092 1.04798 3.54425 1.03132C3.54009 1.01048 3.73592 1.02295 3.65259 0.99795L3.91509 1.02297C3.66926 1.00214 3.65676 0.943816 3.54842 0.927149C3.74426 0.939649 3.71092 0.972946 3.85675 0.993779C3.84009 0.918779 3.8484 0.956318 3.83173 0.877151C3.64006 0.814651 3.58594 0.856304 3.35677 0.81047C3.31094 0.768804 3.13176 0.710454 3.29426 0.689621L3.06091 0.672989C2.89007 0.581322 2.9234 0.543785 3.1609 0.531285C2.25257 0.152119 1.61926 0.0187772 1.20676 0.00211051C0.794259 -0.0145562 0.606733 0.0729622 0.606733 0.0729622C0.0650661 0.231295 0.723406 0.439649 0.873406 0.718816L0.865064 0.74796Z" fill="#B6DB65"/>
<path d="M7.61915 15.1562L7.55664 15.2354C7.59414 15.2104 7.62332 15.1812 7.61915 15.1562Z" fill="#B6DB65"/>
<path d="M12.7871 21.0359C12.7871 21.0359 12.7996 21.0276 12.8079 21.0234C12.7996 21.0234 12.7913 21.0318 12.7871 21.0359Z" fill="#B6DB65"/>
<path d="M5.65193 18.0625C5.65193 18.0625 5.63529 18.0625 5.62695 18.0667H5.65193V18.0625Z" fill="#B6DB65"/>
<path d="M4.88188 16.462C5.03188 16.912 4.72772 17.2661 5.14855 17.562C5.24855 17.7703 5.47775 17.912 5.64859 18.062C5.99442 17.9412 5.82772 18.2953 6.14022 18.2203L6.00691 18.3787C6.11525 18.3537 6.19855 18.3536 6.13605 18.4495L6.08605 18.4828C6.24439 18.4453 6.21522 18.5537 6.29439 18.537L6.24439 18.5703L6.31107 18.6161L6.23605 18.6578C6.43188 18.6495 6.51107 18.7328 6.51523 18.8578L6.70271 18.7036C6.62355 19.0411 7.06524 18.7911 6.93607 19.1453L6.89024 19.1786C7.54024 18.9661 6.80271 19.7537 7.43188 19.5662C7.35271 19.5912 7.3444 19.6578 7.29857 19.6911C7.42774 19.737 7.53187 19.8078 7.89437 19.5036C7.94437 19.5703 7.82772 19.6537 7.69438 19.7787C7.85272 19.6412 7.96523 19.6412 8.01939 19.6828L7.94025 19.712L8.11522 19.8078L8.38606 19.5245C8.36523 19.6745 8.04023 19.8578 8.17356 19.8661L8.41938 19.6495C8.46104 19.7953 8.14438 20.1786 8.05271 20.4411C8.32771 20.9578 9.34025 20.8203 9.29025 21.587L9.13191 21.7745C8.88608 22.0328 9.61108 21.5036 9.39024 21.7495L9.54858 21.6786C9.51525 21.737 9.49438 21.8078 9.41522 21.8453C9.44438 21.8953 9.48607 21.8536 9.59024 21.8036L9.47773 22.0036C9.51523 22.2828 9.9444 22.1078 10.0569 22.3287C9.9444 22.8495 10.6194 22.9078 11.0069 22.9245C11.6652 22.8036 11.1153 24.1995 11.8486 24.0161C11.8278 24.0661 11.9278 23.9995 11.9528 23.9661L12.2277 24.2578C12.2277 24.2578 12.5861 24.587 13.0236 24.4995C13.4694 24.4203 13.9569 23.9078 14.3319 22.3203L14.3861 22.2661C14.3444 21.9953 14.2736 21.887 13.9236 22.1036C14.2069 21.7161 13.8277 21.962 13.8902 21.812L13.9194 21.7828C13.5902 21.9911 13.9194 21.387 13.6194 21.5703C13.6486 21.5453 13.7319 21.4453 13.7611 21.4537C13.6569 21.4453 13.4985 21.4537 13.6777 21.2328C13.4777 21.1578 13.3486 20.8786 12.9569 21.1245L13.0152 21.0703C12.7611 21.2453 12.9152 21.0411 12.7486 21.0995C12.7694 21.0703 12.7777 21.0495 12.7902 21.0411C12.5319 21.2078 12.5819 20.9161 12.4486 20.9661L12.5694 20.8245L12.4194 20.7495L12.4361 20.8203C12.0777 21.1828 12.5611 20.5037 12.2527 20.6662C12.2194 20.5453 11.3652 21.287 11.4486 21.0245C11.2444 21.1578 11.7527 20.7745 11.5652 20.8536C11.7444 20.6578 11.7069 20.7578 11.8402 20.5911C11.6944 20.6286 11.9319 20.3036 11.7361 20.3661L11.8777 20.212C11.5194 20.3953 11.8944 19.8453 11.5819 20.0453C11.3652 20.0745 11.9527 19.5453 11.5694 19.737L11.7277 19.4995C11.7194 19.4245 11.4527 19.712 11.5027 19.5703C11.6319 19.4495 11.5444 19.412 11.6903 19.3203C11.7861 19.0245 11.2027 19.3786 11.4027 18.9161C11.1277 19.1245 11.2069 18.9161 10.9986 19.0661C11.1027 18.9578 10.8819 18.9078 11.1944 18.7661C11.2194 18.7536 11.2277 18.7661 11.1861 18.8078L11.3444 18.6786C11.5486 18.337 11.0569 18.6786 11.0235 18.5578C10.9944 18.6286 11.036 18.6453 10.9152 18.7203L10.8652 18.6287L11.0069 18.5287L10.9777 18.3495L10.8361 18.5078C10.8652 18.3786 11.1152 18.1161 10.8361 18.262C10.6861 18.3453 10.6694 18.5036 10.5694 18.4911C10.6111 18.3203 10.6736 18.0661 10.6402 17.9328C10.4694 18.0995 10.4527 18.0703 10.3944 18.0745L10.5485 17.9328C10.2444 18.0245 10.861 17.5953 10.6027 17.6495L10.7194 17.562L10.3694 17.8203C9.9819 17.9995 10.6527 17.4912 10.1402 17.7578C10.2027 17.7745 9.81105 18.0745 9.83605 17.9662L9.99856 17.8495C9.94439 17.8495 9.86939 17.8953 9.88605 17.8495C9.98189 17.7953 10.1152 17.6703 10.0569 17.6495L10.2694 17.5161L9.92354 17.6786C10.0402 17.4828 9.7569 17.562 9.95273 17.3578C9.95273 17.3578 9.95273 17.1453 9.69023 17.312C9.86106 17.2161 9.85689 17.0995 10.0486 16.9786C9.85273 17.0828 9.63606 17.0995 9.78606 16.9162L9.81108 16.9078C9.88191 16.6161 9.36107 16.862 9.48607 16.5537C9.30274 16.7078 9.34857 16.5578 9.1194 16.762C8.7694 16.812 9.42771 16.1328 8.62771 16.6578C8.54021 16.6245 8.74858 16.4495 8.76524 16.387L8.81524 16.3703C8.66524 16.2995 8.63188 16.2703 8.58188 16.1661C8.47355 16.1786 8.11108 16.4287 8.14024 16.287C8.30274 16.212 8.25273 16.1953 8.2319 16.1661C8.2694 16.1661 8.32357 16.137 8.39023 16.0287C8.34023 16.0537 8.3069 16.0661 8.2819 16.0745C8.2944 16.0661 8.29854 16.0578 8.31521 16.0495C8.22771 16.037 8.19024 16.0745 8.18607 16.112C8.16524 16.1245 8.13604 16.1495 8.10271 16.1828C8.24854 15.9995 7.98606 16.0453 8.22773 15.862C8.06523 15.7495 7.72772 15.8203 7.54439 15.7536C7.66105 15.6495 7.79857 15.6037 7.87357 15.6078L7.76523 15.5495C7.94857 15.4245 7.90689 15.5286 7.96105 15.5328C8.19022 15.2203 7.51106 15.5078 7.70272 15.1995L7.53605 15.2703L7.5569 15.2453C7.47773 15.2953 7.35275 15.337 7.31525 15.337C7.46525 15.212 7.69021 15.0912 7.64021 15.037C7.76521 14.887 7.46522 14.9453 7.33605 14.937C7.33189 14.9912 7.23187 15.037 7.16521 15.0578C7.14021 15.0286 7.29025 14.9036 7.20691 14.9245L7.42771 14.7787C7.22771 14.9245 7.14858 14.837 7.05275 14.8828C7.20692 14.762 7.22774 14.8453 7.35691 14.7745C7.25691 14.6578 7.30691 14.7161 7.20274 14.5995C6.99024 14.6328 6.99857 14.7412 6.78191 14.8328C6.69857 14.7995 6.50688 14.8328 6.59438 14.6787L6.41107 14.8203C6.1819 14.7953 6.16525 14.7078 6.31941 14.5078C5.24025 14.5453 4.64023 14.7995 4.32356 15.0745C4.0069 15.3453 3.96941 15.6286 3.96941 15.6286C3.74857 16.2786 4.45689 16.1286 4.88605 16.4703L4.88188 16.462Z" fill="#B6DB65"/>
<path d="M23.291 27.3398V27.4399C23.3035 27.3982 23.3077 27.3607 23.291 27.3398Z" fill="#B6DB65"/>
<path d="M30.9629 29.4701C30.9629 29.4701 30.9712 29.4576 30.9754 29.4492C30.967 29.4576 30.9671 29.4617 30.9629 29.4701Z" fill="#B6DB65"/>
<path d="M23.3701 30.8438C23.3701 30.8438 23.3618 30.8563 23.3535 30.8646L23.3701 30.8438Z" fill="#B6DB65"/>
<path d="M21.8496 30.0078C22.2246 30.2787 22.1829 30.7412 22.687 30.7328C22.887 30.8412 23.1454 30.8245 23.3704 30.8453C23.5829 30.5495 23.6412 30.9328 23.8537 30.6912L23.837 30.8953C23.9079 30.812 23.9788 30.762 23.9829 30.8787L23.9621 30.9328C24.0704 30.8078 24.1079 30.9162 24.1621 30.8537L24.1413 30.9078H24.2204L24.1829 30.9829C24.3371 30.8662 24.4454 30.887 24.5204 30.987L24.5871 30.7537C24.7079 31.0745 24.9329 30.6204 25.0162 30.9829L24.9954 31.037C25.4121 30.4995 25.2371 31.562 25.6496 31.0537C25.5996 31.1162 25.6287 31.1787 25.6079 31.2328C25.737 31.1995 25.8662 31.1995 25.9996 30.7453C26.0787 30.7745 26.0246 30.9079 25.9829 31.087C26.0412 30.887 26.1329 30.8245 26.1996 30.8286L26.1496 30.8995L26.3454 30.8828L26.4162 30.4953C26.4787 30.6287 26.3121 30.962 26.4246 30.8953L26.5121 30.5828C26.6246 30.6828 26.5704 31.1787 26.6329 31.4454C27.1329 31.7245 27.9037 31.0662 28.262 31.7412L28.2287 31.9828C28.1537 32.3328 28.4871 31.4995 28.4329 31.8245L28.5287 31.6787C28.5287 31.7453 28.5496 31.8203 28.5037 31.8912C28.5537 31.9162 28.5704 31.862 28.6329 31.762L28.6412 31.9912C28.8162 32.2078 29.0871 31.8329 29.2913 31.9662C29.4621 32.4662 30.0579 32.1703 30.3913 31.987C30.8954 31.5453 31.1079 33.0328 31.6371 32.5078C31.6413 32.562 31.6954 32.4537 31.7037 32.412L32.0787 32.5287C32.0787 32.5287 32.5371 32.6412 32.8787 32.3578C33.2246 32.0745 33.4246 31.3912 32.9829 29.8203L33.0037 29.7453C32.8329 29.5245 32.7162 29.4662 32.5121 29.8245C32.5704 29.3495 32.3579 29.7453 32.3371 29.587L32.3496 29.5495C32.1621 29.8912 32.1537 29.2037 31.9746 29.5078C31.9871 29.4703 32.0121 29.3412 32.0412 29.337C31.9454 29.3828 31.8079 29.462 31.8537 29.187C31.637 29.2203 31.3787 29.0412 31.1621 29.4537L31.1871 29.3787C31.0537 29.6578 31.0829 29.4037 30.9704 29.537C30.9704 29.4995 30.9704 29.4787 30.9746 29.4662C30.8329 29.7412 30.7287 29.4662 30.6371 29.5745L30.6704 29.3912L30.4995 29.3995L30.5537 29.4495C30.4287 29.9453 30.4954 29.112 30.3121 29.4078C30.2162 29.3203 29.8662 30.3953 29.8037 30.1287C29.6996 30.3495 29.9329 29.7578 29.8121 29.9203C29.8663 29.662 29.8871 29.7662 29.9121 29.5537C29.8037 29.6578 29.8412 29.2579 29.7037 29.412L29.7454 29.2079C29.5329 29.5495 29.5663 28.887 29.3996 29.2203C29.2288 29.3578 29.4496 28.5995 29.2204 28.962L29.2329 28.6787C29.1871 28.6203 29.1121 29.0037 29.0787 28.8578C29.1246 28.687 29.0287 28.7037 29.1079 28.5495C29.0287 28.2453 28.7204 28.8578 28.6412 28.3578C28.5162 28.6828 28.4704 28.4578 28.3746 28.6995C28.4079 28.5536 28.1871 28.6287 28.3746 28.3412C28.3912 28.3162 28.4037 28.3245 28.3912 28.3828L28.4537 28.187C28.4412 27.787 28.2037 28.3412 28.1121 28.2578C28.1287 28.3328 28.1746 28.3245 28.1121 28.4537L28.0204 28.3995L28.0829 28.237L27.9621 28.0995L27.9287 28.312C27.8829 28.187 27.9537 27.8328 27.7912 28.1037C27.712 28.2578 27.787 28.3995 27.6912 28.4412C27.6329 28.2745 27.5454 28.0245 27.4371 27.9287C27.3829 28.162 27.3537 28.1453 27.3079 28.1828L27.3579 27.9828C27.1496 28.2245 27.4329 27.5287 27.2412 27.7162L27.2912 27.5787L27.1412 27.987C26.9121 28.3495 27.1954 27.5537 26.9121 28.0579C26.9746 28.037 26.8121 28.5037 26.7704 28.3995L26.8413 28.212C26.7954 28.2412 26.7579 28.3204 26.7495 28.2745C26.7995 28.1787 26.8412 27.9995 26.7787 28.0161L26.8829 27.787L26.6829 28.112C26.6704 27.8829 26.4746 28.1078 26.5246 27.8287C26.5246 27.8287 26.4037 27.6495 26.2787 27.9328C26.3662 27.7578 26.2996 27.662 26.3912 27.4537C26.2871 27.6495 26.1121 27.7829 26.1329 27.5454L26.1496 27.5245C26.0412 27.2412 25.7454 27.737 25.6704 27.412C25.6037 27.6453 25.5579 27.4912 25.4871 27.7912C25.2246 28.0287 25.3746 27.0953 25.0162 27.9787C24.9246 28.0037 24.9954 27.737 24.9704 27.6787L25.0037 27.637C24.8371 27.662 24.7912 27.6578 24.6912 27.5995C24.6079 27.6703 24.4579 28.087 24.3954 27.9495C24.4829 27.7953 24.4329 27.812 24.3954 27.7995C24.4288 27.7829 24.4538 27.7245 24.4454 27.5954C24.4204 27.6454 24.3996 27.6745 24.3829 27.6954C24.3829 27.6829 24.3871 27.6703 24.3954 27.6536C24.3163 27.6911 24.3079 27.7453 24.3287 27.7787C24.3204 27.8037 24.3079 27.837 24.3037 27.887C24.3162 27.6495 24.1246 27.8411 24.2204 27.5536C24.0204 27.5536 23.7871 27.8078 23.5954 27.862C23.6329 27.7078 23.712 27.5953 23.7787 27.5536L23.6537 27.5662C23.7329 27.3578 23.7579 27.4662 23.8037 27.437C23.8037 27.0537 23.4204 27.6787 23.3912 27.3162L23.2996 27.4703V27.4412C23.2704 27.5287 23.1912 27.637 23.1579 27.6536C23.2079 27.462 23.3162 27.2328 23.2412 27.2203C23.2496 27.0245 23.0454 27.2453 22.9329 27.3162C22.9621 27.362 22.9079 27.4578 22.8662 27.5162C22.8287 27.5078 22.8787 27.3204 22.8204 27.387L22.9121 27.1412C22.8371 27.3787 22.7204 27.3536 22.6704 27.4495C22.7204 27.262 22.7871 27.3161 22.8496 27.1828C22.6954 27.1495 22.7746 27.1661 22.6204 27.1328C22.4704 27.287 22.5413 27.3703 22.4204 27.5703C22.3329 27.5912 22.1954 27.7328 22.1787 27.5578L22.1162 27.7828C21.9204 27.8995 21.8495 27.8412 21.8537 27.587C21.0079 28.2662 20.6954 28.8328 20.6079 29.2453C20.5204 29.6537 20.6537 29.8953 20.6537 29.8953C20.8579 30.5411 21.3246 29.9953 21.8662 30.012L21.8496 30.0078Z" fill="#B6DB65"/>
<path d="M43.4531 30.875L43.4823 30.975C43.4823 30.9292 43.4781 30.8917 43.4531 30.875Z" fill="#B6DB65"/>
<path d="M51.5723 30.9896C51.5723 30.9896 51.5764 30.9771 51.5806 30.9688C51.5764 30.9771 51.5723 30.9812 51.5723 30.9896Z" fill="#B6DB65"/>
<path d="M44.5904 34.1875C44.5904 34.1875 44.5862 34.2042 44.582 34.2125L44.5945 34.1875H44.5904Z" fill="#B6DB65"/>
<path d="M42.9315 33.8599C43.3649 33.9974 43.4607 34.4515 43.9232 34.2849C44.1399 34.3307 44.3732 34.2349 44.5857 34.1849C44.6982 33.8349 44.8648 34.1849 44.9898 33.8974L45.0315 34.0974C45.0773 33.9974 45.1274 33.9307 45.1649 34.0391V34.0974C45.2274 33.9474 45.294 34.039 45.3232 33.964V34.0224L45.394 33.9974L45.3774 34.0807C45.4899 33.9224 45.5982 33.9141 45.694 33.9932V33.7515C45.8899 34.0265 45.9774 33.5265 46.1565 33.8515V33.9099C46.4024 33.2765 46.5148 34.3515 46.769 33.7515C46.7357 33.8265 46.7815 33.8766 46.7774 33.9349C46.8899 33.8682 47.0107 33.8349 47.019 33.3599C47.0982 33.3682 47.0815 33.5099 47.0899 33.6932C47.0899 33.4849 47.1648 33.4015 47.2273 33.389L47.1982 33.4682L47.3815 33.4016L47.3524 33.0099C47.4482 33.1224 47.369 33.489 47.4607 33.3974V33.0724C47.5982 33.139 47.669 33.6349 47.794 33.8766C48.3315 34.0224 48.9148 33.1974 49.4065 33.7766L49.4274 34.0224C49.4357 34.3807 49.569 33.4932 49.5857 33.8266L49.644 33.6641C49.6607 33.7266 49.694 33.7974 49.6648 33.8766C49.719 33.8891 49.719 33.8307 49.7607 33.7224L49.8149 33.9432C50.0274 34.1182 50.2065 33.6891 50.4274 33.7766C50.694 34.2307 51.1982 33.8141 51.4857 33.5724C51.894 33.0391 52.3649 34.4599 52.7815 33.8515C52.794 33.9015 52.8315 33.789 52.8315 33.7474L53.2107 33.7974C53.2107 33.7974 55.0524 33.9307 53.6482 30.9724L53.6565 30.8932C53.4482 30.7057 53.319 30.664 53.1774 31.0557C53.1524 30.5765 53.0065 31.0057 52.9565 30.8516V30.8141C52.8357 31.1849 52.6982 30.5057 52.5774 30.839C52.5815 30.8015 52.5857 30.6682 52.6107 30.6599C52.5232 30.7224 52.4023 30.8266 52.394 30.5474C52.1815 30.6224 51.8857 30.4932 51.7482 30.939L51.7565 30.8599C51.6773 31.1599 51.6565 30.9057 51.569 31.0557C51.5649 31.0182 51.5565 31.0016 51.5607 30.9849C51.4773 31.2807 51.3148 31.0307 51.244 31.1557V30.9682L51.0732 31.0099L51.1357 31.0515C51.1107 31.5599 51.0107 30.7307 50.8857 31.0599C50.7732 30.9932 50.6524 32.1182 50.5315 31.8682C50.4732 32.1057 50.5815 31.4807 50.4982 31.664C50.4982 31.3974 50.5398 31.4974 50.519 31.2849C50.4357 31.4099 50.3857 31.0141 50.2815 31.1932V30.9849C50.144 31.3641 50.0273 30.7099 49.9398 31.0724C49.8023 31.2432 49.8524 30.4557 49.7065 30.8599L49.6524 30.5807C49.5899 30.5349 49.6065 30.9224 49.5399 30.789C49.544 30.614 49.4565 30.6474 49.4982 30.4807C49.3482 30.2015 49.1857 30.8682 48.9857 30.4016C48.9398 30.7432 48.8399 30.5391 48.8024 30.7974C48.8024 30.6474 48.5982 30.7724 48.7149 30.4474C48.7232 30.4224 48.744 30.4266 48.7398 30.4849L48.7565 30.2807C48.644 29.8932 48.544 30.489 48.4315 30.4307C48.4648 30.4974 48.5107 30.4807 48.4773 30.6224L48.3732 30.5932L48.3982 30.4224L48.244 30.3182L48.2648 30.5307C48.1898 30.4224 48.1649 30.0599 48.0774 30.3599C48.0357 30.5266 48.1482 30.6474 48.0648 30.7141C47.9648 30.5682 47.8107 30.3474 47.6815 30.2807C47.6899 30.5182 47.6565 30.5099 47.619 30.5599V30.3516C47.4732 30.6391 47.5732 29.8932 47.4315 30.1224L47.444 29.9766L47.4024 30.4099C47.269 30.8182 47.344 29.9766 47.194 30.5391C47.2482 30.5057 47.2107 30.9974 47.144 30.9057L47.1648 30.7057C47.1273 30.7474 47.1107 30.8307 47.0899 30.789C47.1149 30.6807 47.1065 30.4974 47.0524 30.5307L47.094 30.2807L46.9815 30.6474C46.9065 30.4307 46.7732 30.6974 46.744 30.414C46.744 30.414 46.5732 30.2724 46.5274 30.5807C46.5649 30.389 46.4732 30.3141 46.5065 30.0891C46.4565 30.3057 46.3232 30.4807 46.2732 30.2474L46.2857 30.2224C46.0982 29.9807 45.944 30.5391 45.7773 30.2474C45.7773 30.4891 45.6898 30.3557 45.7065 30.6641C45.5148 30.9641 45.394 30.0307 45.3023 30.9766C45.219 31.0266 45.2107 30.7516 45.169 30.7016L45.1898 30.6516C45.0315 30.7266 44.9898 30.7307 44.8732 30.7057C44.8148 30.7974 44.7899 31.2391 44.6899 31.1266C44.7274 30.9516 44.6899 30.9849 44.6482 30.9807C44.6732 30.9557 44.6815 30.8891 44.6357 30.7682C44.6274 30.8224 44.6149 30.8557 44.6024 30.8849C44.6024 30.8724 44.6024 30.8599 44.6024 30.8432C44.5357 30.9015 44.544 30.9599 44.5732 30.9849C44.5732 31.0099 44.5732 31.0474 44.5815 31.0932C44.5232 30.864 44.394 31.1016 44.3982 30.8016C44.2024 30.8641 44.0523 31.1724 43.8898 31.2807C43.8773 31.1266 43.919 30.9891 43.969 30.9307L43.8523 30.9849C43.8607 30.7599 43.9232 30.8599 43.9607 30.8141C43.8399 30.4474 43.669 31.1641 43.5232 30.8266L43.4815 31.0015L43.4732 30.9724C43.4732 31.0641 43.4274 31.1932 43.4024 31.2224C43.3899 31.0266 43.4232 30.7724 43.344 30.7849C43.2899 30.5932 43.1649 30.8724 43.0774 30.9724C43.119 31.0057 43.1024 31.1141 43.0774 31.1807C43.0357 31.1849 43.0232 30.9891 42.9899 31.0724L42.9982 30.8099C43.0023 31.0599 42.8815 31.0724 42.8649 31.1766C42.8524 30.9807 42.9315 31.0141 42.9482 30.8641C42.7898 30.8807 42.869 30.8724 42.7107 30.889C42.619 31.0807 42.7107 31.139 42.6649 31.364C42.5899 31.4099 42.5065 31.5932 42.4273 31.4307L42.444 31.664C42.294 31.839 42.2107 31.8057 42.1315 31.564C41.5607 32.4849 41.4649 33.1265 41.519 33.5432C41.5732 33.9557 41.7732 34.1432 41.7732 34.1432C42.1649 34.6807 42.419 34.014 42.9232 33.8557L42.9315 33.8599Z" fill="#B6DB65"/>
<path d="M64.3438 30.9961L64.3771 31.092C64.3771 31.0461 64.3687 31.0086 64.3438 30.9961Z" fill="#B6DB65"/>
<path d="M72.5098 30.9349C72.5098 30.9349 72.5139 30.9224 72.5181 30.9141C72.5139 30.9224 72.5098 30.9265 72.5098 30.9349Z" fill="#B6DB65"/>
<path d="M65.6059 34.2539C65.6059 34.2622 65.6018 34.2705 65.5977 34.2789L65.6059 34.2539Z" fill="#B6DB65"/>
<path d="M63.9606 33.9979C64.3939 34.1146 64.5106 34.5646 64.9564 34.3812C65.1689 34.4187 65.3981 34.3146 65.6064 34.2563C65.7064 33.9021 65.8814 34.2521 65.9981 33.9562L66.0439 34.1563C66.0856 34.0563 66.1314 33.9854 66.1731 34.0938V34.1521C66.2314 34.0021 66.2981 34.0896 66.3273 34.0146V34.0729L66.3981 34.0479L66.3856 34.1312C66.4897 33.9687 66.5981 33.9604 66.6939 34.0312L66.6856 33.7896C66.8898 34.0604 66.9648 33.5563 67.1481 33.8771V33.9354C67.3773 33.2979 67.5147 34.3687 67.7522 33.7646C67.7231 33.8396 67.7647 33.8896 67.7647 33.9479C67.8772 33.8771 67.9939 33.8438 67.9939 33.3688C68.0731 33.3771 68.0606 33.5187 68.0689 33.7021C68.0689 33.4937 68.1398 33.4062 68.2023 33.3937L68.1731 33.4729L68.3523 33.4021L68.3147 33.0104C68.4106 33.1229 68.3397 33.4896 68.4314 33.3937V33.0688C68.5606 33.1313 68.6398 33.6271 68.7689 33.8646C69.3023 34.0021 69.8731 33.1688 70.3689 33.7438L70.3898 33.9896C70.4023 34.3479 70.5231 33.4604 70.5439 33.7896L70.6022 33.6271C70.6189 33.6896 70.6522 33.7604 70.6231 33.8396C70.6772 33.8521 70.6772 33.7938 70.7147 33.6854L70.7731 33.9062C70.9856 34.0771 71.1606 33.6479 71.3814 33.7354C71.6481 34.1896 72.1481 33.7688 72.4356 33.5271C72.8397 32.9938 73.3147 34.4146 73.7272 33.8021C73.7397 33.8521 73.7773 33.7396 73.7731 33.6979L74.1522 33.7479C74.1522 33.7479 75.9939 33.8813 74.5856 30.9229L74.5939 30.8437C74.3856 30.6562 74.2564 30.6146 74.1106 31.0062C74.0856 30.5271 73.9397 30.9562 73.8897 30.8021V30.7646C73.7689 31.1354 73.6314 30.4562 73.5106 30.7896C73.5148 30.7521 73.5189 30.6188 73.5439 30.6104C73.4564 30.6729 73.3356 30.7771 73.3272 30.4979C73.1147 30.5729 72.8189 30.4437 72.6814 30.8896L72.6897 30.8104C72.6147 31.1104 72.5897 30.8562 72.5022 31.0104C72.4981 30.9729 72.4897 30.9562 72.4939 30.9396C72.4106 31.2354 72.2481 30.9854 72.1772 31.1146V30.9271L72.0023 30.9688L72.0647 31.0062C72.0439 31.5187 71.9356 30.6854 71.8147 31.0188C71.7022 30.9563 71.5856 32.0812 71.4647 31.8312C71.4106 32.0687 71.5148 31.4437 71.4314 31.6271C71.4314 31.3604 71.4689 31.4604 71.4481 31.2479C71.3647 31.3729 71.3106 30.9771 71.2106 31.1562V30.9479C71.0731 31.3271 70.9522 30.6771 70.8647 31.0354C70.7272 31.2063 70.7689 30.4188 70.6272 30.8271L70.5689 30.5479C70.5064 30.5021 70.5272 30.8896 70.4564 30.7563C70.4564 30.5813 70.3689 30.6146 70.4106 30.4479C70.2564 30.1729 70.0981 30.8396 69.8939 30.3729C69.8522 30.7146 69.7481 30.5104 69.7147 30.7688C69.7106 30.6188 69.5106 30.7437 69.6231 30.4187C69.6314 30.3937 69.6523 30.3979 69.6481 30.4563L69.6606 30.2521C69.5439 29.8688 69.4523 30.4646 69.3356 30.4063C69.3689 30.4729 69.4148 30.4562 69.3856 30.5937L69.2772 30.5646L69.2981 30.3938L69.1398 30.2938L69.1606 30.5063C69.0814 30.3979 69.0564 30.0354 68.9689 30.3396C68.9314 30.5063 69.0439 30.6271 68.9606 30.6937C68.8564 30.5479 68.7022 30.3312 68.5689 30.2687C68.5814 30.5062 68.5481 30.4979 68.5106 30.5479V30.3396C68.3648 30.6271 68.4522 29.8812 68.3147 30.1146L68.3272 29.9688L68.2897 30.4021C68.1647 30.8146 68.2189 29.9729 68.0814 30.5354C68.1356 30.4979 68.1106 30.9937 68.0398 30.9021L68.0564 30.7021C68.0189 30.7438 68.0064 30.8271 67.9814 30.7854C68.0023 30.6771 67.9939 30.4937 67.9356 30.5271L67.9731 30.2771L67.8689 30.6479C67.7856 30.4313 67.6606 30.7021 67.6273 30.4229C67.6273 30.4229 67.4523 30.2854 67.4148 30.5937C67.4481 30.4021 67.3522 30.3271 67.3814 30.1021C67.3356 30.3187 67.2064 30.4979 67.1523 30.2646L67.1606 30.2396C66.9648 30.0021 66.8231 30.5646 66.6481 30.2771C66.6564 30.5187 66.5648 30.3854 66.5856 30.6937C66.4023 30.9979 66.2522 30.0688 66.1856 31.0188C66.1022 31.0688 66.0856 30.7979 66.0439 30.7479L66.0648 30.6979C65.9106 30.7771 65.8648 30.7854 65.7481 30.7646C65.6898 30.8563 65.6814 31.2979 65.5772 31.1938C65.6106 31.0188 65.5689 31.0521 65.5272 31.0521C65.5522 31.0229 65.5606 30.9604 65.5064 30.8437C65.4981 30.8979 65.4898 30.9313 65.4773 30.9604C65.4773 30.9479 65.4773 30.9354 65.4773 30.9188C65.4148 30.9813 65.4231 31.0354 65.4522 31.0604C65.4522 31.0854 65.4522 31.1229 65.4647 31.1688C65.3981 30.9438 65.2773 31.1854 65.2689 30.8813C65.0731 30.9521 64.9356 31.2646 64.7731 31.3813C64.7564 31.2271 64.7939 31.0896 64.8397 31.0271L64.7231 31.0854C64.7231 30.8604 64.7897 30.9563 64.8231 30.9104C64.6856 30.5479 64.5439 31.2729 64.3814 30.9396L64.3481 31.1146L64.3398 31.0854C64.3398 31.1771 64.3064 31.3063 64.2814 31.3354C64.2564 31.1396 64.2814 30.8854 64.2022 30.8979C64.1397 30.7104 64.0231 30.9937 63.9439 31.0979C63.9897 31.1312 63.9731 31.2396 63.9564 31.3062C63.9147 31.3146 63.8939 31.1187 63.8648 31.2021V30.9396C63.8773 31.1854 63.7564 31.2062 63.7439 31.3146C63.7189 31.1187 63.8064 31.1479 63.8148 31.0021C63.6564 31.0271 63.7356 31.0146 63.5772 31.0396C63.4939 31.2396 63.5939 31.2896 63.5523 31.5187C63.4773 31.5687 63.4064 31.7521 63.3189 31.5979L63.3481 31.8312C63.2064 32.0146 63.1231 31.9854 63.0272 31.7521C61.9856 33.6521 62.8147 34.3479 62.8147 34.3479C63.2272 34.8604 63.4398 34.1813 63.9314 33.9979H63.9606Z" fill="#B6DB65"/>
<path d="M85.293 30.9336L85.3263 31.0295C85.3263 30.9836 85.318 30.9461 85.293 30.9336Z" fill="#B6DB65"/>
<path d="M93.4609 30.8763C93.4609 30.8763 93.4651 30.8638 93.4692 30.8555C93.4651 30.8638 93.4609 30.868 93.4609 30.8763Z" fill="#B6DB65"/>
<path d="M86.5552 34.1992C86.5552 34.1992 86.551 34.2159 86.5469 34.2242L86.5552 34.1992Z" fill="#B6DB65"/>
<path d="M84.9095 33.9393C85.3429 34.056 85.4595 34.506 85.9054 34.3226C86.1179 34.3601 86.347 34.256 86.5553 34.1977C86.6553 33.8435 86.8304 34.1935 86.947 33.8977L86.9929 34.0977C87.0345 33.9977 87.0803 33.9268 87.122 34.0352V34.0935C87.1803 33.9435 87.247 34.031 87.2762 33.956V34.0143L87.347 33.9893L87.3345 34.0727C87.4387 33.9102 87.547 33.9018 87.6428 33.9727L87.6345 33.731C87.8387 34.0018 87.9137 33.4977 88.097 33.8185V33.8768C88.3262 33.2393 88.4637 34.3102 88.7012 33.706C88.672 33.781 88.7137 33.831 88.7137 33.8893C88.8262 33.8185 88.9428 33.7852 88.9428 33.3102C89.022 33.3185 89.0095 33.4601 89.0179 33.6435C89.0179 33.4351 89.0887 33.3476 89.1512 33.3351L89.122 33.4143L89.3012 33.3435L89.2637 32.9518C89.3595 33.0643 89.2887 33.431 89.3804 33.3351V33.0102C89.5095 33.0727 89.5887 33.5685 89.7178 33.806C90.2512 33.9435 90.822 33.1102 91.3179 33.6852L91.3387 33.931C91.3512 34.2893 91.472 33.4018 91.4928 33.731L91.5512 33.5685C91.5678 33.631 91.6012 33.7018 91.572 33.781C91.6262 33.7935 91.6262 33.7352 91.6637 33.6268L91.722 33.8477C91.9345 34.0185 92.1095 33.5893 92.3303 33.6768C92.597 34.131 93.097 33.7102 93.3845 33.4685C93.7887 32.9352 94.2637 34.356 94.6762 33.7435C94.6887 33.7935 94.7262 33.681 94.722 33.6394L95.1012 33.6894C95.1012 33.6894 96.9429 33.8227 95.5387 30.8643L95.547 30.7851C95.3387 30.5976 95.2095 30.556 95.0637 30.9477C95.0387 30.4685 94.8929 30.8977 94.8429 30.7435V30.706C94.722 31.0768 94.5845 30.3976 94.4637 30.731C94.4678 30.6935 94.472 30.5602 94.497 30.5518C94.4095 30.6143 94.2845 30.7185 94.2804 30.4393C94.0679 30.5143 93.772 30.3851 93.6345 30.831L93.6428 30.7518C93.5678 31.0518 93.5429 30.7977 93.4554 30.9518C93.4512 30.9143 93.4429 30.8977 93.447 30.881C93.3637 31.1769 93.2012 30.9268 93.1304 31.056V30.8685L92.9553 30.9102L93.0178 30.9477C92.997 31.4602 92.8887 30.6268 92.7679 30.9602C92.6554 30.8977 92.5387 32.0226 92.4179 31.7726C92.3637 32.0101 92.4678 31.3851 92.3845 31.5685C92.3845 31.3018 92.422 31.4019 92.4012 31.1894C92.3179 31.3144 92.2637 30.9185 92.1637 31.0976V30.8893C92.0262 31.2685 91.9053 30.6185 91.8178 30.9768C91.6803 31.1477 91.722 30.3602 91.5804 30.7685L91.522 30.4893C91.4595 30.4435 91.4804 30.831 91.4095 30.6977C91.4095 30.5227 91.322 30.556 91.3637 30.3893C91.2095 30.1143 91.0512 30.781 90.847 30.3143C90.8054 30.656 90.7012 30.4518 90.6678 30.7102C90.6637 30.5602 90.4637 30.6852 90.5762 30.3602C90.5845 30.3352 90.6054 30.3393 90.6012 30.3977L90.6137 30.1935C90.497 29.8102 90.4054 30.406 90.2887 30.3477C90.322 30.4143 90.3679 30.3977 90.3387 30.5352L90.2304 30.506L90.2512 30.3352L90.0928 30.2352L90.1137 30.4477C90.0345 30.3393 90.0095 29.9768 89.922 30.281C89.8845 30.4477 89.997 30.5685 89.9137 30.6352C89.8095 30.4893 89.6553 30.2726 89.522 30.2101C89.5345 30.4476 89.5012 30.4393 89.4637 30.4893V30.281C89.3178 30.5685 89.4053 29.8226 89.2678 30.056L89.2804 29.9102L89.2429 30.3435C89.1179 30.756 89.172 29.9143 89.0345 30.4768C89.0887 30.4393 89.0637 30.9352 88.9928 30.8435L89.0095 30.6435C88.972 30.6852 88.9595 30.7685 88.9345 30.7268C88.9554 30.6185 88.947 30.4351 88.8887 30.4685L88.9262 30.2185L88.822 30.5893C88.7387 30.3727 88.6137 30.6435 88.5803 30.3643C88.5803 30.3643 88.4053 30.2268 88.3678 30.5352C88.4012 30.3435 88.3054 30.2685 88.3345 30.0435C88.2887 30.2602 88.1595 30.4393 88.1053 30.206L88.1137 30.181C87.9178 29.9435 87.7762 30.506 87.6012 30.2185C87.6095 30.4602 87.5178 30.3268 87.5387 30.6352C87.3553 30.9393 87.2054 30.0102 87.1387 30.9602C87.0554 31.0102 87.0387 30.7393 86.997 30.6893L87.0178 30.6393C86.8637 30.7185 86.8178 30.7268 86.7012 30.706C86.6428 30.7977 86.6345 31.2393 86.5304 31.1352C86.5637 30.9602 86.522 30.9935 86.4804 30.9935C86.5054 30.9643 86.5137 30.9018 86.4595 30.7851C86.4512 30.8393 86.4429 30.8727 86.4304 30.9018C86.4304 30.8893 86.4304 30.8768 86.4304 30.8602C86.3679 30.9227 86.3762 30.9768 86.4054 31.0018C86.4054 31.0268 86.4054 31.0643 86.4179 31.1102C86.3512 30.8852 86.2304 31.1268 86.222 30.8227C86.0262 30.8935 85.8887 31.206 85.7262 31.3227C85.7095 31.1685 85.747 31.031 85.7929 30.9685L85.6762 31.0268C85.6762 30.8018 85.7428 30.8977 85.7762 30.8518C85.6387 30.4893 85.497 31.2144 85.3345 30.881L85.3012 31.056L85.2928 31.0268C85.2928 31.1185 85.2595 31.2477 85.2345 31.2768C85.2095 31.081 85.2345 30.8268 85.1554 30.8393C85.0929 30.6518 84.9762 30.9351 84.897 31.0393C84.9429 31.0726 84.9262 31.181 84.9095 31.2476C84.8679 31.256 84.847 31.0601 84.8179 31.1435V30.881C84.8304 31.1269 84.7095 31.1476 84.697 31.256C84.672 31.0601 84.7595 31.0893 84.7679 30.9435C84.6095 30.9685 84.6887 30.956 84.5304 30.981C84.447 31.181 84.547 31.231 84.5054 31.4601C84.4304 31.5101 84.3595 31.6935 84.272 31.5393L84.3012 31.7726C84.1595 31.956 84.0762 31.9268 83.9804 31.6935C82.9387 33.5935 83.7679 34.2893 83.7679 34.2893C84.1804 34.8018 84.3928 34.1227 84.8845 33.9393H84.9095Z" fill="#B6DB65"/>
<path d="M106.279 31.0391L106.308 31.1391C106.308 31.0932 106.304 31.0557 106.279 31.0391Z" fill="#B6DB65"/>
<path d="M114.508 31.5247C114.508 31.5247 114.512 31.5122 114.516 31.5039C114.512 31.5122 114.508 31.5164 114.508 31.5247Z" fill="#B6DB65"/>
<path d="M107.405 34.3516C107.405 34.3516 107.401 34.3682 107.396 34.3765L107.409 34.3516H107.405Z" fill="#B6DB65"/>
<path d="M105.787 34.0279C106.212 34.157 106.308 34.6154 106.758 34.4487C106.966 34.4946 107.196 34.3987 107.404 34.3529C107.516 34.0029 107.675 34.3612 107.804 34.0695L107.841 34.2695C107.887 34.1695 107.937 34.1029 107.971 34.2154V34.2737C108.033 34.1237 108.096 34.2196 108.129 34.1446V34.2029L108.196 34.182L108.179 34.2654C108.291 34.1112 108.4 34.1029 108.487 34.182V33.9404C108.679 34.2196 108.779 33.7237 108.946 34.0529V34.1112C109.204 33.4862 109.279 34.5654 109.55 33.9737C109.517 34.0487 109.554 34.0987 109.55 34.1571C109.662 34.0946 109.783 34.0654 109.812 33.5904C109.892 33.6029 109.871 33.7446 109.867 33.9279C109.879 33.7196 109.954 33.6362 110.017 33.6279L109.983 33.707L110.166 33.6487L110.154 33.2529C110.241 33.3696 110.15 33.732 110.246 33.6445L110.266 33.3196C110.396 33.3904 110.441 33.8904 110.55 34.1362C111.062 34.3071 111.687 33.5195 112.133 34.1279V34.3737C112.116 34.732 112.312 33.8571 112.304 34.1862L112.375 34.0279C112.387 34.0945 112.412 34.1654 112.379 34.2404C112.429 34.2571 112.437 34.1987 112.483 34.0946L112.521 34.3195C112.712 34.507 112.925 34.0946 113.133 34.1987C113.354 34.6737 113.879 34.3029 114.187 34.0862C114.642 33.5904 114.958 35.057 115.425 34.4904C115.433 34.5404 115.479 34.432 115.483 34.3904L115.85 34.482C115.85 34.482 116.296 34.5654 116.616 34.2695C116.933 33.9695 117.141 33.282 116.616 31.7279L116.633 31.6529C116.446 31.4404 116.316 31.3821 116.129 31.7571C116.158 31.2779 115.962 31.6904 115.929 31.5279L115.937 31.4904C115.771 31.8446 115.708 31.157 115.55 31.4695C115.558 31.432 115.575 31.3029 115.604 31.2946C115.508 31.3446 115.375 31.4404 115.396 31.1612C115.175 31.2112 114.887 31.0529 114.704 31.4821L114.721 31.407C114.612 31.6987 114.616 31.4404 114.512 31.5862C114.512 31.5487 114.508 31.532 114.512 31.5154C114.4 31.8029 114.258 31.5362 114.179 31.6571L114.192 31.4737L114.016 31.4987L114.075 31.5446C114.008 32.0487 113.975 31.2154 113.821 31.5321C113.712 31.4571 113.496 32.5695 113.396 32.307C113.316 32.5404 113.479 31.9237 113.379 32.0987C113.4 31.832 113.433 31.9362 113.429 31.7237C113.333 31.8404 113.317 31.4404 113.196 31.6112L113.208 31.4029C113.041 31.7695 112.975 31.1112 112.858 31.4612C112.704 31.6195 112.816 30.8404 112.637 31.2321L112.604 30.9487C112.546 30.8987 112.533 31.2862 112.475 31.1487C112.492 30.9737 112.4 31.0029 112.454 30.8362C112.321 30.5487 112.108 31.2029 111.937 30.7237C111.866 31.0612 111.779 30.8529 111.729 31.107C111.733 30.957 111.525 31.0696 111.662 30.7529C111.675 30.7279 111.692 30.732 111.687 30.7904L111.716 30.5862C111.625 30.1945 111.487 30.7821 111.375 30.7154C111.404 30.7862 111.45 30.7696 111.412 30.9071L111.308 30.8737L111.341 30.7029L111.187 30.5904L111.196 30.8029C111.125 30.6904 111.121 30.3279 111.012 30.6195C110.962 30.7862 111.066 30.9112 110.979 30.9696C110.883 30.8196 110.741 30.5904 110.612 30.5195C110.612 30.757 110.575 30.7487 110.533 30.7945L110.542 30.5862C110.383 30.8654 110.516 30.1279 110.362 30.3487L110.383 30.207L110.321 30.6362C110.171 31.0404 110.279 30.2029 110.104 30.7529C110.162 30.7196 110.104 31.2112 110.041 31.1154L110.071 30.9154C110.029 30.9571 110.012 31.0404 109.991 30.9945C110.021 30.8862 110.021 30.7029 109.962 30.7362L110.017 30.4862L109.887 30.8487C109.816 30.6279 109.675 30.8904 109.654 30.6071C109.654 30.6071 109.487 30.4571 109.429 30.7654C109.475 30.5737 109.383 30.4987 109.421 30.2737C109.362 30.4862 109.221 30.657 109.179 30.4237L109.192 30.3987C109.004 30.1529 108.833 30.7071 108.671 30.4071C108.671 30.6487 108.579 30.5112 108.587 30.8196C108.387 31.1154 108.279 30.1779 108.171 31.1237C108.083 31.1696 108.083 30.8945 108.042 30.8445L108.062 30.7945C107.9 30.8654 107.854 30.8737 107.741 30.8445C107.679 30.9362 107.65 31.3737 107.55 31.2654C107.591 31.0904 107.55 31.1237 107.508 31.1196C107.533 31.0946 107.546 31.0279 107.5 30.9071C107.491 30.9612 107.479 30.9946 107.467 31.0196C107.467 31.0071 107.467 30.9946 107.467 30.9779C107.4 31.0362 107.408 31.0904 107.437 31.1196C107.437 31.1446 107.437 31.1821 107.441 31.2279C107.383 30.9987 107.254 31.2362 107.258 30.932C107.058 30.9945 106.908 31.2987 106.742 31.4112C106.729 31.257 106.771 31.1196 106.821 31.0612L106.704 31.1154C106.712 30.8904 106.775 30.9904 106.812 30.9445C106.687 30.5779 106.516 31.2946 106.366 30.9571L106.325 31.1321L106.317 31.1029C106.317 31.1945 106.275 31.3237 106.25 31.3529C106.233 31.157 106.266 30.9029 106.187 30.9154C106.129 30.7237 106.004 31.0029 105.921 31.107C105.962 31.1404 105.946 31.2487 105.921 31.3154C105.879 31.3195 105.862 31.1237 105.829 31.207V30.9445C105.841 31.1904 105.721 31.207 105.704 31.3154C105.687 31.1195 105.771 31.1487 105.787 31.0029C105.625 31.0237 105.708 31.0112 105.546 31.0321C105.454 31.2279 105.554 31.282 105.504 31.5112C105.429 31.5612 105.35 31.7404 105.266 31.5821L105.287 31.8154C105.142 31.9904 105.058 31.9612 104.971 31.7237C103.875 33.5945 104.679 34.3112 104.679 34.3112C105.075 34.8362 105.3 34.1654 105.796 33.9987L105.787 34.0279Z" fill="#B6DB65"/>
<path d="M127.279 33.7422L127.288 33.8422C127.3 33.8005 127.3 33.7589 127.279 33.7422Z" fill="#B6DB65"/>
<path d="M135.201 36.3682C135.201 36.3682 135.21 36.3599 135.218 36.3516C135.21 36.3557 135.205 36.3641 135.201 36.3682Z" fill="#B6DB65"/>
<path d="M127.626 37.2227C127.626 37.2227 127.617 37.2351 127.613 37.2435L127.63 37.2227H127.626Z" fill="#B6DB65"/>
<path d="M126.155 36.5506C126.534 36.7672 126.525 37.2339 126.988 37.1672C127.18 37.2547 127.417 37.2172 127.626 37.2172C127.813 36.9047 127.88 37.2839 128.071 37.0339L128.059 37.238C128.125 37.1505 128.188 37.1006 128.196 37.2131L128.18 37.2672C128.28 37.1381 128.317 37.2422 128.367 37.1797L128.346 37.2339H128.421L128.388 37.3047C128.53 37.1797 128.634 37.2005 128.705 37.2964L128.767 37.0631C128.88 37.3797 129.096 36.9214 129.171 37.2797L129.15 37.3339C129.559 36.7922 129.363 37.8547 129.767 37.3505C129.717 37.413 129.742 37.4714 129.721 37.5297C129.846 37.4964 129.963 37.4964 130.113 37.0464C130.188 37.0756 130.13 37.2089 130.08 37.3839C130.142 37.1839 130.238 37.1256 130.3 37.1298L130.246 37.1964L130.438 37.1839L130.53 36.8006C130.584 36.9381 130.4 37.2631 130.517 37.2006L130.617 36.8922C130.721 36.9964 130.634 37.4839 130.675 37.7548C131.117 38.0506 131.925 37.4589 132.18 38.1672L132.113 38.4047C131.996 38.7422 132.421 37.9547 132.325 38.2714L132.434 38.1381C132.425 38.2047 132.434 38.2797 132.38 38.3464C132.421 38.3756 132.446 38.3214 132.517 38.2339L132.488 38.4631C132.613 38.6964 132.93 38.3589 133.096 38.5172C133.167 39.0339 133.767 38.8256 134.117 38.7131C134.696 38.3797 134.538 39.8631 135.15 39.4714C135.142 39.5214 135.221 39.4339 135.238 39.3964L135.55 39.5964C135.55 39.5964 135.938 39.8172 136.334 39.6339C136.725 39.4505 137.159 38.8756 137.159 37.2297L137.2 37.1631C137.088 36.9006 136.984 36.8047 136.684 37.0964C136.867 36.6506 136.546 36.9756 136.567 36.8173L136.588 36.7839C136.317 37.0631 136.471 36.3922 136.217 36.6422C136.238 36.6089 136.292 36.4922 136.326 36.4964C136.217 36.5131 136.059 36.5589 136.167 36.3005C135.938 36.2755 135.705 36.0339 135.4 36.3881L135.438 36.3214C135.246 36.5672 135.326 36.3214 135.184 36.4256C135.192 36.3881 135.196 36.3714 135.2 36.3547C135.005 36.5964 134.95 36.3006 134.834 36.3881L134.9 36.2131L134.725 36.1881L134.771 36.2505C134.555 36.713 134.771 35.9047 134.53 36.1631C134.442 36.0589 133.913 37.0589 133.896 36.7797C133.755 36.9797 134.088 36.4381 133.938 36.5756C134.034 36.3256 134.038 36.4339 134.096 36.2297C133.971 36.3172 134.067 35.9256 133.905 36.0547L133.975 35.8589C133.709 36.1631 133.834 35.5089 133.617 35.8131C133.426 35.9214 133.746 35.2047 133.467 35.5297L133.513 35.2464C133.471 35.1797 133.35 35.5506 133.334 35.4006C133.4 35.2381 133.3 35.2381 133.396 35.0964C133.342 34.7797 132.959 35.3505 132.921 34.8422C132.763 35.1505 132.734 34.9214 132.613 35.1547C132.659 35.013 132.421 35.063 132.642 34.7964C132.659 34.7755 132.675 34.7839 132.655 34.8381L132.738 34.6506C132.755 34.2464 132.463 34.7755 132.371 34.6839C132.384 34.7589 132.434 34.7589 132.355 34.8797L132.259 34.8172L132.338 34.6631L132.217 34.5131L132.167 34.7214C132.13 34.5922 132.217 34.2422 132.034 34.4964C131.942 34.6422 132.013 34.7922 131.909 34.8256C131.855 34.6547 131.775 34.3964 131.663 34.2922C131.6 34.5214 131.567 34.5047 131.517 34.538L131.58 34.3381C131.35 34.5672 131.675 33.888 131.463 34.0589L131.521 33.9256L131.35 34.3255C131.1 34.6755 131.417 33.8922 131.105 34.3839C131.171 34.3672 130.988 34.8256 130.95 34.7214L131.03 34.538C130.98 34.5672 130.942 34.6422 130.93 34.5964C130.984 34.5006 131.03 34.3214 130.967 34.3381L131.08 34.113L130.863 34.4297C130.85 34.2005 130.642 34.4172 130.696 34.1381C130.696 34.1381 130.567 33.9506 130.434 34.2339C130.525 34.0631 130.455 33.963 130.546 33.7547C130.438 33.9464 130.255 34.0756 130.271 33.8381L130.288 33.8172C130.163 33.5297 129.859 34.0255 129.771 33.6964C129.709 33.9297 129.655 33.7756 129.588 34.0797C129.321 34.3172 129.438 33.3839 129.105 34.2755C129.009 34.3005 129.071 34.0339 129.042 33.9756L129.075 33.9339C128.9 33.9631 128.855 33.9589 128.746 33.9089C128.663 33.9839 128.534 34.4047 128.463 34.2714C128.542 34.113 128.492 34.1297 128.455 34.1214C128.488 34.1005 128.513 34.0422 128.492 33.913C128.471 33.963 128.45 33.9922 128.434 34.0172C128.434 34.0047 128.438 33.9922 128.442 33.9756C128.363 34.0172 128.359 34.0714 128.38 34.1047C128.371 34.1297 128.363 34.1631 128.359 34.2131C128.355 33.9756 128.171 34.1756 128.242 33.8839C128.034 33.8964 127.813 34.1631 127.626 34.2339C127.646 34.0797 127.721 33.9547 127.784 33.9089L127.655 33.9339C127.713 33.7172 127.755 33.8256 127.8 33.7922C127.759 33.4047 127.43 34.0672 127.359 33.7047L127.28 33.8672V33.8381C127.255 33.9297 127.188 34.0422 127.155 34.0672C127.18 33.8714 127.271 33.6339 127.188 33.6256C127.171 33.4297 126.988 33.6714 126.88 33.7505C126.917 33.7922 126.875 33.8964 126.838 33.9547C126.796 33.9547 126.821 33.7589 126.771 33.8297L126.834 33.5756C126.788 33.8214 126.667 33.8089 126.625 33.9089C126.65 33.713 126.725 33.7631 126.771 33.6214C126.609 33.6047 126.688 33.613 126.525 33.5964C126.392 33.7672 126.48 33.8422 126.384 34.0547C126.296 34.0881 126.184 34.2464 126.138 34.0714L126.109 34.3047C125.93 34.4464 125.855 34.4006 125.817 34.1506C125.084 34.9506 124.892 35.5714 124.867 35.9922C124.846 36.4089 125 36.6256 125 36.6256C125.267 37.2172 125.625 36.6089 126.138 36.5506H126.155Z" fill="#B6DB65"/>
<path d="M146.389 43.1484L146.352 43.2443C146.381 43.2109 146.397 43.1734 146.389 43.1484Z" fill="#B6DB65"/>
<path d="M152.367 49.0669C152.367 49.0669 152.38 49.0628 152.388 49.0586C152.38 49.0586 152.371 49.0586 152.367 49.0669Z" fill="#B6DB65"/>
<path d="M145.238 46.4492C145.238 46.4492 145.225 46.4575 145.217 46.4617L145.242 46.4492H145.238Z" fill="#B6DB65"/>
<path d="M144.199 45.2388C144.449 45.5888 144.24 46.0097 144.686 46.1388C144.815 46.2972 145.049 46.3597 145.236 46.4472C145.54 46.243 145.436 46.6138 145.715 46.468L145.615 46.6471C145.711 46.5971 145.79 46.5763 145.749 46.6846L145.707 46.7263C145.853 46.6513 145.84 46.7638 145.911 46.7263L145.87 46.768L145.94 46.7971L145.878 46.8513C146.061 46.7971 146.145 46.8597 146.161 46.9763L146.32 46.793C146.282 47.1263 146.674 46.8055 146.586 47.1596L146.545 47.2013C147.149 46.8888 146.503 47.7596 147.086 47.4805C147.011 47.5138 147.007 47.5805 146.965 47.618C147.09 47.643 147.199 47.693 147.528 47.3555C147.578 47.4138 147.47 47.5055 147.349 47.643C147.495 47.493 147.603 47.4805 147.657 47.5138L147.582 47.5513L147.757 47.6263L148.011 47.3221C147.999 47.468 147.69 47.6805 147.82 47.6763L148.049 47.443C148.095 47.5805 147.799 47.9805 147.715 48.2388C147.97 48.693 148.957 48.5304 148.857 49.2721L148.69 49.4513C148.432 49.6971 149.17 49.193 148.936 49.4305L149.095 49.3638C149.057 49.418 149.028 49.4888 148.949 49.5222C148.974 49.568 149.015 49.5305 149.124 49.4888L148.995 49.6763C148.995 49.943 149.436 49.7846 149.507 50.0055C149.328 50.493 149.953 50.5846 150.315 50.6513C150.986 50.6221 150.14 51.8596 150.861 51.7971C150.828 51.8388 150.94 51.7971 150.974 51.7721L151.149 52.093C151.149 52.093 151.378 52.468 151.811 52.4972C152.24 52.5222 152.903 52.2346 153.695 50.7888L153.761 50.7513C153.79 50.4638 153.745 50.3263 153.336 50.443C153.707 50.1388 153.27 50.2721 153.365 50.1388L153.399 50.118C153.024 50.2346 153.482 49.7138 153.14 49.8138C153.174 49.793 153.282 49.718 153.303 49.7347C153.199 49.6972 153.036 49.6638 153.253 49.4888C153.057 49.3596 152.97 49.0305 152.532 49.2013L152.599 49.1597C152.311 49.2847 152.499 49.1055 152.324 49.1346C152.349 49.1096 152.361 49.093 152.374 49.0805C152.086 49.2013 152.178 48.9138 152.032 48.9388L152.174 48.818L152.032 48.7096L152.045 48.7846C151.636 49.093 152.207 48.4763 151.87 48.593C151.84 48.4597 150.907 49.0972 151.02 48.843C150.803 48.9555 151.349 48.6305 151.153 48.6847C151.353 48.5097 151.307 48.6055 151.453 48.4513C151.303 48.468 151.57 48.168 151.365 48.2055L151.52 48.068C151.145 48.2138 151.553 47.693 151.22 47.8638C150.999 47.8722 151.615 47.3847 151.215 47.543L151.386 47.3138C151.378 47.2346 151.099 47.5096 151.153 47.3638C151.286 47.2471 151.199 47.2013 151.349 47.1222C151.445 46.818 150.84 47.1471 151.036 46.6763C150.753 46.8763 150.832 46.6597 150.62 46.8097C150.724 46.7013 150.49 46.6388 150.811 46.5013C150.836 46.4888 150.845 46.5055 150.803 46.5471L150.961 46.418C151.157 46.0638 150.653 46.4055 150.615 46.2763C150.59 46.3471 150.636 46.3721 150.515 46.443L150.457 46.343L150.599 46.2388L150.557 46.0513L150.42 46.2138C150.44 46.0805 150.682 45.8055 150.403 45.9513C150.253 46.0388 150.253 46.2055 150.145 46.193C150.174 46.0138 150.215 45.7471 150.161 45.6013C149.999 45.7805 149.982 45.7471 149.92 45.7555L150.065 45.6055C149.757 45.7055 150.349 45.243 150.082 45.3013L150.195 45.2096L149.861 45.4888C149.478 45.6888 150.111 45.1305 149.615 45.4305C149.682 45.4471 149.315 45.7763 149.328 45.6638L149.482 45.5346C149.424 45.5346 149.357 45.5888 149.365 45.543C149.457 45.4805 149.578 45.343 149.511 45.3263L149.715 45.1721L149.378 45.3597C149.465 45.1472 149.182 45.2471 149.353 45.0221C149.353 45.0221 149.315 44.7972 149.074 44.993C149.232 44.8805 149.211 44.7555 149.386 44.6138C149.203 44.7388 148.982 44.7721 149.099 44.568L149.124 44.5555C149.132 44.243 148.645 44.5555 148.703 44.218C148.549 44.4013 148.565 44.2388 148.374 44.4804C148.032 44.5763 148.532 43.7846 147.849 44.4471C147.749 44.4305 147.92 44.2138 147.92 44.1471L147.97 44.1221C147.799 44.0721 147.757 44.0472 147.682 43.9513C147.578 43.9805 147.278 44.3097 147.27 44.1597C147.411 44.0513 147.357 44.0471 147.328 44.018C147.365 44.0138 147.415 43.9722 147.453 43.8472C147.411 43.8847 147.382 43.9013 147.353 43.9138C147.361 43.9013 147.365 43.893 147.382 43.8805C147.29 43.8805 147.265 43.9346 147.274 43.9721C147.253 43.993 147.236 44.0179 147.211 44.0638C147.307 43.8471 147.057 43.9513 147.245 43.718C147.045 43.643 146.736 43.7846 146.536 43.7721C146.62 43.643 146.74 43.5596 146.815 43.5429L146.686 43.5096C146.832 43.3388 146.82 43.4555 146.878 43.443C146.999 43.0763 146.424 43.5347 146.507 43.1763L146.37 43.293L146.382 43.2638C146.324 43.3346 146.215 43.4096 146.178 43.418C146.282 43.2513 146.461 43.0721 146.39 43.0305C146.457 42.843 146.19 42.9888 146.057 43.018C146.074 43.0722 145.995 43.1471 145.936 43.1888C145.899 43.168 146.003 43.0013 145.928 43.0471L146.09 42.8388C145.949 43.043 145.84 42.9805 145.761 43.0555C145.865 42.8888 145.915 42.9638 146.015 42.8555C145.874 42.7722 145.945 42.8138 145.799 42.7305C145.607 42.8305 145.657 42.9346 145.482 43.0888C145.39 43.0805 145.22 43.1805 145.249 43.0013L145.128 43.2013C144.903 43.2555 144.853 43.1846 144.924 42.9388C143.928 43.3721 143.503 43.8638 143.315 44.2388C143.128 44.6138 143.178 44.8721 143.178 44.8721C143.178 45.518 143.749 45.1013 144.232 45.2555L144.199 45.2388Z" fill="#B6DB65"/>
<path d="M158.22 59.8359L158.133 59.8818C158.174 59.8693 158.212 59.8526 158.22 59.8359Z" fill="#B6DB65"/>
<path d="M155.3 60.5654C155.25 60.7945 154.833 60.9779 155.071 61.1195C155.062 61.2237 155.191 61.2945 155.271 61.3695C155.621 61.3154 155.308 61.4903 155.608 61.4612L155.421 61.5362C155.525 61.5279 155.596 61.5279 155.496 61.5779L155.441 61.5904C155.596 61.5779 155.516 61.632 155.591 61.6237L155.533 61.6362L155.566 61.6612L155.483 61.6778C155.65 61.6778 155.675 61.7279 155.616 61.7904L155.85 61.7237C155.612 61.8862 156.108 61.7904 155.821 61.957L155.762 61.9695C156.408 61.9154 155.383 62.2445 156 62.2029C155.925 62.207 155.879 62.2403 155.825 62.2528C155.904 62.2862 155.954 62.332 156.416 62.2195C156.416 62.257 156.279 62.2862 156.104 62.332C156.308 62.282 156.4 62.2945 156.416 62.3195H156.333L156.421 62.3903L156.8 62.282C156.7 62.3529 156.337 62.4029 156.437 62.4237L156.754 62.3487C156.708 62.4237 156.233 62.5737 156.012 62.6862C155.929 62.9529 156.8 63.0487 156.283 63.3903L156.046 63.4487C155.696 63.5237 156.575 63.407 156.254 63.482H156.421C156.358 63.4987 156.296 63.5237 156.212 63.5279C156.204 63.5529 156.262 63.5445 156.371 63.5403L156.158 63.607C156.008 63.7362 156.446 63.7362 156.375 63.857C155.95 64.057 156.4 64.2112 156.662 64.3112C157.221 64.4237 155.846 64.8487 156.475 64.9528C156.425 64.9653 156.541 64.9653 156.579 64.9612L156.554 65.1445C156.554 65.1445 156.546 65.3612 156.896 65.457C157.246 65.5487 157.954 65.5445 159.383 65.0154H159.462C159.637 64.882 159.671 64.807 159.271 64.782C159.746 64.707 159.308 64.6862 159.458 64.6445H159.496C159.121 64.6237 159.783 64.4654 159.446 64.4445C159.483 64.4445 159.616 64.4237 159.625 64.4403C159.558 64.4028 159.441 64.3529 159.721 64.3112C159.633 64.2112 159.737 64.0362 159.287 64.0362L159.366 64.0279C159.062 64.0362 159.312 63.982 159.154 63.9612C159.191 63.9528 159.208 63.9487 159.225 63.9445C158.925 63.9445 159.158 63.8237 159.029 63.8112L159.212 63.7779L159.154 63.6987L159.121 63.7362C158.616 63.8112 159.425 63.6195 159.087 63.6112C159.141 63.5404 158.02 63.6779 158.258 63.5737C158.016 63.5862 158.646 63.532 158.458 63.5195C158.721 63.4695 158.625 63.5112 158.833 63.4612C158.7 63.4404 159.087 63.3445 158.904 63.3237L159.108 63.2862C158.725 63.2862 159.354 63.107 158.987 63.1278C158.804 63.0903 159.583 62.9653 159.171 62.9695L159.441 62.8862C159.479 62.8445 159.1 62.9278 159.225 62.8695C159.4 62.8362 159.354 62.7987 159.525 62.7862C159.779 62.6529 159.108 62.7028 159.541 62.5028C159.2 62.5487 159.391 62.457 159.133 62.4904C159.279 62.457 159.133 62.382 159.466 62.3695C159.496 62.3695 159.491 62.3778 159.433 62.3903L159.633 62.357C159.996 62.2153 159.404 62.2904 159.45 62.2195C159.387 62.2529 159.412 62.2695 159.271 62.2862L159.287 62.2237L159.458 62.1987L159.537 62.0945L159.333 62.1529C159.429 62.0904 159.779 61.9945 159.475 62.0154C159.308 62.032 159.204 62.1153 159.129 62.0903C159.258 62.007 159.454 61.8779 159.5 61.7945C159.266 61.857 159.275 61.8362 159.221 61.8278L159.421 61.7778C159.125 61.7695 159.858 61.6445 159.616 61.6278L159.758 61.6029L159.333 61.6862C158.916 61.7195 159.741 61.5487 159.179 61.6112C159.221 61.632 158.737 61.732 158.816 61.6778L159.012 61.6404C158.966 61.632 158.883 61.6445 158.921 61.6237C159.029 61.6112 159.204 61.5612 159.166 61.5404L159.416 61.4987L159.046 61.532C159.246 61.4404 158.966 61.4403 159.237 61.3528C159.237 61.3528 159.35 61.2279 159.046 61.2862C159.237 61.257 159.296 61.1903 159.516 61.1487C159.3 61.1778 159.112 61.157 159.329 61.0695H159.354C159.554 60.907 158.996 60.9779 159.25 60.8154C159.016 60.882 159.133 60.7987 158.837 60.8945C158.521 60.882 159.395 60.557 158.466 60.782C158.404 60.7528 158.666 60.6737 158.708 60.6362H158.758C158.662 60.5737 158.646 60.557 158.65 60.4904C158.554 60.4904 158.129 60.6028 158.212 60.5237C158.387 60.4903 158.35 60.4779 158.341 60.4612C158.371 60.4654 158.433 60.4529 158.541 60.3945C158.487 60.407 158.454 60.4112 158.425 60.4112C158.437 60.4112 158.45 60.4029 158.466 60.3987C158.395 60.382 158.346 60.407 158.329 60.4278C158.304 60.4362 158.271 60.4445 158.225 60.4653C158.433 60.3695 158.183 60.3779 158.471 60.2862C158.375 60.207 158.058 60.232 157.921 60.1862C158.066 60.132 158.204 60.1112 158.266 60.1153L158.196 60.0737C158.408 60.007 158.329 60.0695 158.375 60.0737C158.7 59.8987 157.987 60.0404 158.279 59.8654L158.104 59.9028L158.129 59.8903C158.041 59.9195 157.912 59.9404 157.879 59.9362C158.062 59.8654 158.308 59.8029 158.283 59.7654C158.454 59.6779 158.166 59.707 158.054 59.6987C158.029 59.732 157.925 59.757 157.858 59.7695C157.846 59.7529 158.029 59.682 157.941 59.6903L158.191 59.607C157.958 59.6904 157.921 59.6404 157.816 59.6654C158 59.5945 157.987 59.6445 158.125 59.6029C158.075 59.532 158.1 59.5695 158.05 59.4987C157.85 59.5195 157.816 59.582 157.591 59.6362C157.529 59.6153 157.346 59.6362 157.483 59.5487L157.266 59.6362C157.071 59.6278 157.083 59.5779 157.291 59.457C156.308 59.5154 155.691 59.7112 155.312 59.8779C154.937 60.0487 154.804 60.1945 154.804 60.1945C154.379 60.5404 155.05 60.4112 155.296 60.5737L155.3 60.5654Z" fill="#B6DB65"/>
</svg>
