<svg width="88" height="60" viewBox="0 0 88 60" fill="none" xmlns="http://www.w3.org/2000/svg">
<path d="M87.0861 2.57517L86.9902 2.55859C87.0319 2.57526 87.0694 2.58351 87.0861 2.57517Z" fill="#B6DB65"/>
<path d="M85.7578 6.16016C85.7578 6.16016 85.7703 6.1685 85.7787 6.17267C85.7703 6.1685 85.7661 6.16432 85.7578 6.16016Z" fill="#B6DB65"/>
<path d="M83.8099 2.0047C83.8099 2.0047 83.7974 1.99635 83.7891 1.99219L83.8099 2.0047Z" fill="#B6DB65"/>
<path d="M84.3238 1.40008C84.1446 1.54175 83.6988 1.43755 83.7988 1.68755C83.728 1.76672 83.7905 1.89589 83.8071 2.00422C84.1238 2.16672 83.7696 2.12085 84.028 2.27085L83.8321 2.2209C83.9196 2.2709 83.978 2.3167 83.8696 2.29587L83.8155 2.27502C83.9488 2.35418 83.853 2.35003 83.9196 2.38753L83.8655 2.36667L83.8779 2.40838L83.803 2.37501C83.9363 2.47501 83.928 2.52507 83.8446 2.53757L84.0738 2.61671C83.7863 2.60838 84.2446 2.81667 83.9155 2.78334L83.8613 2.76259C84.4196 3.08342 83.3946 2.76259 83.9238 3.07926C83.8571 3.04176 83.8071 3.0417 83.7488 3.02087C83.7946 3.0917 83.8113 3.15419 84.2529 3.32503C84.2321 3.35836 84.1029 3.30005 83.9279 3.24171C84.1238 3.31671 84.1904 3.37501 84.1946 3.40834L84.1238 3.36673L84.1613 3.46673L84.5363 3.59175C84.4155 3.59175 84.0863 3.43343 84.1571 3.50427L84.4613 3.62084C84.3779 3.65418 83.9071 3.51257 83.6613 3.47924C83.4446 3.65424 84.1279 4.1959 83.5113 4.20007L83.278 4.12092C82.9446 3.99592 83.7488 4.37086 83.4363 4.25836L83.5779 4.34167C83.5154 4.325 83.4446 4.31253 83.378 4.27087C83.3571 4.28753 83.4113 4.30836 83.503 4.36669L83.2863 4.3084C83.0905 4.3334 83.4613 4.56675 83.3446 4.62925C82.8821 4.57508 83.1863 4.93758 83.3654 5.15425C83.7946 5.52925 82.3988 5.18751 82.8988 5.59584C82.8488 5.58334 82.9488 5.64173 82.9863 5.65423L82.878 5.79593C82.878 5.79593 82.7738 5.97918 83.0363 6.22918C83.2988 6.47918 83.9321 6.80419 85.4113 7.07503L85.4821 7.10839C85.6905 7.09172 85.753 7.0501 85.4155 6.8376C85.8613 7.0126 85.4905 6.78342 85.6405 6.82092L85.678 6.8376C85.3571 6.64177 86.0071 6.83753 85.7196 6.66253C85.753 6.6792 85.8738 6.72918 85.878 6.74584C85.8363 6.68334 85.7571 6.59172 86.0196 6.69172C85.9863 6.57089 86.1571 6.48755 85.7654 6.26255L85.8363 6.29591C85.5696 6.15008 85.8113 6.23336 85.6863 6.1417C85.7196 6.1542 85.7404 6.15838 85.7529 6.16255C85.4904 6.01255 85.753 6.03755 85.6446 5.95839L85.8154 6.02502L85.8029 5.93336L85.7571 5.94588C85.2863 5.74588 86.0738 6.00837 85.7905 5.83337C85.8696 5.80837 84.8446 5.3376 85.0946 5.37927C84.8821 5.26677 85.4488 5.54589 85.2904 5.44172C85.5363 5.53756 85.4405 5.52083 85.6405 5.59167C85.5363 5.50833 85.9154 5.63337 85.7654 5.52087L85.9571 5.59584C85.628 5.39584 86.253 5.58753 85.9321 5.41253C85.7946 5.28753 86.5196 5.60001 86.1655 5.38751L86.4363 5.46675C86.4904 5.45842 86.1238 5.3209 86.2613 5.34173C86.4238 5.4084 86.4071 5.35422 86.5571 5.43338C86.8405 5.46672 86.2446 5.15422 86.7155 5.23339C86.403 5.08756 86.6113 5.11671 86.3738 5.01255C86.5155 5.06255 86.4321 4.93336 86.7155 5.10003C86.7405 5.11253 86.7321 5.12086 86.678 5.10003L86.8655 5.17917C87.2446 5.26667 86.703 5.00835 86.778 4.97918C86.7113 4.97085 86.7196 4.9959 86.5946 4.9334L86.6363 4.89587L86.7946 4.96667L86.9155 4.9334L86.7155 4.86667C86.8321 4.87084 87.1738 4.99175 86.9071 4.84175C86.7571 4.76258 86.628 4.77089 86.578 4.71256C86.7321 4.72089 86.9613 4.7292 87.0405 4.6917C86.8155 4.61254 86.828 4.60002 86.7905 4.56668L86.9863 4.63759C86.7405 4.47509 87.4196 4.77925 87.2321 4.63759L87.3654 4.69588L86.9654 4.52508C86.6029 4.32508 87.378 4.65005 86.878 4.38755C86.903 4.42505 86.4446 4.2375 86.5404 4.2375L86.7238 4.31675C86.6905 4.28341 86.6155 4.25002 86.6571 4.25418C86.753 4.30418 86.9279 4.36259 86.9029 4.32509L87.1321 4.42925L86.8029 4.25418C87.0154 4.29585 86.7863 4.14176 87.0571 4.22926C87.0571 4.22926 87.2155 4.20005 86.9321 4.07505C87.1071 4.15838 87.1905 4.14177 87.3988 4.23343C87.203 4.1376 87.0571 4.01671 87.2863 4.07505L87.3071 4.08756C87.5613 4.08756 87.0613 3.82503 87.3571 3.85003C87.128 3.77086 87.2696 3.77507 86.978 3.67923C86.7238 3.49173 87.6196 3.75009 86.7404 3.39176C86.7071 3.33759 86.9655 3.42502 87.0196 3.42502L87.0654 3.45005C87.0196 3.35421 87.0154 3.33342 87.0571 3.28759C86.9779 3.22926 86.5655 3.07508 86.6821 3.06675C86.8405 3.14175 86.8196 3.11251 86.8238 3.09584C86.8446 3.11667 86.903 3.14173 87.0238 3.1584C86.9738 3.13757 86.9446 3.12085 86.9196 3.10418C86.9321 3.10835 86.9446 3.11253 86.9613 3.11669C86.9154 3.06669 86.8613 3.05424 86.8321 3.0584C86.8071 3.05007 86.7738 3.03754 86.728 3.02504C86.953 3.07504 86.7446 2.93755 87.028 3.03755C86.9946 2.92922 86.7238 2.76258 86.6404 2.65008C86.7904 2.69591 86.9113 2.75836 86.9613 2.80002L86.928 2.72922C87.1363 2.80422 87.0363 2.80005 87.0738 2.83339C87.4363 2.89589 86.7821 2.58756 87.1196 2.62923L86.9571 2.55425H86.9863C86.8988 2.52925 86.7863 2.47092 86.7613 2.45009C86.9488 2.50425 87.1821 2.6001 87.1863 2.5626C87.3738 2.6001 87.128 2.45419 87.0405 2.38336C87.003 2.39169 86.903 2.35006 86.8405 2.31672C86.8405 2.29589 87.0279 2.35422 86.9529 2.31255L87.203 2.40004C86.9655 2.32504 86.9696 2.26674 86.8696 2.22507C87.0571 2.27924 87.0155 2.30833 87.153 2.3625C87.153 2.28333 87.1529 2.32509 87.1571 2.24592C86.9863 2.14176 86.9196 2.17086 86.7113 2.07503C86.6738 2.02503 86.5155 1.93334 86.678 1.95001L86.453 1.88338C86.3071 1.76254 86.3446 1.73337 86.5821 1.77087C84.9613 0.695867 84.1696 0.820855 84.1696 0.820855C83.6155 0.820855 84.2238 1.13759 84.3155 1.40842L84.3238 1.40008Z" fill="#B6DB65"/>
<path d="M81.3383 15.2866L81.2383 15.2617C81.2758 15.2826 81.3133 15.295 81.3383 15.2866Z" fill="#B6DB65"/>
<path d="M77.3711 21.3047C77.3711 21.3047 77.3794 21.3171 77.3836 21.3213C77.3836 21.3129 77.3753 21.3089 77.3711 21.3047Z" fill="#B6DB65"/>
<path d="M77.9757 14.5481C77.9757 14.5481 77.9632 14.5357 77.959 14.5273L77.9757 14.5481Z" fill="#B6DB65"/>
<path d="M78.9007 13.4996C78.6215 13.7579 78.1798 13.6079 78.1507 14.0246C78.0298 14.1579 78.0215 14.3745 77.9799 14.5495C78.2382 14.8037 77.8673 14.7495 78.0673 14.987L77.8757 14.9162C77.9424 14.9996 77.9799 15.0662 77.8757 15.0412L77.8257 15.0079C77.9299 15.1287 77.8215 15.1328 77.8715 15.1912L77.8215 15.1579L77.8132 15.2245L77.7465 15.1704C77.8382 15.3288 77.7965 15.4121 77.6923 15.4412L77.9007 15.5621C77.5798 15.5621 77.9715 15.8829 77.6174 15.8412L77.5674 15.8078C78.0007 16.3162 77.0382 15.8328 77.4382 16.3287C77.3882 16.2662 77.3298 16.2704 77.2798 16.237C77.2882 16.3537 77.2632 16.4537 77.659 16.7162C77.6173 16.7704 77.5048 16.6829 77.3465 16.5871C77.5215 16.6996 77.559 16.7995 77.5423 16.8495L77.4882 16.7829L77.4632 16.9495L77.809 17.1413C77.6715 17.1454 77.3965 16.8954 77.434 17.0121L77.7048 17.1912C77.5882 17.2495 77.1424 17.0287 76.884 16.9829C76.5257 17.2704 76.9298 18.1412 76.2215 18.1496L76.0132 18.0245C75.7173 17.8245 76.3799 18.4245 76.1007 18.2454L76.2049 18.3787C76.1465 18.3537 76.0715 18.3371 76.0215 18.2704C75.984 18.2996 76.0299 18.3329 76.1007 18.4245L75.8924 18.3329C75.6507 18.3745 75.909 18.7454 75.7298 18.8454C75.234 18.7537 75.3215 19.337 75.3632 19.6745C75.5757 20.2745 74.2132 19.7037 74.4798 20.3537C74.434 20.3287 74.5049 20.4246 74.534 20.4496L74.2965 20.6621C74.2965 20.6621 74.0299 20.937 74.1299 21.3328C74.2382 21.7287 74.7007 22.2746 76.234 22.7496L76.2882 22.8037C76.5548 22.7829 76.659 22.7162 76.434 22.3703C76.8173 22.6578 76.5673 22.2829 76.7173 22.3496L76.7465 22.3787C76.5298 22.0578 77.134 22.3912 76.9424 22.0995C76.9715 22.1287 77.0715 22.2121 77.0632 22.2371C77.0632 22.1371 77.0507 21.987 77.2715 22.1537C77.334 21.9578 77.6007 21.8287 77.3173 21.462L77.3715 21.5163C77.1757 21.2788 77.3923 21.4162 77.3173 21.262C77.3507 21.2829 77.3673 21.2871 77.3798 21.2996C77.1882 21.0579 77.4757 21.0996 77.4132 20.9746L77.5632 21.0829L77.6174 20.937L77.5507 20.9579C77.1548 20.6329 77.8715 21.0621 77.6756 20.7746C77.7881 20.7329 76.9465 19.9787 77.209 20.0454C77.0465 19.8621 77.4965 20.3121 77.3923 20.1412C77.609 20.2954 77.5048 20.2663 77.6882 20.3788C77.6298 20.2454 77.9798 20.4413 77.8882 20.2621L78.059 20.3828C77.8215 20.062 78.409 20.362 78.1632 20.087C78.0965 19.887 78.709 20.3829 78.4549 20.0412L78.7132 20.1663C78.7799 20.1496 78.4549 19.9329 78.6007 19.9621C78.7424 20.0663 78.759 19.9829 78.8757 20.1079C79.1798 20.1537 78.7173 19.6537 79.2048 19.7745C78.9465 19.5453 79.1632 19.5871 78.9715 19.4162C79.0965 19.4996 79.0965 19.2787 79.3048 19.5495C79.3215 19.5703 79.3048 19.5828 79.2632 19.5495L79.4215 19.6745C79.7965 19.8079 79.3548 19.3995 79.4632 19.3495C79.3923 19.337 79.384 19.3787 79.284 19.2787L79.359 19.2162L79.4882 19.3288L79.6507 19.2704L79.4632 19.1662C79.5923 19.1704 79.9049 19.3538 79.7007 19.1204C79.5799 18.9954 79.4257 19.0163 79.4132 18.9163C79.584 18.9204 79.8424 18.9287 79.9632 18.8662C79.759 18.7412 79.784 18.7204 79.759 18.6662L79.934 18.7787C79.7632 18.5162 80.3382 18.9912 80.2174 18.762L80.3299 18.8495L79.9882 18.5829C79.7048 18.2621 80.3798 18.7704 79.9798 18.3579C79.9798 18.4204 79.584 18.1245 79.6924 18.1245L79.8507 18.2454C79.834 18.1954 79.7715 18.137 79.8173 18.1412C79.8965 18.2162 80.0548 18.3079 80.0548 18.2496L80.2465 18.4162L79.9882 18.137C80.209 18.1954 80.0423 17.9538 80.2965 18.0788C80.2965 18.0788 80.4965 18.0245 80.2548 17.8245C80.4007 17.9537 80.509 17.9204 80.684 18.0662C80.5215 17.9162 80.434 17.7204 80.659 17.8037L80.6757 17.8245C80.9715 17.8037 80.5632 17.3996 80.8882 17.4162C80.6799 17.2954 80.834 17.2954 80.5632 17.1496C80.3882 16.8538 81.2507 17.2245 80.4715 16.6787C80.4673 16.5912 80.709 16.7204 80.7673 16.7162L80.8006 16.7579C80.809 16.5995 80.8215 16.5621 80.8924 16.4829C80.8382 16.3912 80.4673 16.1537 80.6048 16.1329C80.7382 16.2495 80.7298 16.1996 80.7507 16.1704C80.7632 16.2037 80.8132 16.2412 80.9382 16.2662C80.8965 16.2329 80.8715 16.2079 80.8507 16.1871C80.8632 16.1954 80.8715 16.1996 80.8882 16.2079C80.8632 16.1288 80.8132 16.1078 80.7798 16.1162C80.759 16.0995 80.7257 16.0871 80.6798 16.0662C80.9048 16.1329 80.7507 15.9162 81.0132 16.0662C81.0423 15.8829 80.834 15.6204 80.8048 15.4371C80.9465 15.5037 81.0507 15.5996 81.0798 15.6662V15.5496C81.2757 15.6621 81.1632 15.6662 81.1882 15.7162C81.559 15.7954 81.0007 15.3204 81.359 15.3663L81.2215 15.2537L81.2507 15.2621C81.1715 15.2163 81.0757 15.1245 81.059 15.0912C81.2382 15.1704 81.4465 15.3162 81.4715 15.2496C81.6632 15.2954 81.4715 15.0663 81.4132 14.9496C81.3674 14.9663 81.2798 14.9038 81.2257 14.8538C81.2382 14.8204 81.4173 14.8996 81.3548 14.8329L81.584 14.9621C81.3632 14.8496 81.3965 14.7495 81.309 14.687C81.4882 14.7662 81.4298 14.8162 81.5507 14.8954C81.5965 14.762 81.5757 14.8287 81.6215 14.6954C81.484 14.5329 81.3965 14.5871 81.2173 14.4413C81.2048 14.3579 81.0757 14.2163 81.2507 14.2246L81.0382 14.1328C80.9382 13.937 80.9965 13.887 81.2423 13.9287C80.6298 13.0703 80.0799 12.7245 79.6924 12.5828C79.3007 12.4412 79.0632 12.5079 79.0632 12.5079C78.4465 12.5579 78.9548 13.0413 78.909 13.4913L78.9007 13.4996Z" fill="#B6DB65"/>
<path d="M69.3763 29.3162L69.293 29.2578C69.3221 29.2911 69.3513 29.3204 69.3763 29.3162Z" fill="#B6DB65"/>
<path d="M66.563 27.3375C66.563 27.3375 66.5589 27.3208 66.5547 27.3125L66.563 27.3375Z" fill="#B6DB65"/>
<path d="M67.8007 26.7383C67.4466 26.8675 67.0966 26.5592 66.9216 26.9259C66.7591 27.0009 66.6716 27.1926 66.5674 27.3384C66.7091 27.6717 66.3882 27.4759 66.4799 27.7718L66.334 27.6301C66.3674 27.7301 66.3715 27.8092 66.284 27.7426L66.2507 27.6925C66.2966 27.8467 66.2007 27.8051 66.2215 27.8801L66.1882 27.83L66.1549 27.8842L66.1174 27.8092C66.1382 27.9884 66.0715 28.0509 65.9632 28.0342L66.1049 28.23C65.8132 28.1009 66.0424 28.5509 65.7382 28.3717L65.709 28.3217C65.9049 28.9634 65.2174 28.13 65.384 28.7425C65.3632 28.6675 65.3091 28.6426 65.2757 28.5926C65.2382 28.7009 65.1757 28.7842 65.4299 29.1842C65.3716 29.2175 65.3049 29.0883 65.1966 28.9383C65.3091 29.1133 65.3091 29.2175 65.2716 29.2592L65.2466 29.18L65.1591 29.3217L65.3965 29.6384C65.2674 29.5842 65.1216 29.2467 65.1091 29.3675L65.284 29.6426C65.1549 29.6468 64.8382 29.2634 64.6216 29.1176C64.1799 29.2301 64.1924 30.1884 63.5466 29.9009L63.409 29.6967C63.2257 29.3925 63.5757 30.2134 63.3966 29.9342L63.4341 30.1009C63.3924 30.0509 63.334 30.0051 63.3132 29.9259C63.2674 29.9342 63.2966 29.9884 63.3216 30.0967L63.1716 29.9259C62.9341 29.8592 63.0174 30.3092 62.8132 30.3217C62.4007 30.0259 62.2382 30.5883 62.1341 30.9133C62.0716 31.5467 61.0841 30.4509 61.0507 31.1467C61.0174 31.105 61.0424 31.2217 61.0591 31.2592L60.7507 31.3509C60.7507 31.3509 60.3924 31.4842 60.3132 31.8884C60.2382 32.2925 60.4257 32.9842 61.6049 34.0717L61.6299 34.1467C61.8757 34.2425 62.0007 34.2301 61.9507 33.8176C62.1757 34.2426 62.109 33.7968 62.2132 33.9176L62.2257 33.955C62.1674 33.5717 62.5715 34.1301 62.5215 33.7842C62.534 33.8217 62.5924 33.9384 62.5715 33.9592C62.6174 33.8675 62.6674 33.7259 62.7966 33.9717C62.9341 33.8217 63.2341 33.8176 63.1382 33.3634L63.1674 33.4342C63.0924 33.1342 63.2257 33.3551 63.2257 33.1801C63.2466 33.2092 63.2591 33.2259 63.2674 33.2384C63.1966 32.9384 63.4424 33.0967 63.4341 32.9551L63.5257 33.1175L63.6382 33.0092L63.5715 33.0008C63.3507 32.5425 63.8216 33.23 63.7632 32.8883C63.8841 32.8967 63.4424 31.8592 63.6507 32.0301C63.5799 31.7967 63.7965 32.3925 63.7757 32.1967C63.9049 32.43 63.8257 32.3592 63.9424 32.5384C63.9424 32.3926 64.1799 32.7217 64.1716 32.5175L64.2757 32.6967C64.1966 32.3092 64.6049 32.8258 64.4966 32.4717C64.5174 32.2633 64.8716 32.9676 64.7841 32.5509L64.9674 32.7718C65.0382 32.7843 64.8299 32.4551 64.9507 32.5426C65.0341 32.6967 65.0882 32.6258 65.1382 32.7883C65.3965 32.9592 65.1841 32.3092 65.5799 32.6175C65.4382 32.3009 65.6216 32.43 65.5174 32.1925C65.5966 32.3175 65.6882 32.1176 65.7632 32.4509C65.7674 32.4801 65.7549 32.4842 65.7257 32.4301L65.8174 32.6134C66.1049 32.8884 65.8716 32.3342 65.9924 32.3301C65.9299 32.2884 65.9049 32.3259 65.8549 32.1925L65.9507 32.1675L66.0215 32.3259L66.1966 32.3384L66.0674 32.1675C66.184 32.2258 66.3924 32.5176 66.3049 32.2217C66.2466 32.0592 66.0965 32.0134 66.1257 31.9176C66.2799 31.9926 66.5132 32.1009 66.6507 32.0925C66.5132 31.8967 66.5466 31.8884 66.5466 31.8259L66.6591 32.0009C66.6132 31.6884 66.9424 32.3634 66.9257 32.1009L66.9924 32.2301L66.7882 31.8467C66.6632 31.4383 67.0716 32.1758 66.8757 31.6342C66.8549 31.6925 66.6091 31.2634 66.7091 31.3051L66.8049 31.48C66.809 31.4259 66.7757 31.3509 66.8174 31.3717C66.8591 31.4717 66.9674 31.6217 66.9882 31.5675L67.0966 31.7967L66.9757 31.4342C67.1549 31.5758 67.1049 31.2842 67.2841 31.5051C67.2841 31.5051 67.4924 31.5342 67.3507 31.2592C67.4299 31.4384 67.5424 31.4508 67.6466 31.6508C67.5591 31.4467 67.559 31.2301 67.7299 31.3967L67.7382 31.4218C68.0174 31.5176 67.809 30.9842 68.1007 31.13C67.959 30.9342 68.1007 30.9967 67.9091 30.7551C67.8674 30.4134 68.5132 31.0967 68.0132 30.2842C68.0424 30.2008 68.2132 30.4175 68.2716 30.4342L68.2841 30.4843C68.3549 30.3384 68.3799 30.3093 68.4799 30.2676C68.4674 30.1634 68.2174 29.7967 68.3508 29.8301C68.4299 29.9884 68.4424 29.9426 68.4674 29.9217C68.4674 29.9551 68.4966 30.0133 68.6049 30.08C68.5799 30.0342 68.5674 30.0008 68.5591 29.9717C68.5674 29.9842 68.5757 29.9884 68.5841 30.005C68.5924 29.9217 68.5549 29.8842 68.5174 29.88C68.5007 29.8592 68.4799 29.83 68.4466 29.7967C68.6299 29.9467 68.5716 29.6884 68.7549 29.9259C68.8549 29.7676 68.7674 29.4425 68.8091 29.2634C68.9132 29.3759 68.9716 29.5092 68.9758 29.58L69.0216 29.4717C69.1549 29.6509 69.0507 29.6092 69.0549 29.6633C69.3716 29.8758 69.0382 29.2259 69.3507 29.4009L69.2674 29.2425L69.2924 29.2592C69.234 29.1842 69.1841 29.0633 69.1799 29.03C69.3132 29.1717 69.4507 29.3884 69.5007 29.3343C69.659 29.4509 69.5674 29.1633 69.5632 29.0342C69.5132 29.0342 69.4549 28.9384 69.4257 28.8759C69.4507 28.8509 69.584 28.9884 69.5549 28.9051L69.7215 29.1092C69.559 28.9217 69.6299 28.8425 69.5716 28.7509C69.7091 28.8925 69.634 28.9175 69.7174 29.0383C69.8132 28.93 69.7674 28.9842 69.8632 28.8801C69.8007 28.6801 69.6966 28.6926 69.5841 28.4926C69.6049 28.4134 69.5382 28.23 69.6966 28.305L69.5341 28.1384C69.5174 27.9217 69.5882 27.8967 69.8007 28.0259C69.5549 27.0009 69.1674 26.4801 68.8549 26.2051C68.5424 25.9301 68.3007 25.9009 68.3007 25.9009C67.7174 25.7134 68.0091 26.3508 67.8007 26.7425V26.7383Z" fill="#B6DB65"/>
<path d="M52.6711 37.1305L52.6211 37.043C52.6336 37.0846 52.6503 37.1221 52.6711 37.1305Z" fill="#B6DB65"/>
<path d="M52.2436 34.1388C51.8644 34.118 51.6603 33.7014 51.3436 33.9722C51.1603 33.9805 51.0019 34.1264 50.8436 34.2181C50.8436 34.5806 50.6227 34.2764 50.5936 34.5847L50.5103 34.3972C50.5019 34.5014 50.4769 34.5805 50.4186 34.4805L50.4061 34.4222C50.3894 34.5806 50.3144 34.5055 50.3061 34.5847L50.2936 34.5264L50.2394 34.5638L50.2311 34.4805C50.1811 34.6555 50.0936 34.6889 49.9978 34.6347L50.0561 34.868C49.8269 34.643 49.8769 35.143 49.6561 34.868L49.6436 34.8097C49.5853 35.4764 49.2478 34.4513 49.1769 35.0847C49.1853 35.0055 49.1395 34.9639 49.1311 34.9055C49.0561 34.993 48.9644 35.0472 49.0603 35.5138C48.9936 35.5222 48.9769 35.3805 48.9269 35.2013C48.9686 35.4055 48.9269 35.5014 48.8811 35.5264L48.8894 35.443L48.7519 35.543L48.8603 35.9222C48.7561 35.8263 48.7436 35.4556 48.6853 35.5639L48.7519 35.8806C48.6269 35.8389 48.4644 35.3722 48.3102 35.1556C47.8436 35.1056 47.5227 36.0139 47.0019 35.5305L46.9395 35.293C46.8686 34.943 46.9227 35.8347 46.8477 35.5138L46.8311 35.6847C46.8061 35.6264 46.7644 35.5639 46.7728 35.4806C46.7269 35.4764 46.7353 35.5347 46.7228 35.643L46.6352 35.4347C46.4311 35.2972 46.3561 35.7472 46.1561 35.6931C45.8561 35.2847 45.5103 35.768 45.3061 36.0472C45.0519 36.6305 44.4228 35.293 44.1728 35.9514C44.1519 35.9014 44.1436 36.0222 44.1478 36.0597H43.8186C43.8186 36.0597 43.4269 36.0888 43.2353 36.4555C43.0478 36.8263 43.0519 37.5389 43.8769 38.9097V38.9889C44.0894 39.1472 44.2061 39.1722 44.2686 38.7639C44.3644 39.2347 44.4228 38.7888 44.4894 38.9347V38.9722C44.5436 38.5889 44.7644 39.2389 44.8186 38.8972C44.8186 38.9347 44.8394 39.068 44.8186 39.0764C44.8852 39.0055 44.9727 38.8805 45.0227 39.1555C45.1936 39.0513 45.4728 39.1389 45.5144 38.6806V38.7597C45.5353 38.4514 45.5977 38.7013 45.6477 38.5388C45.6561 38.5763 45.6644 38.5931 45.6686 38.6056C45.6936 38.3014 45.8727 38.5222 45.9102 38.3889L45.9436 38.5722L46.0811 38.5056L46.0186 38.4764C45.9519 37.9722 46.1811 38.7722 46.2311 38.4305C46.3394 38.4763 46.2478 37.3513 46.3894 37.5805C46.3978 37.3388 46.4144 37.9722 46.4561 37.7764C46.5061 38.0389 46.4519 37.9472 46.5061 38.1514C46.5561 38.0139 46.6686 38.3972 46.7269 38.2055L46.7686 38.4097C46.8186 38.018 47.0353 38.6389 47.0478 38.2681C47.1353 38.0764 47.2394 38.8597 47.2894 38.4389L47.3894 38.7056C47.4519 38.7389 47.3644 38.3597 47.4478 38.4847C47.4769 38.6597 47.5478 38.6097 47.5436 38.7805C47.7269 39.0264 47.7394 38.343 48.0019 38.768C47.9769 38.4222 48.1019 38.6055 48.0811 38.3472C48.1144 38.493 48.2603 38.3389 48.2228 38.6764C48.2228 38.7055 48.202 38.7013 48.1936 38.643L48.2186 38.8472C48.3936 39.2055 48.3603 38.6055 48.4686 38.643C48.4269 38.5805 48.3894 38.6097 48.3894 38.4639L48.4853 38.4722L48.4978 38.643L48.6561 38.7139L48.5978 38.5097C48.6853 38.6055 48.7811 38.9513 48.7978 38.643C48.7978 38.4722 48.6769 38.3764 48.7353 38.2972C48.8519 38.4222 49.0311 38.6097 49.1561 38.6472C49.0978 38.4139 49.1311 38.418 49.1561 38.3639L49.2019 38.568C49.2644 38.2597 49.3394 39.0055 49.4144 38.7555L49.4311 38.9014L49.3769 38.468C49.4019 38.043 49.5228 38.8763 49.5311 38.3013C49.4894 38.3472 49.4145 37.8597 49.4936 37.9347L49.5186 38.1347C49.5436 38.0847 49.5353 38.0014 49.5644 38.0389C49.5644 38.1472 49.6144 38.3264 49.6561 38.2806L49.6769 38.5347L49.6894 38.1555C49.8019 38.3514 49.8561 38.0639 49.9436 38.3347C49.9436 38.3347 50.1228 38.4389 50.0936 38.1264C50.1061 38.3222 50.202 38.3764 50.227 38.6014C50.2186 38.3806 50.2977 38.1806 50.3936 38.3972V38.4263C50.6102 38.618 50.6103 38.0472 50.8269 38.2931C50.7686 38.0597 50.8769 38.1681 50.7894 37.8722C50.8769 37.5431 51.2145 38.418 51.0603 37.4763C51.1186 37.4097 51.1936 37.6722 51.2436 37.7139V37.7681C51.3561 37.6597 51.3894 37.6431 51.4936 37.6431C51.5228 37.5431 51.4269 37.1097 51.5394 37.193C51.5519 37.3722 51.5811 37.3305 51.6144 37.3222C51.5978 37.3555 51.6061 37.418 51.6811 37.5222C51.6728 37.468 51.677 37.4347 51.6811 37.4055C51.6811 37.418 51.6894 37.4306 51.6936 37.4472C51.7352 37.3722 51.7103 37.3222 51.6811 37.3055C51.677 37.2805 51.6644 37.2472 51.6478 37.2014C51.7561 37.4097 51.8019 37.1472 51.8811 37.4389C52.0311 37.3306 52.0769 37.0013 52.1853 36.8513C52.2394 36.9972 52.2394 37.1389 52.2144 37.2097L52.2978 37.1306C52.3519 37.3472 52.2728 37.268 52.252 37.3222C52.4561 37.643 52.4061 36.9139 52.6228 37.1972L52.6061 37.0181L52.6228 37.0431C52.5978 36.9514 52.5978 36.8222 52.6103 36.7889C52.6769 36.9722 52.7186 37.2222 52.7852 37.193C52.8852 37.3597 52.9144 37.0639 52.9561 36.9431C52.9103 36.9222 52.8936 36.8138 52.8936 36.743C52.9269 36.7263 52.9936 36.9097 52.9977 36.8222L53.0686 37.0763C52.9936 36.8388 53.0894 36.793 53.0728 36.6889C53.1436 36.8722 53.0644 36.8639 53.0936 37.0097C53.2227 36.9514 53.1561 36.9806 53.2853 36.9222C53.3061 36.7139 53.2061 36.6847 53.1811 36.4555C53.2311 36.3888 53.2436 36.1972 53.3602 36.3305L53.2769 36.1138C53.3478 35.9055 53.4227 35.9138 53.5644 36.118C53.7477 35.0805 53.6103 34.4472 53.4394 34.068C53.2644 33.6889 53.0519 33.568 53.0519 33.568C52.5853 33.1639 52.5936 33.8638 52.2394 34.143L52.2436 34.1388Z" fill="#B6DB65"/>
<path d="M34.7253 40.162L34.6836 40.0703C34.6919 40.1161 34.7044 40.1495 34.7253 40.162Z" fill="#B6DB65"/>
<path d="M34.6386 37.1411C34.2511 37.0786 34.0886 36.6452 33.7261 36.8827C33.5344 36.8744 33.3553 37.0035 33.1845 37.0869C33.1511 37.4494 32.9469 37.1286 32.8928 37.4327L32.8261 37.2411C32.8053 37.3453 32.7761 37.4202 32.7261 37.3202L32.7178 37.2618C32.6886 37.4202 32.6178 37.3369 32.6011 37.4161L32.5928 37.3578L32.5344 37.391V37.3077C32.4678 37.4785 32.3761 37.5036 32.2803 37.4452L32.3219 37.6827C32.1053 37.441 32.1178 37.9494 31.9094 37.6578L31.9011 37.5994C31.8011 38.2619 31.5136 37.2202 31.4011 37.8494C31.4136 37.7702 31.372 37.7286 31.3636 37.6703C31.2803 37.7536 31.1844 37.8036 31.2553 38.2744C31.1844 38.2786 31.1761 38.1369 31.1386 37.9577C31.1719 38.1619 31.1261 38.2577 31.0719 38.2786L31.0844 38.1953L30.9386 38.2911L31.0344 38.6744C30.9344 38.5744 30.9344 38.2035 30.8719 38.3118L30.9261 38.6327C30.8011 38.5869 30.6553 38.1118 30.5053 37.8952C30.0219 37.8368 29.6719 38.7369 29.1428 38.2494L29.0803 38.0119C29.0095 37.6619 29.0552 38.5535 28.9802 38.2327L28.9594 38.4036C28.9344 38.3453 28.8928 38.2827 28.9011 38.1993C28.8511 38.1952 28.8636 38.2536 28.8469 38.3661L28.7553 38.1577C28.5428 38.0202 28.4678 38.4702 28.2594 38.4244C27.9428 38.0244 27.5886 38.5161 27.3886 38.8036C27.1511 39.3953 26.4511 38.091 26.2177 38.766C26.1969 38.7202 26.1886 38.8369 26.1969 38.8786L25.8594 38.9036C25.8594 38.9036 25.4553 38.9618 25.2844 39.3452C25.1136 39.7285 25.1969 40.4368 26.1136 41.741L26.1219 41.8202C26.3344 41.9661 26.4511 41.9827 26.4844 41.5744C26.6094 42.0369 26.6344 41.5911 26.7094 41.7328V41.7702C26.7386 41.3869 26.9928 42.0202 27.0261 41.6785C27.0261 41.716 27.0553 41.8452 27.0344 41.8577C27.0969 41.7827 27.1719 41.6578 27.2386 41.9286C27.3969 41.8203 27.6678 41.8952 27.6928 41.4327L27.7011 41.5119C27.7011 41.2036 27.7761 41.4494 27.8178 41.2869C27.8303 41.3202 27.8386 41.341 27.8386 41.3535C27.8511 41.0494 28.0344 41.266 28.0678 41.1285L28.1094 41.3078L28.2428 41.2369L28.1845 41.2078C28.1053 40.7036 28.3511 41.4994 28.3886 41.1577C28.4969 41.2035 28.3803 40.0785 28.5303 40.3035C28.5303 40.0577 28.5636 40.691 28.5969 40.4993C28.6511 40.7618 28.597 40.6702 28.6553 40.8744C28.7011 40.7369 28.822 41.1202 28.872 40.9244L28.9136 41.1285C28.9553 40.7369 29.1761 41.3577 29.1845 40.9869C29.2678 40.7952 29.3719 41.5785 29.4219 41.1577L29.5178 41.4244C29.5761 41.4578 29.4928 41.0786 29.5719 41.2036C29.6011 41.3786 29.6678 41.3286 29.6636 41.4994C29.8428 41.7494 29.8553 41.0661 30.1053 41.4994C30.0803 41.1536 30.2053 41.3411 30.1844 41.0827C30.2136 41.2286 30.3595 41.0786 30.322 41.4119C30.322 41.4411 30.3011 41.4369 30.2928 41.3786L30.3178 41.5827C30.4803 41.9452 30.4553 41.3452 30.5636 41.3869C30.5219 41.3244 30.4886 41.3494 30.4886 41.2078L30.5845 41.2202L30.5969 41.3911L30.747 41.466L30.6928 41.2577C30.7761 41.3535 30.8594 41.7077 30.8803 41.3952C30.8844 41.2244 30.7719 41.1244 30.8303 41.0452C30.9428 41.1744 31.1094 41.3661 31.2303 41.4119C31.1803 41.1786 31.2136 41.1827 31.2344 41.1285L31.2719 41.3327C31.3427 41.0285 31.3886 41.7744 31.4678 41.5286L31.4802 41.6744L31.4428 41.241C31.4803 40.816 31.5678 41.6577 31.5969 41.0827C31.5553 41.1244 31.5011 40.6327 31.572 40.716L31.5886 40.916C31.6136 40.8702 31.6094 40.7827 31.6386 40.8244C31.6386 40.9327 31.6761 41.1119 31.7178 41.0744L31.7261 41.3285L31.7553 40.9494C31.8553 41.1494 31.922 40.866 31.997 41.141C31.997 41.141 32.1636 41.2535 32.1511 40.9452C32.1511 41.141 32.2428 41.1994 32.2553 41.4244C32.2553 41.2036 32.3428 41.0119 32.4261 41.2327V41.2619C32.6219 41.4702 32.6553 40.8994 32.8469 41.1577C32.8053 40.9202 32.9011 41.0369 32.8344 40.7369C32.9427 40.4119 33.2094 41.3119 33.1219 40.3661C33.1844 40.3036 33.2386 40.5744 33.2803 40.616L33.2719 40.6702C33.3928 40.5744 33.4303 40.5577 33.5303 40.5661C33.5636 40.4661 33.5094 40.0285 33.6136 40.1202C33.6136 40.2994 33.6428 40.2619 33.6761 40.2577C33.6594 40.2869 33.6636 40.3536 33.7219 40.4619C33.7219 40.4077 33.7219 40.3744 33.7303 40.3452C33.7303 40.3577 33.7344 40.3702 33.7386 40.3868C33.7844 40.316 33.7678 40.2661 33.7386 40.2452C33.7386 40.2202 33.7303 40.1869 33.7136 40.1369C33.8053 40.3536 33.872 40.0993 33.922 40.3952C34.0761 40.3035 34.1511 39.9744 34.2719 39.8411C34.3094 39.9911 34.2969 40.1327 34.2636 40.1994L34.3511 40.1286C34.3803 40.3494 34.3136 40.2619 34.2886 40.3119C34.4553 40.6535 34.4761 39.9202 34.6594 40.2286V40.0494L34.6761 40.0785C34.6636 39.9868 34.6761 39.8577 34.6928 39.8244C34.7386 40.0161 34.7553 40.2702 34.8219 40.2452C34.9011 40.4244 34.9595 40.1327 35.0136 40.016C34.972 39.9869 34.9678 39.8786 34.9761 39.8119C35.0094 39.7994 35.0552 39.991 35.0719 39.9035L35.1136 40.1619C35.0678 39.9203 35.1636 39.8869 35.1636 39.7785C35.2095 39.9702 35.1344 39.9535 35.1469 40.0994C35.2803 40.0577 35.2136 40.0786 35.3469 40.0327C35.3928 39.8286 35.3011 39.7868 35.3011 39.5577C35.3594 39.4993 35.3969 39.3077 35.4886 39.4535L35.4345 39.2244C35.5303 39.0286 35.6053 39.0452 35.7178 39.266C36.3553 37.2619 35.5511 36.6702 35.5511 36.6702C35.1261 36.2077 35.0344 36.9078 34.6386 37.1453V37.1411Z" fill="#B6DB65"/>
<path d="M17.6233 44.5282L17.5566 44.4531C17.5775 44.4948 17.5983 44.524 17.6233 44.5282Z" fill="#B6DB65"/>
<path d="M11.916 48.1133C11.916 48.1133 11.9202 48.1258 11.9244 48.1341C11.9244 48.1258 11.9202 48.1174 11.916 48.1133Z" fill="#B6DB65"/>
<path d="M15.1995 42.0836C15.1995 42.0836 15.1995 42.0669 15.1953 42.0586V42.0836H15.1995Z" fill="#B6DB65"/>
<path d="M16.666 41.6604C16.2618 41.7187 15.9701 41.3562 15.6785 41.7021C15.4868 41.7562 15.3451 41.9437 15.1993 42.0812C15.2784 42.4354 14.9784 42.202 15.0201 42.5145L14.891 42.3563C14.9035 42.4646 14.8993 42.5438 14.8159 42.4646L14.791 42.4104C14.8118 42.5687 14.7159 42.5187 14.7284 42.5979L14.7035 42.5437L14.6576 42.5979L14.6285 42.5187C14.6201 42.7062 14.541 42.7646 14.4285 42.7396L14.5534 42.9479C14.2576 42.8021 14.4451 43.2729 14.1409 43.0729L14.116 43.0229C14.2493 43.6812 13.6076 42.8187 13.7243 43.452C13.7076 43.3729 13.6493 43.3521 13.6243 43.2979C13.5743 43.4104 13.4993 43.4937 13.7409 43.9021C13.6743 43.9354 13.6118 43.8062 13.5118 43.652C13.6201 43.8312 13.6118 43.9354 13.5701 43.977L13.5493 43.8937L13.4493 44.0395L13.6826 44.3562C13.5493 44.3062 13.4118 43.9604 13.391 44.0854L13.5618 44.3603C13.4284 44.3687 13.1076 43.9854 12.8785 43.8437C12.3868 43.9937 12.4243 44.9646 11.7326 44.7521L11.5743 44.5645C11.3618 44.277 11.7785 45.0687 11.5743 44.8104L11.6243 44.9728C11.5743 44.9312 11.5118 44.8937 11.4868 44.8104C11.4409 44.827 11.4701 44.877 11.5076 44.9853L11.3368 44.8354C11.0784 44.8062 11.1993 45.2479 10.9868 45.302C10.5201 45.0854 10.4035 45.6979 10.3576 46.052C10.4118 46.6895 9.1743 45.8729 9.27847 46.5896C9.2368 46.5604 9.28678 46.6646 9.31178 46.6979L9.02013 46.8895C9.02013 46.8895 8.6826 47.1479 8.72427 47.5688C8.7576 47.9938 9.19513 48.552 10.6285 49.2437L10.6743 49.3062C10.9285 49.3312 11.0326 49.2896 10.8618 48.9188C11.1951 49.2646 10.9993 48.8645 11.1326 48.952L11.1576 48.9854C10.9951 48.6396 11.5201 49.077 11.3784 48.7604C11.3993 48.7937 11.4826 48.8938 11.4743 48.9146C11.4868 48.8188 11.4993 48.6771 11.6826 48.8854C11.7701 48.7187 12.0368 48.6645 11.8409 48.2479L11.8826 48.3145C11.741 48.0395 11.9201 48.2271 11.8826 48.0646C11.9076 48.0896 11.9243 48.102 11.9326 48.1145C11.7993 47.8395 12.0618 47.952 12.0285 47.8187L12.1451 47.9604L12.2284 47.8396H12.1618C11.8618 47.4271 12.4409 48.027 12.3159 47.7062C12.4284 47.702 11.8284 46.7479 12.0576 46.8854C11.9534 46.6645 12.2576 47.2229 12.2035 47.0312C12.366 47.2437 12.2784 47.1854 12.4201 47.3437C12.3993 47.2021 12.6743 47.4937 12.6326 47.2979L12.7576 47.4604C12.6201 47.0896 13.0868 47.5562 12.9326 47.2229C12.9243 47.0187 13.3534 47.677 13.2118 47.2812L13.4118 47.4812C13.4784 47.4895 13.2409 47.1812 13.3659 47.2603C13.4659 47.4062 13.5034 47.3354 13.5743 47.4895C13.8326 47.6437 13.5618 47.0229 13.9618 47.3146C13.7993 47.0104 13.9826 47.1312 13.8576 46.9021C13.9451 47.0229 14.0076 46.8271 14.1118 47.1521C14.1201 47.1771 14.1076 47.1812 14.0743 47.1354L14.1785 47.3104C14.4701 47.577 14.1993 47.0396 14.3118 47.0396C14.2534 46.9979 14.2326 47.0312 14.1743 46.9021L14.2618 46.877L14.3409 47.0312L14.5034 47.0438L14.3743 46.877C14.4868 46.9354 14.6993 47.2271 14.5951 46.9354C14.5326 46.7771 14.3909 46.727 14.4118 46.6353C14.5618 46.7103 14.7826 46.8271 14.9076 46.8229C14.7701 46.6271 14.8035 46.6187 14.7993 46.5604L14.9118 46.7354C14.8576 46.4313 15.1868 47.102 15.1618 46.8478L15.2284 46.977L15.0243 46.5937C14.8951 46.1896 15.2951 46.9312 15.0993 46.3937C15.0785 46.4479 14.8451 46.0145 14.9368 46.0604L15.0284 46.2395C15.0326 46.1854 14.9993 46.1104 15.0368 46.1354C15.0784 46.2395 15.1784 46.3895 15.1993 46.3353L15.3034 46.5645L15.1868 46.2063C15.3534 46.3563 15.3076 46.0729 15.4743 46.3021C15.4743 46.3021 15.666 46.3521 15.5368 46.0646C15.6076 46.2437 15.7118 46.2687 15.8076 46.477C15.7284 46.2729 15.7326 46.0604 15.8868 46.2395V46.2645C16.1493 46.3937 15.9743 45.8479 16.2368 46.0312C16.1159 45.8229 16.2451 45.902 16.0784 45.6395C16.0659 45.2979 16.616 46.0604 16.2118 45.1979C16.2493 45.1187 16.3909 45.3563 16.4451 45.3813L16.4535 45.4312C16.5285 45.302 16.5576 45.2771 16.6534 45.2521C16.6534 45.1479 16.4576 44.752 16.5826 44.8062C16.6368 44.9729 16.6535 44.9312 16.6826 44.9145C16.6785 44.9479 16.6993 45.0104 16.7909 45.0937C16.7701 45.0437 16.7659 45.0103 16.7576 44.9812C16.7659 44.9937 16.7701 45.002 16.7785 45.0187C16.7993 44.9395 16.766 44.8937 16.7326 44.8854C16.7201 44.8604 16.7035 44.8312 16.6743 44.7895C16.8285 44.9687 16.8076 44.7062 16.9493 44.9728C17.0618 44.8395 17.0243 44.5063 17.0993 44.3396C17.1826 44.4729 17.2118 44.6104 17.2035 44.6812L17.2659 44.5895C17.3618 44.7895 17.2743 44.727 17.2659 44.7812C17.5243 45.0562 17.3201 44.3562 17.5826 44.5979L17.5326 44.4271L17.5535 44.452C17.5118 44.3687 17.4868 44.2396 17.4909 44.2021C17.5909 44.3687 17.6826 44.6103 17.7368 44.5687C17.8618 44.7145 17.8284 44.4187 17.8493 44.2979C17.8034 44.2812 17.766 44.1812 17.7535 44.1104C17.7826 44.0896 17.8785 44.2604 17.8701 44.1729L17.9826 44.4104C17.866 44.1896 17.9493 44.1313 17.916 44.0271C18.0118 44.1979 17.9368 44.2021 17.9909 44.3396C18.1034 44.2646 18.0451 44.3021 18.1576 44.2229C18.1409 44.0146 18.0451 44.0021 17.9826 43.7771C18.0201 43.7062 18.0035 43.5103 18.1326 43.627L18.016 43.4228C18.0535 43.2103 18.1326 43.2063 18.2993 43.3896C18.3368 42.3396 18.141 41.7187 17.9201 41.3687C17.6993 41.0145 17.4576 40.9312 17.4576 40.9312C16.9035 40.6062 16.9951 41.3104 16.666 41.6604Z" fill="#B6DB65"/>
<path d="M5.41392 55.4984L5.32227 55.4609C5.35977 55.4859 5.39309 55.5025 5.41392 55.4984Z" fill="#B6DB65"/>
<path d="M3.66992 58.7031C3.66992 58.7031 3.67827 58.7114 3.6866 58.7155C3.68244 58.7114 3.67409 58.7073 3.66992 58.7031Z" fill="#B6DB65"/>
<path d="M2.32354 54.2901C2.32354 54.2901 2.31107 54.2818 2.30273 54.2734L2.31937 54.2901H2.32354Z" fill="#B6DB65"/>
<path d="M2.9688 53.7495C2.76047 53.862 2.34379 53.6745 2.38546 53.9578C2.29796 54.0286 2.33128 54.1786 2.32295 54.2911C2.60211 54.512 2.26045 54.4078 2.48545 54.6078L2.30214 54.5245C2.37714 54.5912 2.42711 54.6495 2.32295 54.6078L2.27295 54.5786C2.38961 54.6828 2.29381 54.662 2.35214 54.7162L2.30214 54.687V54.7328L2.23963 54.687C2.35213 54.812 2.33547 54.8619 2.24797 54.8661L2.46048 54.9828C2.17715 54.9328 2.59378 55.2161 2.26878 55.1286L2.21878 55.0995C2.71878 55.5161 1.75211 55.037 2.21878 55.437C2.16045 55.387 2.10627 55.3828 2.05627 55.3495C2.08961 55.4287 2.09381 55.4953 2.50631 55.7328C2.48131 55.762 2.36048 55.6869 2.19798 55.6036C2.38131 55.7036 2.43962 55.7786 2.43545 55.8078L2.37294 55.7578L2.3938 55.8662L2.74378 56.0411C2.62295 56.0245 2.31879 55.8161 2.38129 55.9036L2.66464 56.062C2.57714 56.087 2.12715 55.8786 1.88965 55.8161C1.64381 55.9744 2.24381 56.6078 1.62714 56.5494L1.4063 56.4453C1.08963 56.2828 1.84379 56.7495 1.54795 56.6037L1.68131 56.7037C1.62298 56.6828 1.55211 56.662 1.48961 56.6162C1.46461 56.6328 1.51879 56.662 1.60629 56.7245L1.39796 56.6453C1.19796 56.6536 1.53964 56.9286 1.41464 56.9828C0.952141 56.8911 1.21465 57.2953 1.37298 57.5245C1.76465 57.9328 0.389651 57.5078 0.852151 57.9537C0.802151 57.937 0.897964 58.0036 0.935464 58.0203L0.810444 58.162C0.810444 58.162 0.68546 58.3453 0.931293 58.6119C1.17713 58.8786 1.80212 59.2119 3.27296 59.5536L3.33964 59.5911C3.55214 59.5911 3.61047 59.5537 3.28547 59.3287C3.72297 59.5245 3.36461 59.2828 3.51461 59.3287L3.54797 59.3494C3.23964 59.1369 3.87297 59.3786 3.60214 59.1828C3.63547 59.1995 3.75214 59.2578 3.75631 59.2745C3.71881 59.212 3.64796 59.1161 3.89796 59.2369C3.87296 59.1203 4.04794 59.0578 3.67294 58.8078L3.73962 58.8453C3.48546 58.6786 3.7188 58.787 3.59797 58.6828C3.6313 58.6953 3.64798 58.7037 3.66465 58.712C3.41465 58.5454 3.67295 58.5911 3.57295 58.5078L3.73962 58.5912V58.5037L3.68545 58.5119C3.23545 58.2744 3.99794 58.6036 3.72711 58.4078C3.80628 58.3911 2.8313 57.8328 3.07714 57.8994C2.87714 57.7661 3.41045 58.0954 3.26462 57.9787C3.50212 58.0995 3.4063 58.0703 3.59797 58.1578C3.50214 58.0662 3.86878 58.2286 3.72711 58.1036L3.91047 58.1953C3.60214 57.9661 4.2063 58.2203 3.90213 58.0203C3.7813 57.887 4.46877 58.2661 4.13544 58.0203L4.39382 58.1286C4.44798 58.1286 4.09798 57.9536 4.23131 57.9869C4.38548 58.0703 4.37295 58.0203 4.51462 58.1119C4.78962 58.1828 4.2313 57.8037 4.68546 57.9453C4.38963 57.7662 4.5938 57.8244 4.37296 57.6869C4.5063 57.7536 4.43548 57.6161 4.69798 57.8161C4.71881 57.8328 4.71044 57.837 4.66044 57.8078L4.83546 57.9078C5.19796 58.0453 4.69378 57.7245 4.76878 57.7078C4.70211 57.687 4.71047 57.7162 4.58964 57.637L4.63547 57.6078L4.78129 57.6994L4.90214 57.6869L4.71044 57.5953C4.82294 57.6161 5.1438 57.7786 4.89797 57.6036C4.76047 57.5078 4.63131 57.4953 4.58964 57.4328C4.73964 57.462 4.96463 57.5078 5.04796 57.4869C4.83546 57.3744 4.85211 57.3662 4.81878 57.3287L5.00214 57.4287C4.7813 57.2328 5.41045 57.6286 5.23961 57.4661L5.36463 57.5412L4.99379 57.3161C4.66046 57.0661 5.38544 57.4994 4.92294 57.1703C4.94378 57.2078 4.51878 56.9578 4.61044 56.9745L4.78129 57.0786C4.75212 57.0453 4.68128 56.9953 4.72295 57.0078C4.81045 57.0703 4.97297 57.1537 4.95631 57.1162L5.16881 57.2537L4.86877 57.0328C5.07294 57.1078 4.86881 56.9244 5.11881 57.0536C5.11881 57.0536 5.27715 57.0536 5.01882 56.887C5.17715 56.9953 5.26045 56.9953 5.45212 57.1162C5.27295 56.9912 5.14796 56.8494 5.36046 56.9453L5.38132 56.9619C5.62715 57.0036 5.17712 56.6703 5.46046 56.7494C5.25212 56.6328 5.38548 56.662 5.11464 56.5162C4.89381 56.2912 5.72711 56.7078 4.92294 56.1995C4.89794 56.1412 5.13545 56.2745 5.18961 56.2828L5.22715 56.3162C5.19382 56.2162 5.19795 56.1953 5.24378 56.162C5.17712 56.0911 4.80215 55.862 4.91465 55.8745C5.05632 55.9787 5.03963 55.9453 5.04796 55.9286C5.06463 55.9536 5.11877 55.9869 5.23127 56.0286C5.18544 55.9994 5.16045 55.9745 5.13962 55.9578C5.15212 55.9661 5.16044 55.9703 5.1771 55.9787C5.1396 55.9203 5.08964 55.8995 5.06047 55.8954C5.03964 55.8829 5.00632 55.8661 4.96465 55.8411C5.17298 55.9328 4.9938 55.7619 5.2563 55.9161C5.23963 55.8078 5.0063 55.5912 4.94797 55.4662C5.08547 55.5412 5.19377 55.6287 5.23127 55.6787L5.21047 55.6036C5.40214 55.7203 5.30627 55.6953 5.33544 55.7328C5.67294 55.8703 5.0938 55.437 5.41463 55.5495L5.27298 55.4453L5.30212 55.4578C5.22296 55.4078 5.12296 55.3286 5.10213 55.3036C5.27296 55.3994 5.48127 55.5411 5.4896 55.5036C5.6646 55.5786 5.45215 55.3869 5.38132 55.2994C5.34382 55.2994 5.25629 55.2369 5.20213 55.1911C5.20213 55.1744 5.37714 55.2661 5.31464 55.212L5.53965 55.3495C5.32715 55.2245 5.33962 55.1661 5.25212 55.1036C5.42296 55.1995 5.37711 55.2161 5.50211 55.2994C5.51878 55.2244 5.51047 55.2619 5.52714 55.1911C5.38131 55.0536 5.31461 55.062 5.13128 54.9245C5.10628 54.8703 4.96882 54.7411 5.12298 54.7953L4.91877 54.6786C4.8021 54.5286 4.84382 54.5078 5.06882 54.5995C4.40215 53.8828 3.87711 53.4994 3.51461 53.3036C3.15211 53.1078 2.95212 53.0994 2.95212 53.0994C2.41045 52.9869 2.92295 53.4453 2.95212 53.7453L2.9688 53.7495Z" fill="#B6DB65"/>
</svg>
