<svg width="140" height="11" viewBox="0 0 140 11" fill="none" xmlns="http://www.w3.org/2000/svg">
<g opacity="0.57">
<path d="M0.600708 10.0108C1.03539 10.2317 1.7819 10.2526 2.49061 10.2901C1.94727 10.0776 1.36612 9.98585 0.600708 10.0108Z" fill="#43C554"/>
<path d="M2.50337 10.2939H2.51296C2.50338 10.2939 2.4938 10.2939 2.48901 10.2939C2.4938 10.2939 2.49858 10.2939 2.50337 10.2981V10.2939Z" fill="#43C554"/>
<path d="M140 0.255859C139.825 0.260026 139.622 0.264205 139.419 0.268372C139.613 0.276705 139.811 0.276693 140 0.255859Z" fill="#43C554"/>
<path d="M35.5029 10.8599L35.6076 10.497C37.2288 10.4888 36.0812 10.9134 37.5795 10.8227C38.1669 10.3074 40.0706 10.8722 40.5852 10.6001C40.5715 10.6413 41.3092 10.6578 41.2591 10.8186C41.4823 10.5383 42.0151 10.7527 42.475 10.6826C42.6435 10.6043 42.3521 10.6001 42.2246 10.5135L43.2856 10.4146C43.7001 10.5053 43.8003 10.6702 43.354 10.699C46.1228 10.798 59.425 11.0536 62.4078 10.9134C62.0253 10.7032 61.1008 10.8475 60.7547 10.5135C61.5426 10.328 61.916 10.5795 62.2621 10.3816C62.5673 10.8763 63.9972 10.497 64.5938 11L64.8215 10.7197L65.2131 10.8888C68.6832 10.596 66.0055 10.7444 69.0794 10.8104C70.8601 10.765 71.7071 10.3775 72.6953 10.5218C72.5496 10.5218 72.1534 10.3487 72.6179 10.2745C72.6953 10.5218 73.8475 10.0971 74.0706 10.3445C74.5214 10.3115 75.9833 10.3445 75.4914 10.0064C75.7419 10.1754 77.0444 10.2414 76.2702 10.3857C76.7119 10.3939 77.1355 10.4435 77.4542 10.3693L76.8895 10.2745C78.3787 10.225 79.1893 10.4846 80.1547 10.1795L79.6037 10.0477C80.4917 10.0271 81.2386 9.99818 81.5847 10.3321L80.6739 10.4352C82.1494 10.427 83.0374 10.4022 84.267 10.2249L83.8298 10.2167C85.3964 9.88272 93.589 9.60236 95.0281 9.18594L94.3632 8.93037L95.6019 8.71184C95.4561 8.71184 95.0053 9.54873 94.8824 9.46628C97.5419 9.44154 111.372 9.23131 113.827 9.40447C114.82 9.54465 114.005 9.81268 113.995 9.85391C115.202 9.75496 114.515 9.58175 115.539 9.60236C115.817 9.64772 115.48 9.80442 115.325 9.84153C115.776 9.81267 116.19 9.89919 116.227 9.77962C115.667 9.6848 115.904 9.36732 115.667 9.15705L116.987 9.18182L116.928 9.38384C117.224 9.38796 117.675 8.83133 118.968 8.93853C121.154 9.02511 123.527 8.95095 125.727 8.9963C125.695 9.11587 125.23 9.19004 124.77 9.26013C125.066 9.26425 125.512 9.23545 125.786 9.32203C125.253 9.10764 126.706 9.1777 126.291 9.087C127.899 8.59224 129.984 9.04167 131.405 8.70359C131.528 8.25831 134.443 1.07199 134.443 0.544257C134.885 0.552503 135.322 0.560709 135.458 0.606061C135.345 0.482373 134.479 0.424644 134.015 0.494734L133.937 0.779294C132.876 0.878245 133.687 0.610209 132.653 0.630823C132.598 0.399938 133.55 0.350467 134.388 0.325729C133.632 0.300991 132.881 0.131906 132.571 0.383406C131.861 0.288578 132.649 0.0989508 131.797 0C131.187 0.0700901 130.39 0.296909 129.688 0.160851L129.702 0.119582C128.004 -0.119549 127.102 0.474171 125.544 0.239163L125.713 0.160851C125.162 0.028917 124.083 0.206212 123.09 0.0660316C123.372 0.111384 123.618 0.280361 123.021 0.309221C121.883 0.164918 121.104 0.309249 120.271 0.131963L119.474 0.358745C115.507 0.317515 99.8417 0.651494 95.8569 0.688601L96.0117 0.651458C89.9413 0.771024 77.477 0.758667 71.2062 1.07613C70.2362 0.853495 68.8973 0.907069 67.8863 0.845225C68.451 0.93593 68.2552 1.09676 67.818 1.08851C64.7349 1.06378 67.6085 1.24101 64.489 1.33996C60.8959 1.55023 47.1474 1.32347 43.9596 1.13381C42.2473 1.46365 40.1069 1.21625 38.4311 1.42652L38.5996 1.34821C36.7962 1.4719 26.5953 1.1751 24.5004 1.29466L24.7828 1.33996C22.9566 1.54611 23.2071 1.18745 21.7635 1.07613C21.9548 1.44308 20.3882 1.65746 19.7916 1.6822L19.8144 1.59976C18.9127 1.6616 16.8771 1.98311 15.3879 2.03671L15.4471 1.83469C14.2084 2.05321 11.8768 1.96255 10.9842 1.98729C8.94858 1.90483 5.80178 1.55432 3.0785 1.82644L1.3161 1.25339L1.05652 1.31107C1.05652 1.31107 -1.7715 8.26244 1.82615 9.74258L1.76694 9.9446L2.47737 9.91984C3.32896 10.0188 3.72515 9.78375 3.66595 9.98577L2.49557 9.96111C3.35172 10.0188 2.75517 10.126 2.42728 10.2414C2.78704 10.2621 3.13314 10.2827 3.42004 10.3445C3.58854 10.2662 3.29708 10.262 3.16046 10.2167C3.62042 10.1466 4.26254 9.95697 4.82724 10.0477C5.70616 10.0642 4.88188 10.3733 5.90653 10.3939C11.3121 10.5465 16.5492 10.7774 22.014 10.7279C22.1369 10.8104 21.9912 10.8104 21.8318 10.8475C23.4758 10.7609 24.9422 10.7897 26.4404 10.699C26.8549 10.7897 26.9687 10.9135 27.0917 10.996C26.8458 10.8269 35.3663 10.8063 35.5029 10.8516V10.8599Z" fill="#43C554"/>
</g>
</svg>
